STARTFONT 2.1
COMMENT
COMMENT Converted from OpenType font "Times.otf" by "otf2bdf 3.0".
COMMENT
FONT -FreeType-Times New Roman-Medium-R-Normal--44-320-100-100-P-214-ISO10646-1
SIZE 32 100 100
FONTBOUNDINGBOX 74 59 -25 -14
STARTPROPERTIES 19
FOUNDRY "FreeType"
FAMILY_NAME "Times New Roman"
WEIGHT_NAME "Medium"
SLANT "R"
SETWIDTH_NAME "Normal"
ADD_STYLE_NAME ""
PIXEL_SIZE 44
POINT_SIZE 320
RESOLUTION_X 100
RESOLUTION_Y 100
SPACING "P"
AVERAGE_WIDTH 214
CHARSET_REGISTRY "ISO10646"
CHARSET_ENCODING "1"
FONT_ASCENT 39
FONT_DESCENT 9
COPYRIGHT "© 2006 The Monotype Corporation. All Rights Reserved."
_OTF_FONTFILE "Times.otf"
_OTF_PSNAME "TimesNewRomanPSMT"
ENDPROPERTIES
CHARS 1425
STARTCHAR 0020
ENCODING 32
SWIDTH 247 0
DWIDTH 11 0
BBX 0 0 0 0
BITMAP
ENDCHAR
STARTCHAR 0021
ENCODING 33
SWIDTH 337 0
DWIDTH 15 0
BBX 5 31 5 -1
BITMAP
70
F8
F8
F8
F8
F8
F8
F0
F0
70
70
70
70
70
70
70
60
60
20
20
20
20
00
00
00
00
70
F8
F8
F0
20
ENDCHAR
STARTCHAR 0022
ENCODING 34
SWIDTH 405 0
DWIDTH 18 0
BBX 12 13 3 17
BITMAP
70F0
F0F0
F0F0
F0F0
F0F0
F0F0
F0F0
6070
6060
6060
6060
6060
2060
ENDCHAR
STARTCHAR 0023
ENCODING 35
SWIDTH 495 0
DWIDTH 22 0
BBX 20 31 1 -1
BITMAP
008060
018040
0180C0
0180C0
0180C0
0100C0
030080
030180
030180
030180
FFFFF0
FFFFF0
060300
060300
060300
040300
0C0200
0C0600
0C0600
FFFFF0
FFFFF0
180400
180C00
180C00
180C00
100C00
300800
301800
301800
301800
201800
ENDCHAR
STARTCHAR 0024
ENCODING 36
SWIDTH 495 0
DWIDTH 22 0
BBX 18 35 2 -3
BITMAP
008000
008000
03F000
0FFE00
388780
308380
708180
708180
F08180
F08080
F88080
788000
7C8000
3F8000
1F8000
0FE000
07F000
03F800
00FE00
00FF00
009F80
008F80
0087C0
0083C0
0083C0
8081C0
C081C0
C08380
E08380
E08700
F88E00
3FFC00
01C000
008000
008000
ENDCHAR
STARTCHAR 0025
ENCODING 37
SWIDTH 832 0
DWIDTH 37 0
BBX 33 31 2 -1
BITMAP
0F00003000
39C0006000
70E000C000
60E000C000
E0F0018000
E070030000
E070030000
E070060000
E0700C0000
E0700C0000
E070180000
E0F0300000
60E0300000
70C0600000
3980C00000
0F00C01000
000180FC00
000301C700
0002038700
0006038380
000C078380
0018078380
0018070380
0030070380
0060070380
0060078380
00C0078380
0180038380
0180038700
030001CE00
0600007C00
ENDCHAR
STARTCHAR 0026
ENCODING 38
SWIDTH 787 0
DWIDTH 35 0
BBX 31 31 2 -1
BITMAP
001F8000
003FE000
00F07000
00E07000
01E03000
01E03000
01E03000
01E07000
01E06000
01F0C000
01F38000
00F707FC
00FC03E0
007801C0
01FC01C0
07BE0180
0E3E0300
1C1F0300
381F8600
780F8600
700FCC00
F007F800
F003F800
F001F000
F801F802
F801FC02
FC03FE06
7E0F3FFC
7FFC1FF8
1FF80FF0
038001C0
ENDCHAR
STARTCHAR 0027
ENCODING 39
SWIDTH 180 0
DWIDTH 8 0
BBX 4 13 2 17
BITMAP
E0
F0
F0
F0
F0
F0
E0
E0
60
60
60
60
40
ENDCHAR
STARTCHAR 0028
ENCODING 40
SWIDTH 337 0
DWIDTH 15 0
BBX 12 40 2 -10
BITMAP
0010
0060
00C0
0180
0300
0600
0E00
0C00
1C00
3800
3800
7800
7800
7800
7000
F000
F000
F000
F000
F000
F000
F000
F000
F000
F000
F000
7000
7800
7800
3800
3800
1C00
1C00
0C00
0E00
0700
0300
0180
00C0
0030
ENDCHAR
STARTCHAR 0029
ENCODING 41
SWIDTH 337 0
DWIDTH 15 0
BBX 12 40 1 -10
BITMAP
8000
4000
3000
1800
0C00
0E00
0700
0300
0380
0380
01C0
01C0
01E0
01E0
01E0
00F0
00F0
00F0
00F0
00F0
00F0
00F0
00F0
00F0
00F0
00E0
01E0
01E0
01E0
01C0
01C0
0380
0380
0300
0600
0600
0C00
1800
2000
C000
ENDCHAR
STARTCHAR 002A
ENCODING 42
SWIDTH 495 0
DWIDTH 22 0
BBX 16 18 3 13
BITMAP
0180
03C0
03C0
01C0
61C7
F98F
FD9F
3EBC
07E0
03C0
1EFC
7DBE
F99F
F18F
01C0
03C0
03C0
0180
ENDCHAR
STARTCHAR 002B
ENCODING 43
SWIDTH 562 0
DWIDTH 25 0
BBX 23 23 1 3
BITMAP
001000
001000
001000
001000
001000
001000
001000
001000
001000
001000
FFFFFE
FFFFFE
001000
001000
001000
001000
001000
001000
001000
001000
001000
001000
001000
ENDCHAR
STARTCHAR 002C
ENCODING 44
SWIDTH 247 0
DWIDTH 11 0
BBX 7 11 2 -7
BITMAP
78
7C
FE
7E
26
06
04
0C
08
30
E0
ENDCHAR
STARTCHAR 002D
ENCODING 45
SWIDTH 337 0
DWIDTH 15 0
BBX 11 4 2 8
BITMAP
FFE0
FFE0
FFE0
FFE0
ENDCHAR
STARTCHAR 002E
ENCODING 46
SWIDTH 247 0
DWIDTH 11 0
BBX 5 5 3 -1
BITMAP
70
F8
F8
78
20
ENDCHAR
STARTCHAR 002F
ENCODING 47
SWIDTH 270 0
DWIDTH 12 0
BBX 12 32 0 -1
BITMAP
0010
0030
0030
0020
0060
0060
0040
00C0
00C0
0080
0180
0180
0100
0300
0300
0200
0600
0600
0400
0C00
0C00
1800
1800
1800
3000
3000
3000
6000
6000
6000
C000
C000
ENDCHAR
STARTCHAR 0030
ENCODING 48
SWIDTH 495 0
DWIDTH 22 0
BBX 19 30 2 -1
BITMAP
01F000
07B800
0E0E00
1C0E00
380700
380780
780380
7803C0
7003C0
F003C0
F003C0
F003C0
F003E0
F003E0
F003E0
F003E0
F003E0
F003E0
F003C0
F003C0
F003C0
F003C0
7003C0
780380
780780
380700
1C0700
1C0E00
0E1C00
07F000
ENDCHAR
STARTCHAR 0031
ENCODING 49
SWIDTH 495 0
DWIDTH 22 0
BBX 12 30 5 0
BITMAP
0300
0F00
3F00
FF00
0F00
0F00
0F00
0F00
0F00
0F00
0F00
0F00
0F00
0F00
0F00
0F00
0F00
0F00
0F00
0F00
0F00
0F00
0F00
0F00
0F00
0F00
0F00
0F00
0F80
7FF0
ENDCHAR
STARTCHAR 0032
ENCODING 50
SWIDTH 495 0
DWIDTH 22 0
BBX 19 30 1 0
BITMAP
03F000
0FFC00
1FFE00
3E7F00
301F80
600F80
4007C0
4003C0
0003C0
000380
000380
000380
000700
000700
000600
000E00
000C00
001800
003000
002000
006000
00C000
018000
030000
060020
0C0020
1800E0
3FFFC0
7FFFC0
FFFFC0
ENDCHAR
STARTCHAR 0033
ENCODING 51
SWIDTH 495 0
DWIDTH 22 0
BBX 17 31 2 -1
BITMAP
07E000
0FF800
1FFC00
307E00
603E00
401E00
001E00
001E00
001C00
001C00
001800
003000
002000
00F800
03FC00
07FE00
003F00
001F00
000F00
000780
000780
000700
000700
000700
000700
000600
000C00
F01C00
FE7000
FFC000
080000
ENDCHAR
STARTCHAR 0034
ENCODING 52
SWIDTH 495 0
DWIDTH 22 0
BBX 20 30 1 0
BITMAP
000700
000F00
000F00
001F00
003F00
006F00
006F00
00CF00
018F00
018F00
030F00
060F00
060F00
0C0F00
180F00
300F00
300F00
600F00
C00F00
FFFFF0
FFFFF0
FFFFF0
000F00
000F00
000F00
000F00
000F00
000F00
000F00
000F00
ENDCHAR
STARTCHAR 0035
ENCODING 53
SWIDTH 495 0
DWIDTH 22 0
BBX 17 29 2 -1
BITMAP
03FF80
03FF00
07FF00
060000
0C0000
0C0000
180000
1C0000
3FC000
3FE000
7FF800
07FC00
00FE00
003F00
001F00
000F00
000780
000780
000380
000380
000380
000300
000300
000600
000600
600C00
F81800
FFF000
7FC000
ENDCHAR
STARTCHAR 0036
ENCODING 54
SWIDTH 495 0
DWIDTH 22 0
BBX 19 30 2 -1
BITMAP
0007C0
003C00
007000
01E000
03C000
078000
0F0000
0E0000
1E0000
3C0000
3C0000
783000
79FE00
7F3F00
FC0F80
F007C0
F007C0
F003C0
F003C0
F003E0
F001E0
F001C0
F001C0
7801C0
7803C0
380380
3C0300
1C0700
0E0E00
07F800
ENDCHAR
STARTCHAR 0037
ENCODING 55
SWIDTH 495 0
DWIDTH 22 0
BBX 18 30 2 -1
BITMAP
3FFFC0
3FFFC0
7FFFC0
700180
C00380
800380
000300
000700
000700
000600
000E00
000E00
000C00
001C00
001800
001800
003800
003000
003000
007000
006000
006000
00E000
00C000
00C000
01C000
018000
018000
038000
030000
ENDCHAR
STARTCHAR 0038
ENCODING 56
SWIDTH 495 0
DWIDTH 22 0
BBX 17 30 3 -1
BITMAP
07E000
1C3800
380E00
700E00
600700
E00700
E00700
F00700
F00700
F80E00
7C1C00
3E3800
1F7000
0FC000
07E000
07F000
0DF800
18FC00
307E00
701F00
E00F00
E00F80
E00780
E00780
E00380
E00300
700700
700600
3C0C00
0FF800
ENDCHAR
STARTCHAR 0039
ENCODING 57
SWIDTH 495 0
DWIDTH 22 0
BBX 18 31 2 -1
BITMAP
03F000
0F7C00
1C1E00
380F00
700700
700780
F00780
F003C0
F003C0
F003C0
F003C0
F003C0
F003C0
F803C0
F803C0
7C03C0
3E0FC0
1FFFC0
0FE780
000780
000F00
000F00
001E00
001C00
003C00
007800
00F000
01C000
038000
1E0000
E00000
ENDCHAR
STARTCHAR 003A
ENCODING 58
SWIDTH 270 0
DWIDTH 12 0
BBX 5 21 4 -1
BITMAP
F0
F8
F8
F0
00
00
00
00
00
00
00
00
00
00
00
00
70
F8
F8
F0
20
ENDCHAR
STARTCHAR 003B
ENCODING 59
SWIDTH 270 0
DWIDTH 12 0
BBX 7 27 3 -6
BITMAP
78
7C
78
78
00
00
00
00
00
00
00
00
00
00
00
00
78
FC
FC
FE
26
04
0C
0C
18
30
C0
ENDCHAR
STARTCHAR 003C
ENCODING 60
SWIDTH 562 0
DWIDTH 25 0
BBX 23 21 1 4
BITMAP
000006
00001E
0000F8
0003C0
000F00
007C00
01F000
078000
1E0000
F80000
F00000
3C0000
0F0000
03E000
00F800
001E00
000780
0001F0
00003C
00000E
000002
ENDCHAR
STARTCHAR 003D
ENCODING 61
SWIDTH 562 0
DWIDTH 25 0
BBX 23 9 1 10
BITMAP
FFFFFE
FFFFFE
000000
000000
000000
000000
000000
FFFFFE
FFFFFE
ENDCHAR
STARTCHAR 003E
ENCODING 62
SWIDTH 562 0
DWIDTH 25 0
BBX 23 21 1 4
BITMAP
C00000
F00000
3E0000
0F8000
01E000
007800
001F00
0007C0
0000F0
00003E
00000E
00007C
0001E0
000780
003E00
00F000
03C000
1F0000
780000
E00000
800000
ENDCHAR
STARTCHAR 003F
ENCODING 63
SWIDTH 450 0
DWIDTH 20 0
BBX 16 31 2 -1
BITMAP
0FF0
1878
603C
601E
E01F
E00F
F00F
F00F
700F
200E
001E
001C
003C
0038
0070
0060
00C0
00C0
0080
0100
0100
0100
0100
0000
0000
0000
0380
07C0
07C0
03C0
0100
ENDCHAR
STARTCHAR 0040
ENCODING 64
SWIDTH 922 0
DWIDTH 41 0
BBX 38 41 2 -10
BITMAP
00007F0000
0007C1F000
001C001C00
0070000600
00E0000300
0180000180
03000000C0
0600000040
0E00000060
1C00000020
18001E1030
3800637030
3001C17010
300380F010
600700E010
600700E010
600E01E010
E01C01C010
C01C01C030
C03801C030
C03803C020
C078038060
C070078060
C0700F8040
C0700F00C0
C070170180
6078270300
607CC7060C
603F879C08
303E03F008
3000000010
1800000030
1800000020
0C00000040
06000000C0
0300000300
0180000600
00E0001C00
003C007000
000FFFC000
0000700000
ENDCHAR
STARTCHAR 0041
ENCODING 65
SWIDTH 720 0
DWIDTH 32 0
BBX 32 30 0 0
BITMAP
00018000
00018000
00038000
0003C000
0003C000
0007E000
0007E000
000DE000
000DF000
0018F000
0018F800
00187800
00307C00
00303C00
00603C00
00603E00
00C01E00
00C01F00
00C00F00
01FFFF00
01800F80
03000780
030007C0
060003C0
060003E0
060001E0
0C0001F0
1C0001F0
3E0003F8
FFC00FFF
ENDCHAR
STARTCHAR 0042
ENCODING 66
SWIDTH 675 0
DWIDTH 30 0
BBX 26 29 1 0
BITMAP
FFFFF000
1F00FC00
0F003E00
0F001F00
0F000F00
0F000F80
0F000F80
0F000F80
0F000F80
0F000F80
0F001F00
0F001E00
0F007C00
0FFFF800
0FFFF800
0F007E00
0F001F80
0F000F80
0F000FC0
0F0007C0
0F0007C0
0F0007C0
0F0007C0
0F0007C0
0F000F80
0F001F80
0F003F00
1FFFFC00
FFFFE000
ENDCHAR
STARTCHAR 0043
ENCODING 67
SWIDTH 675 0
DWIDTH 30 0
BBX 26 31 2 -1
BITMAP
003FC080
00FFF980
03C01F80
07800780
0F000380
1E000180
3C000180
3C000080
7C000080
78000000
F8000000
F8000000
F8000000
F8000000
F8000000
F8000000
F8000000
F8000000
F8000000
F8000000
F8000000
78000000
7C000000
7C000040
3E000080
1F000180
0F800300
07C00600
03FC3800
00FFF000
000E0000
ENDCHAR
STARTCHAR 0044
ENCODING 68
SWIDTH 720 0
DWIDTH 32 0
BBX 29 29 1 0
BITMAP
FFFFF000
1FC1FE00
0F003F00
0F000F80
0F0007C0
0F0003E0
0F0003F0
0F0001F0
0F0001F0
0F0000F8
0F0000F8
0F0000F8
0F0000F8
0F0000F8
0F0000F8
0F0000F8
0F0000F8
0F0000F8
0F0000F8
0F0000F8
0F0001F0
0F0001F0
0F0003E0
0F0003C0
0F0007C0
0F001F80
0F003E00
1FFFF800
FFFFC000
ENDCHAR
STARTCHAR 0045
ENCODING 69
SWIDTH 607 0
DWIDTH 27 0
BBX 25 29 1 0
BITMAP
FFFFFE00
0F001E00
0F000600
0F000600
0F000200
0F000200
0F000000
0F000000
0F000000
0F001000
0F001000
0F001000
0F007000
0FFFF000
0F01F000
0F003000
0F001000
0F001000
0F001000
0F000000
0F000000
0F000000
0F000080
0F000100
0F000100
0F000300
0F000600
1FFFFE00
FFFFFE00
ENDCHAR
STARTCHAR 0046
ENCODING 70
SWIDTH 562 0
DWIDTH 25 0
BBX 22 29 1 0
BITMAP
FFFFFC
1F007C
0F001C
0F000C
0F0004
0F0004
0F0000
0F0000
0F0000
0F0040
0F0040
0F0040
0F01C0
0FFFC0
0FFFC0
0F00C0
0F0040
0F0040
0F0040
0F0000
0F0000
0F0000
0F0000
0F0000
0F0000
0F0000
0F0000
1F8000
FFF000
ENDCHAR
STARTCHAR 0047
ENCODING 71
SWIDTH 720 0
DWIDTH 32 0
BBX 29 31 2 -1
BITMAP
001FE080
00FEFC80
03E00F80
078003C0
0F0001C0
1E0000C0
1E0000C0
3C000040
7C000040
78000000
F8000000
F8000000
F8000000
F8000000
F8003FF8
F80007E0
F80003C0
F80003C0
F80003C0
F80003C0
F80003C0
7C0003C0
7C0003C0
3E0003C0
3E0003C0
1F0003C0
0F8003C0
07C003C0
01F00F80
007FFE00
0003E000
ENDCHAR
STARTCHAR 0048
ENCODING 72
SWIDTH 720 0
DWIDTH 32 0
BBX 30 29 1 0
BITMAP
FFF03FFC
1F8007C0
0F0003C0
0F0003C0
0F0003C0
0F0003C0
0F0003C0
0F0003C0
0F0003C0
0F0003C0
0F0003C0
0F0003C0
0F0003C0
0FFFFFC0
0FFFFFC0
0F0003C0
0F0003C0
0F0003C0
0F0003C0
0F0003C0
0F0003C0
0F0003C0
0F0003C0
0F0003C0
0F0003C0
0F0003C0
0F0003C0
1F8007E0
FFF03FFC
ENDCHAR
STARTCHAR 0049
ENCODING 73
SWIDTH 337 0
DWIDTH 15 0
BBX 13 29 1 0
BITMAP
7FF0
0F80
0F80
0F80
0F00
0F00
0F00
0F00
0F00
0F00
0F00
0F00
0F00
0F00
0F00
0F00
0F00
0F00
0F00
0F00
0F00
0F00
0F00
0F00
0F80
0F80
0F80
1F80
FFF8
ENDCHAR
STARTCHAR 004A
ENCODING 74
SWIDTH 382 0
DWIDTH 17 0
BBX 16 30 1 -1
BITMAP
0FFF
01F0
00F0
00F0
00F0
00F0
00F0
00F0
00F0
00F0
00F0
00F0
00F0
00F0
00F0
00F0
00F0
00F0
00F0
00F0
00F0
00F0
00F0
00E0
60E0
F0E0
F8C0
F980
7F00
1800
ENDCHAR
STARTCHAR 004B
ENCODING 75
SWIDTH 720 0
DWIDTH 32 0
BBX 31 29 1 0
BITMAP
FFF07FE0
1F801F00
0F001E00
0F001800
0F003000
0F006000
0F00C000
0F018000
0F030000
0F060000
0F0C0000
0F180000
0F300000
0FF80000
0FFC0000
0F7E0000
0F3F0000
0F1F8000
0F0FC000
0F07E000
0F03F000
0F01F800
0F00FC00
0F007E00
0F003F00
0F001F80
0F000FE0
1F800FF8
FFF07FFE
ENDCHAR
STARTCHAR 004C
ENCODING 76
SWIDTH 607 0
DWIDTH 27 0
BBX 25 29 1 0
BITMAP
FFF80000
0F800000
0F000000
0F000000
0F000000
0F000000
0F000000
0F000000
0F000000
0F000000
0F000000
0F000000
0F000000
0F000000
0F000000
0F000000
0F000000
0F000000
0F000000
0F000000
0F000000
0F000080
0F000080
0F000100
0F000100
0F000300
0F800E00
1FFFFE00
FFFFFE00
ENDCHAR
STARTCHAR 004D
ENCODING 77
SWIDTH 900 0
DWIDTH 40 0
BBX 38 29 1 0
BITMAP
FF800007F8
1F80000FC0
0F80000FC0
0FC0001F80
0FC0001F80
0FE0001F80
0DE0003780
0DF0003780
0CF0006780
0CF8006780
0C7800C780
0C7C00C780
0C3C018780
0C3E018780
0C3E038780
0C1E030780
0C1F030780
0C0F060780
0C0F860780
0C078C0780
0C07CC0780
0C03D80780
0C03F80780
0C01F00780
0C01F00780
0C00F007C0
0C00E007C0
1E00E00FC0
FFC0407FFC
ENDCHAR
STARTCHAR 004E
ENCODING 78
SWIDTH 720 0
DWIDTH 32 0
BBX 31 29 0 0
BITMAP
FF0003FE
1F800070
0FC00060
07E00060
07E00060
07F00060
06F80060
06FC0060
067E0060
063E0060
061F0060
060F8060
0607C060
0607E060
0603F060
0601F060
0600F860
06007C60
06007E60
06003F60
06001F60
06000FE0
060007E0
060003E0
060003E0
060001E0
060000E0
0F000060
7FE00020
ENDCHAR
STARTCHAR 004F
ENCODING 79
SWIDTH 720 0
DWIDTH 32 0
BBX 28 31 2 -1
BITMAP
003FC000
00FFF800
03C03C00
07001E00
0E000F00
1E000780
3C0003C0
7C0003E0
780003E0
780001E0
F80001F0
F80001F0
F80001F0
F80001F0
F80001F0
F80001F0
F80001F0
F80001F0
F80001F0
F80001F0
F80001F0
780001E0
7C0001E0
3C0003C0
3E0003C0
1E000780
0F000F00
07801E00
03E07800
00FFF000
000F0000
ENDCHAR
STARTCHAR 0050
ENCODING 80
SWIDTH 562 0
DWIDTH 25 0
BBX 22 29 1 0
BITMAP
FFFF80
1FCFE0
0F01F0
0F00F8
0F00FC
0F007C
0F007C
0F007C
0F007C
0F007C
0F007C
0F00F8
0F00F8
0F01F0
0FFFE0
0F3F00
0F0000
0F0000
0F0000
0F0000
0F0000
0F0000
0F0000
0F0000
0F0000
0F0000
0F0000
1F8000
FFF000
ENDCHAR
STARTCHAR 0051
ENCODING 81
SWIDTH 720 0
DWIDTH 32 0
BBX 28 39 2 -9
BITMAP
003FC000
00FFF800
03C03C00
07001E00
0E000F00
1E000780
3C0003C0
7C0003E0
780003E0
780001E0
F80001F0
F80001F0
F80001F0
F80001F0
F80001F0
F80001F0
F80001F0
F80001F0
F80001F0
F80001F0
F80001F0
780001E0
7C0001E0
3C0003C0
3E0003C0
1E000780
0F000F00
07801E00
03E03C00
00FFF000
003FC000
001FC000
0007E000
0003F000
0001F800
00007C00
00001E00
000003C0
00000030
ENDCHAR
STARTCHAR 0052
ENCODING 82
SWIDTH 675 0
DWIDTH 30 0
BBX 29 29 1 0
BITMAP
FFFFC000
1F87F000
0F00F800
0F007C00
0F007C00
0F003E00
0F003E00
0F003E00
0F003E00
0F003C00
0F007C00
0F00F800
0F01F000
0F07E000
0FFF0000
0F1F0000
0F0F8000
0F07C000
0F03C000
0F03E000
0F01F000
0F00F000
0F00F800
0F007C00
0F003E00
0F001E00
0F001F80
1F800FC0
FFF007F8
ENDCHAR
STARTCHAR 0053
ENCODING 83
SWIDTH 562 0
DWIDTH 25 0
BBX 19 31 3 -1
BITMAP
07F080
1FFF80
380F80
700380
F00380
E00180
E00080
F00080
F00080
F80080
FC0000
7F0000
3FC000
1FF000
0FF800
03FE00
01FF00
007F80
001FC0
000FE0
0003E0
8001E0
8001E0
C001E0
C001E0
E001E0
E001C0
F80380
FE0F00
8FFE00
80F000
ENDCHAR
STARTCHAR 0054
ENCODING 84
SWIDTH 607 0
DWIDTH 27 0
BBX 25 29 1 0
BITMAP
7FFFFF80
7C1E0F80
601E0380
C01E0180
C01E0080
801E0080
001E0000
001E0000
001E0000
001E0000
001E0000
001E0000
001E0000
001E0000
001E0000
001E0000
001E0000
001E0000
001E0000
001E0000
001E0000
001E0000
001E0000
001E0000
001E0000
003E0000
003E0000
003F0000
03FFE000
ENDCHAR
STARTCHAR 0055
ENCODING 85
SWIDTH 720 0
DWIDTH 32 0
BBX 30 30 1 -1
BITMAP
FFE007FC
1F0000E0
1F0000E0
1F0000C0
1F0000C0
1F0000C0
1F0000C0
1F0000C0
1F0000C0
1F0000C0
1F0000C0
1F0000C0
1F0000C0
1F0000C0
1F0000C0
1F0000C0
0F0000C0
0F0000C0
0F0000C0
0F0000C0
0F0000C0
0F0000C0
0F0000C0
0F0000C0
07800180
07C00380
03E00700
01F83E00
007FF800
00078000
ENDCHAR
STARTCHAR 0056
ENCODING 86
SWIDTH 720 0
DWIDTH 32 0
BBX 30 30 1 -1
BITMAP
FFE003FC
3F0000F0
1F000060
0F0000E0
0F8000C0
078000C0
07800180
07C00180
03C00180
03E00300
01E00300
01F00600
00F00600
00F80600
00F80C00
00780C00
007C1800
003C1800
003E3000
001E3000
001F3000
001F6000
000F6000
000FC000
0007C000
0007C000
00038000
00038000
00010000
00010000
ENDCHAR
STARTCHAR 0057
ENCODING 87
SWIDTH 945 0
DWIDTH 42 0
BBX 40 30 1 -1
BITMAP
FFC3FF80FF
3F00FC001C
1F007C0018
1F003C0018
0F003C0010
0F803E0030
0F801E0030
07801E0020
07C01F0060
03C01F0060
03C03F0040
03E03F80C0
01E03780C0
01E0678180
01F067C180
00F063C180
00F0C3E300
00F8C1E300
0078C1E300
007981F600
007D80F600
003D00F600
003F00FC00
001F007C00
001E007C00
001E007800
000E003800
000C003800
000C003000
0004001000
ENDCHAR
STARTCHAR 0058
ENCODING 88
SWIDTH 720 0
DWIDTH 32 0
BBX 32 29 0 0
BITMAP
7FFC07FC
07F001F0
03F000C0
01F00180
00F80380
00F80300
007C0600
003E0C00
003E1800
001F3800
000FB000
000FE000
0007C000
0003E000
0003E000
0003F000
0006F800
000CF800
001C7C00
00183E00
00303E00
00601F00
00C00F80
01C00F80
018007C0
030003E0
0F0003F0
1F0007F8
FFE01FFF
ENDCHAR
STARTCHAR 0059
ENCODING 89
SWIDTH 720 0
DWIDTH 32 0
BBX 30 29 1 0
BITMAP
FFE007FC
3F8001E0
1F8001C0
0F800180
07C00380
07C00300
03E00600
01E00600
01F00C00
00F81800
00781800
007C3000
003E7000
001E6000
001FC000
000FC000
000F8000
00078000
00078000
00078000
00078000
00078000
00078000
00078000
00078000
00078000
00078000
000FC000
007FF800
ENDCHAR
STARTCHAR 005A
ENCODING 90
SWIDTH 607 0
DWIDTH 27 0
BBX 25 29 1 0
BITMAP
1FFFFF00
1E003E00
18003E00
30007C00
3000F800
2000F000
2001F000
0003E000
0007C000
0007C000
000F8000
001F0000
001F0000
003E0000
007C0000
00F80000
00F80000
01F00000
03E00000
03E00000
07C00000
0F800080
0F800080
1F000180
3E000100
7C000300
7C000700
FFFFFF00
FFFFFF00
ENDCHAR
STARTCHAR 005B
ENCODING 91
SWIDTH 337 0
DWIDTH 15 0
BBX 9 39 4 -9
BITMAP
FF80
FF80
E000
E000
E000
E000
E000
E000
E000
E000
E000
E000
E000
E000
E000
E000
E000
E000
E000
E000
E000
E000
E000
E000
E000
E000
E000
E000
E000
E000
E000
E000
E000
E000
E000
E000
E000
FF80
FF80
ENDCHAR
STARTCHAR 005C
ENCODING 92
SWIDTH 270 0
DWIDTH 12 0
BBX 12 32 0 -1
BITMAP
C000
C000
6000
6000
2000
3000
3000
1000
1800
1800
0800
0C00
0C00
0400
0600
0600
0200
0300
0300
0100
0180
0180
0080
00C0
00C0
0040
0060
0060
0020
0030
0030
0010
ENDCHAR
STARTCHAR 005D
ENCODING 93
SWIDTH 337 0
DWIDTH 15 0
BBX 9 39 2 -9
BITMAP
FF80
FF80
0380
0380
0380
0380
0380
0380
0380
0380
0380
0380
0380
0380
0380
0380
0380
0380
0380
0380
0380
0380
0380
0380
0380
0380
0380
0380
0380
0380
0380
0380
0380
0380
0380
0380
0380
FF80
FF80
ENDCHAR
STARTCHAR 005E
ENCODING 94
SWIDTH 472 0
DWIDTH 21 0
BBX 19 16 1 14
BITMAP
004000
00E000
00E000
01B000
033000
031800
060C00
060C00
0C0600
180600
180300
300180
300180
6000C0
C000C0
C00060
ENDCHAR
STARTCHAR 005F
ENCODING 95
SWIDTH 495 0
DWIDTH 22 0
BBX 23 2 0 -10
BITMAP
FFFFFE
FFFFFE
ENDCHAR
STARTCHAR 0060
ENCODING 96
SWIDTH 337 0
DWIDTH 15 0
BBX 6 7 3 23
BITMAP
F8
78
38
1C
0C
0C
04
ENDCHAR
STARTCHAR 0061
ENCODING 97
SWIDTH 450 0
DWIDTH 20 0
BBX 18 20 2 0
BITMAP
1FF000
387800
703C00
703C00
F01C00
F01C00
601C00
007C00
03DC00
0E1C00
1C1C00
701C00
F01C00
E01C00
E01C00
E01C00
F03C40
F8DE80
FF9F80
7E1E00
ENDCHAR
STARTCHAR 0062
ENCODING 98
SWIDTH 495 0
DWIDTH 22 0
BBX 21 32 0 -1
BITMAP
060000
1E0000
FE0000
1E0000
1E0000
1E0000
1E0000
1E0000
1E0000
1E0000
1E0000
1E3F80
1E7FC0
1EFFE0
1F83E0
1E01F0
1E00F0
1E00F0
1E0078
1E0078
1E0078
1E0078
1E0078
1E0070
1E0070
1E00F0
1E00E0
1E01C0
1F01C0
0F8700
03FE00
006000
ENDCHAR
STARTCHAR 0063
ENCODING 99
SWIDTH 450 0
DWIDTH 20 0
BBX 16 21 2 -1
BITMAP
07F8
1C3C
381E
701F
701F
E00E
E000
E000
E000
E000
E000
E000
F001
F001
F803
7C02
7E0E
3FFC
1FF8
0FF0
0180
ENDCHAR
STARTCHAR 0064
ENCODING 100
SWIDTH 495 0
DWIDTH 22 0
BBX 21 32 1 -1
BITMAP
0000C0
0003C0
001FC0
0003C0
0003C0
0003C0
0003C0
0003C0
0003C0
0003C0
0003C0
03FFC0
070FC0
0C07C0
1C03C0
3803C0
3803C0
7803C0
7803C0
7003C0
7003C0
F803C0
F803C0
7803C0
7803C0
7C03C0
7C03C0
3E03C0
1F07E0
1FFFF8
07F3C0
01C300
ENDCHAR
STARTCHAR 0065
ENCODING 101
SWIDTH 450 0
DWIDTH 20 0
BBX 16 21 2 -1
BITMAP
07F8
1C7C
301E
701F
600F
E00F
FFFF
FFFF
E000
E000
E000
E000
F000
F001
F801
7C03
7E06
3FFC
1FFC
0FF0
0180
ENDCHAR
STARTCHAR 0066
ENCODING 102
SWIDTH 337 0
DWIDTH 15 0
BBX 17 31 2 0
BITMAP
003C00
01FF00
030F80
070780
060380
0E0100
0E0000
0E0000
0E0000
0E0000
0E0000
FFF000
FFF000
0E0000
0E0000
0E0000
0E0000
0E0000
0E0000
0E0000
0E0000
0E0000
0E0000
0E0000
0E0000
0E0000
0E0000
0E0000
1E0000
1F0000
FFF000
ENDCHAR
STARTCHAR 0067
ENCODING 103
SWIDTH 495 0
DWIDTH 22 0
BBX 20 30 1 -10
BITMAP
03FC00
0E0FF0
1C07F0
1C0780
3C0780
3C03C0
3C03C0
3C03C0
3C0380
3C0380
1E0700
0F0700
07FC00
046000
0C0000
180000
3C0000
3FFF80
1FFFE0
0FFFF0
0807F0
100030
300010
600030
700020
F00060
7E01C0
3FFF00
1FFE00
00C000
ENDCHAR
STARTCHAR 0068
ENCODING 104
SWIDTH 495 0
DWIDTH 22 0
BBX 22 31 0 0
BITMAP
060000
1E0000
FE0000
1E0000
1E0000
0E0000
0E0000
0E0000
0E0000
0E0000
0E0000
0E1F80
0E7FC0
0EE3C0
0F81E0
0F01E0
0E01E0
0E01E0
0E01E0
0E01E0
0E01E0
0E01E0
0E01E0
0E01E0
0E01E0
0E01E0
0E01E0
0E01E0
0E01E0
1F01F0
7FCFFC
ENDCHAR
STARTCHAR 0069
ENCODING 105
SWIDTH 270 0
DWIDTH 12 0
BBX 10 31 1 0
BITMAP
0E00
1F00
1F00
0E00
0400
0000
0000
0000
0000
0000
0000
0E00
7E00
FE00
1E00
0E00
0E00
0E00
0E00
0E00
0E00
0E00
0E00
0E00
0E00
0E00
0E00
0E00
0E00
1F00
7FC0
ENDCHAR
STARTCHAR 006A
ENCODING 106
SWIDTH 270 0
DWIDTH 12 0
BBX 12 41 -3 -10
BITMAP
00E0
01F0
01F0
00E0
0040
0000
0000
0000
0000
0000
0000
00E0
03E0
07E0
01E0
00E0
00E0
00E0
00E0
00E0
00E0
00E0
00E0
00E0
00E0
00E0
00E0
00E0
00E0
00E0
00E0
00E0
00E0
00E0
00E0
00E0
00C0
E1C0
F980
FE00
3000
ENDCHAR
STARTCHAR 006B
ENCODING 107
SWIDTH 495 0
DWIDTH 22 0
BBX 22 31 0 0
BITMAP
060000
1E0000
7E0000
1E0000
0E0000
0E0000
0E0000
0E0000
0E0000
0E0000
0E0000
0E07F8
0E03C0
0E0380
0E0700
0E0C00
0E1800
0E3000
0E6000
0EE000
0FF000
0EF800
0E7C00
0E3C00
0E1E00
0E0F00
0E0F80
0E07C0
0E03E0
1F03F0
FFC7FC
ENDCHAR
STARTCHAR 006C
ENCODING 108
SWIDTH 270 0
DWIDTH 12 0
BBX 10 31 1 0
BITMAP
0600
1E00
FE00
1E00
1E00
0E00
0E00
0E00
0E00
0E00
0E00
0E00
0E00
0E00
0E00
0E00
0E00
0E00
0E00
0E00
0E00
0E00
0E00
0E00
0E00
0E00
0E00
0E00
1E00
1F00
7FC0
ENDCHAR
STARTCHAR 006D
ENCODING 109
SWIDTH 787 0
DWIDTH 35 0
BBX 33 20 1 0
BITMAP
1C3F03F000
7C7F8FF800
FCC7DC7C00
3D03F03C00
1E01E01C00
1C01C01C00
1C01C01C00
1C01C01C00
1C01C01C00
1C01C01C00
1C01C01C00
1C01C01C00
1C01C01C00
1C01C01C00
1C01C01C00
1C01C01C00
1C01C01C00
1C01C01E00
3E03E03E00
FFCFFCFF80
ENDCHAR
STARTCHAR 006E
ENCODING 110
SWIDTH 495 0
DWIDTH 22 0
BBX 22 20 0 0
BITMAP
0E1F80
7E7FC0
FEE3C0
1F81E0
0F01E0
0E01E0
0E01E0
0E01E0
0E01E0
0E01E0
0E01E0
0E01E0
0E01E0
0E01E0
0E01E0
0E01E0
0E01E0
1E01E0
1F01F0
7FCFFC
ENDCHAR
STARTCHAR 006F
ENCODING 111
SWIDTH 495 0
DWIDTH 22 0
BBX 20 21 1 -1
BITMAP
03FC00
060F00
1C0780
1C03C0
3803C0
3801E0
7801E0
7801F0
7801F0
7800F0
F800F0
7800F0
7800E0
7800E0
7C01E0
3C01C0
3E01C0
1E0380
0F8700
07FC00
006000
ENDCHAR
STARTCHAR 0070
ENCODING 112
SWIDTH 495 0
DWIDTH 22 0
BBX 21 30 0 -10
BITMAP
0E3F80
7E7FC0
FEFFE0
1F83E0
1F01F0
1E00F0
1E00F0
1E00F8
1E0078
1E0078
1E0078
1E0078
1E0070
1E0070
1E0070
1E00E0
1E00E0
1F01C0
1F8380
1EFF00
1E1800
1E0000
1E0000
1E0000
1E0000
1E0000
1E0000
1E0000
3F8000
FFC000
ENDCHAR
STARTCHAR 0071
ENCODING 113
SWIDTH 495 0
DWIDTH 22 0
BBX 21 30 1 -10
BITMAP
03FCC0
070FC0
0C07C0
1C03C0
3803C0
3803C0
7003C0
7003C0
7003C0
7003C0
F003C0
F003C0
7803C0
7803C0
7803C0
7C03C0
3E07C0
3FDFC0
1FFBC0
0FE3C0
0183C0
0003C0
0003C0
0003C0
0003C0
0003C0
0003C0
0003C0
0007F0
001FF8
ENDCHAR
STARTCHAR 0072
ENCODING 114
SWIDTH 337 0
DWIDTH 15 0
BBX 15 20 0 0
BITMAP
0E3E
7E7E
FEFE
1E8C
0F00
0E00
0E00
0E00
0E00
0E00
0E00
0E00
0E00
0E00
0E00
0E00
0E00
0F00
1F00
FFE0
ENDCHAR
STARTCHAR 0073
ENCODING 115
SWIDTH 382 0
DWIDTH 17 0
BBX 14 21 2 -1
BITMAP
1FF0
3070
6030
E030
E010
E010
F800
7C00
7F00
3FC0
0FF0
03F8
00F8
807C
803C
C03C
C018
E038
F030
FFE0
0300
ENDCHAR
STARTCHAR 0074
ENCODING 116
SWIDTH 270 0
DWIDTH 12 0
BBX 12 26 0 0
BITMAP
0200
0200
0600
0600
0E00
1E00
7FF0
FFF0
0E00
0E00
0E00
0E00
0E00
0E00
0E00
0E00
0E00
0E00
0E00
0E00
0E00
0E00
0E10
0F30
0FE0
07C0
ENDCHAR
STARTCHAR 0075
ENCODING 117
SWIDTH 495 0
DWIDTH 22 0
BBX 22 21 0 -1
BITMAP
FE0FE0
1E03E0
1E01E0
1E01E0
1E01E0
1E01E0
1E01E0
1E01E0
1E01E0
1E01E0
1E01E0
1E01E0
1E01E0
1E01E0
1E01E0
0E01E0
0F03E0
0F8DF4
0FF9F8
07F1E0
008100
ENDCHAR
STARTCHAR 0076
ENCODING 118
SWIDTH 495 0
DWIDTH 22 0
BBX 22 21 0 -1
BITMAP
FFC1FC
3F0070
1E0020
0F0060
0F0040
0700C0
0780C0
078080
03C180
03C100
01C300
01E300
01E200
00F600
00F400
007C00
007C00
003800
003800
003000
001000
ENDCHAR
STARTCHAR 0077
ENCODING 119
SWIDTH 720 0
DWIDTH 32 0
BBX 32 21 0 -1
BITMAP
FF9FF87F
3E07E01C
1E03C018
1E01C018
0E01E018
0F01E030
0F01F030
0701F020
07817060
03837860
03C27840
03C63CC0
01C43C80
01EC1D80
01E81F80
00F81F00
00F00F00
00700E00
00700600
00600600
00200400
ENDCHAR
STARTCHAR 0078
ENCODING 120
SWIDTH 495 0
DWIDTH 22 0
BBX 21 20 1 0
BITMAP
FF8FE0
3E0780
1E0700
0F0600
0F8C00
079800
03D000
03F000
01E000
00F000
00F800
01F800
033C00
063E00
041E00
0C0F00
180780
3007C0
7807E0
FC1FF8
ENDCHAR
STARTCHAR 0079
ENCODING 121
SWIDTH 495 0
DWIDTH 22 0
BBX 22 30 0 -10
BITMAP
FFC1FC
3E0070
1E0070
1E0060
0F0060
0F00C0
0780C0
0780C0
03C180
03C180
01E300
01E300
00F300
00F600
007E00
007C00
003C00
003800
001800
001800
003000
003000
002000
006000
006000
38C000
7F8000
7F8000
3E0000
080000
ENDCHAR
STARTCHAR 007A
ENCODING 122
SWIDTH 450 0
DWIDTH 20 0
BBX 18 20 1 0
BITMAP
7FFFC0
7FFFC0
600F80
600F00
401E00
403E00
007C00
007800
00F000
01F000
03E000
03C000
078000
0F0000
1F0040
1E0040
3C00C0
7800C0
F80F80
FFFF80
ENDCHAR
STARTCHAR 007B
ENCODING 123
SWIDTH 472 0
DWIDTH 21 0
BBX 12 41 6 -10
BITMAP
0030
00C0
0180
0300
0700
0600
0E00
0F00
0F00
0F00
0F00
0F00
0700
0700
0700
0700
0600
0C00
0800
3000
C000
3000
0C00
0600
0600
0700
0700
0700
0700
0F00
0F00
0F00
0F00
0E00
0E00
0600
0700
0300
0180
0060
0010
ENDCHAR
STARTCHAR 007C
ENCODING 124
SWIDTH 202 0
DWIDTH 9 0
BBX 2 41 3 -10
BITMAP
C0
C0
C0
C0
C0
C0
C0
C0
C0
C0
C0
C0
C0
C0
C0
C0
C0
C0
C0
C0
C0
C0
C0
C0
C0
C0
C0
C0
C0
C0
C0
C0
C0
C0
C0
C0
C0
C0
C0
C0
C0
ENDCHAR
STARTCHAR 007D
ENCODING 125
SWIDTH 472 0
DWIDTH 21 0
BBX 12 41 4 -10
BITMAP
C000
3000
1800
0C00
0E00
0600
0700
0700
0F00
0F00
0F00
0F00
0E00
0E00
0E00
0E00
0600
0300
0180
00C0
0030
00C0
0300
0700
0600
0E00
0E00
0E00
0E00
0F00
0F00
0F00
0F00
0700
0700
0600
0E00
0C00
1800
6000
8000
ENDCHAR
STARTCHAR 007E
ENCODING 126
SWIDTH 540 0
DWIDTH 24 0
BBX 23 6 1 9
BITMAP
0C0002
7F8004
77F004
C0FC0C
801FF8
8003F0
ENDCHAR
STARTCHAR 00A0
ENCODING 160
SWIDTH 247 0
DWIDTH 11 0
BBX 0 0 0 0
BITMAP
ENDCHAR
STARTCHAR 00A1
ENCODING 161
SWIDTH 337 0
DWIDTH 15 0
BBX 5 31 5 -10
BITMAP
70
F8
F8
F0
60
00
00
00
20
20
20
20
20
60
70
70
70
70
70
70
70
70
F0
F0
F8
F8
F8
F8
F8
F0
20
ENDCHAR
STARTCHAR 00A2
ENCODING 162
SWIDTH 495 0
DWIDTH 22 0
BBX 17 37 3 -8
BITMAP
000600
000600
000400
000C00
000C00
000800
001800
001000
007000
07F800
0C3E00
387E00
307F00
704F00
70CF00
E0C000
E08000
E18000
E10000
E30000
F30000
F20080
F60100
FE0100
7C0200
7E0600
3FFC00
1FF800
1FF000
100000
100000
300000
200000
600000
600000
400000
C00000
ENDCHAR
STARTCHAR 00A3
ENCODING 163
SWIDTH 495 0
DWIDTH 22 0
BBX 20 30 1 -1
BITMAP
003F00
006380
01C1C0
0181C0
0381E0
0380C0
078000
078000
078000
078000
078000
078000
078000
078000
7FFE00
7FFE00
078000
078000
038000
038000
038000
038000
038000
030010
1F0010
7FC030
47F860
C7FFE0
CC7FC0
783F80
ENDCHAR
STARTCHAR 00A4
ENCODING 164
SWIDTH 495 0
DWIDTH 22 0
BBX 21 21 1 4
BITMAP
C00010
E3FC30
779F60
3C03C0
3801C0
3000C0
600060
600060
400030
400030
C00030
400030
600020
600060
700060
3000C0
1801C0
3E07E0
67FE70
C0F838
000010
ENDCHAR
STARTCHAR 00A5
ENCODING 165
SWIDTH 495 0
DWIDTH 22 0
BBX 22 29 0 0
BITMAP
7F81FC
3E0070
1E0060
0F0060
0F00C0
0F00C0
078180
078180
03C300
03C300
01C200
01E600
01E600
00FC00
FFFFFC
FFFFFC
007800
007800
007800
007800
FFFFFC
007800
007800
007800
007800
007800
007800
00FC00
07FF80
ENDCHAR
STARTCHAR 00A6
ENCODING 166
SWIDTH 202 0
DWIDTH 9 0
BBX 2 41 3 -10
BITMAP
C0
C0
C0
C0
C0
C0
C0
C0
C0
C0
C0
C0
C0
C0
C0
C0
00
00
00
00
00
00
00
00
C0
C0
C0
C0
C0
C0
C0
C0
C0
C0
C0
C0
C0
C0
C0
C0
C0
ENDCHAR
STARTCHAR 00A7
ENCODING 167
SWIDTH 495 0
DWIDTH 22 0
BBX 16 39 3 -9
BITMAP
03E0
0638
0C1C
181C
181C
181C
1808
1C00
1E00
1F00
0F80
07E0
0FF0
11F8
20FC
603E
601E
600F
E007
E007
7007
7803
7C02
3E06
1F04
0F88
07F0
03F0
01F0
0078
0038
001C
181C
381C
3818
3818
1810
0C60
0380
ENDCHAR
STARTCHAR 00A8
ENCODING 168
SWIDTH 337 0
DWIDTH 15 0
BBX 13 5 1 24
BITMAP
7070
F8F0
F8F8
78F0
3060
ENDCHAR
STARTCHAR 00A9
ENCODING 169
SWIDTH 765 0
DWIDTH 34 0
BBX 31 31 1 -1
BITMAP
000FF000
007C3E00
01C00380
030000C0
06000060
0C01C030
180E7F18
10380F08
3070030C
20E00304
61C00106
41C00006
43C00002
43C00002
43C00002
C3C00002
43C00002
43C00002
43C00002
61C00006
61E00104
20E00304
30780608
183E1818
080FE010
0C000020
060000E0
03800180
00E00700
003FFC00
0003C000
ENDCHAR
STARTCHAR 00AA
ENCODING 170
SWIDTH 270 0
DWIDTH 12 0
BBX 12 13 0 17
BITMAP
1F00
61C0
61C0
61C0
01C0
07C0
19C0
71C0
E1C0
E1C0
E1C0
FFF0
78E0
ENDCHAR
STARTCHAR 00AB
ENCODING 171
SWIDTH 495 0
DWIDTH 22 0
BBX 18 20 2 0
BITMAP
018040
0300C0
030180
060380
0E0300
1C0700
3C0E00
781E00
703C00
F07C00
F07C00
783C00
781E00
3C0E00
1C0700
0E0300
060380
030180
0300C0
018040
ENDCHAR
STARTCHAR 00AC
ENCODING 172
SWIDTH 562 0
DWIDTH 25 0
BBX 23 9 1 10
BITMAP
FFFFFE
FFFFFE
000006
000006
000006
000006
000006
000006
000006
ENDCHAR
STARTCHAR 00AD
ENCODING 173
SWIDTH 337 0
DWIDTH 15 0
BBX 11 4 2 8
BITMAP
FFE0
FFE0
FFE0
FFE0
ENDCHAR
STARTCHAR 00AE
ENCODING 174
SWIDTH 765 0
DWIDTH 34 0
BBX 31 31 1 -1
BITMAP
000FF000
007C3E00
01C00380
030000C0
06000060
0C000030
19FFE018
10787808
30783C0C
20783C04
60781C06
40781C06
40783C02
40783802
4078F002
C07F8002
4079C002
4079E002
4078E002
60787006
60783804
20783C04
30781C08
18780E18
09FE0F90
0C000020
060000E0
03800180
00E00700
003FFC00
0003C000
ENDCHAR
STARTCHAR 00AF
ENCODING 175
SWIDTH 495 0
DWIDTH 22 0
BBX 23 2 0 32
BITMAP
FFFFFE
FFFFFE
ENDCHAR
STARTCHAR 00B0
ENCODING 176
SWIDTH 405 0
DWIDTH 18 0
BBX 13 13 2 17
BITMAP
0FC0
1FE0
3070
6038
C018
C008
C008
C008
C018
6018
7030
3FE0
0FC0
ENDCHAR
STARTCHAR 00B1
ENCODING 177
SWIDTH 540 0
DWIDTH 24 0
BBX 24 23 0 3
BITMAP
001800
001800
001800
001800
001800
001800
001800
001800
001800
001800
FFFFFF
FFFFFF
001800
001800
001800
001800
001800
001800
001800
001800
001800
FFFFFF
FFFFFF
ENDCHAR
STARTCHAR 00B2
ENCODING 178
SWIDTH 292 0
DWIDTH 13 0
BBX 12 16 0 14
BITMAP
0F80
3FC0
21E0
40E0
4060
0060
00E0
00C0
0180
0100
0200
0400
0810
30F0
7FF0
FFE0
ENDCHAR
STARTCHAR 00B3
ENCODING 179
SWIDTH 292 0
DWIDTH 13 0
BBX 10 16 1 14
BITMAP
1F00
7F80
4380
0180
0180
0100
0200
1F80
07C0
01C0
00C0
00C0
00C0
0180
F300
7C00
ENDCHAR
STARTCHAR 00B4
ENCODING 180
SWIDTH 337 0
DWIDTH 15 0
BBX 7 7 5 23
BITMAP
3E
3C
38
70
60
40
C0
ENDCHAR
STARTCHAR 00B5
ENCODING 181
SWIDTH 585 0
DWIDTH 26 0
BBX 21 30 3 -10
BITMAP
780780
780780
780780
780780
780780
780780
780780
780780
780780
780780
780780
780780
780780
780780
780780
780780
780F88
7C3790
7FE7F0
7FC3E0
620080
600000
600000
600000
E00000
F00000
F00000
F00000
F00000
400000
ENDCHAR
STARTCHAR 00B6
ENCODING 182
SWIDTH 450 0
DWIDTH 20 0
BBX 20 39 0 -10
BITMAP
0FFFF0
1FF080
3FF080
7FF080
FFF080
FFF080
FFF080
FFF080
FFF080
FFF080
FFF080
FFF080
7FF080
3FF080
1FF080
03F080
003080
003080
003080
003080
003080
003080
003080
003080
003080
003080
003080
003080
003080
003080
003080
003080
003080
003080
003080
003080
003080
003080
003080
ENDCHAR
STARTCHAR 00B7
ENCODING 183
SWIDTH 247 0
DWIDTH 11 0
BBX 5 5 3 12
BITMAP
70
F8
F8
F8
30
ENDCHAR
STARTCHAR 00B8
ENCODING 184
SWIDTH 337 0
DWIDTH 15 0
BBX 7 8 4 -8
BITMAP
18
10
3C
7E
0E
0E
1C
F8
ENDCHAR
STARTCHAR 00B9
ENCODING 185
SWIDTH 292 0
DWIDTH 13 0
BBX 7 16 3 14
BITMAP
18
78
B8
38
38
38
38
38
38
38
38
38
38
38
38
FE
ENDCHAR
STARTCHAR 00BA
ENCODING 186
SWIDTH 315 0
DWIDTH 14 0
BBX 12 13 1 17
BITMAP
1F80
31C0
60E0
E0F0
E070
E070
E070
E070
E070
F060
7060
38C0
1F00
ENDCHAR
STARTCHAR 00BB
ENCODING 187
SWIDTH 495 0
DWIDTH 22 0
BBX 18 20 2 0
BITMAP
802000
C03000
601800
701C00
380C00
380E00
1C0700
1E0780
0F03C0
0F83C0
0F83C0
0F03C0
1E0780
1C0700
380E00
380C00
701800
601800
C03000
802000
ENDCHAR
STARTCHAR 00BC
ENCODING 188
SWIDTH 742 0
DWIDTH 33 0
BBX 30 31 3 -1
BITMAP
18000180
78000300
B8000600
38000600
38000C00
38000800
38001800
38003000
38002000
38006000
3800C000
3800C000
38018000
38030000
38030000
FE060060
000C00E0
000C00E0
001801E0
00300360
00300660
00600C60
00C00860
00C01060
01803060
01007FFC
03007FFC
06000060
06000060
0C000060
18000060
ENDCHAR
STARTCHAR 00BD
ENCODING 189
SWIDTH 742 0
DWIDTH 33 0
BBX 29 31 3 -1
BITMAP
18000300
78000300
B8000600
38000C00
38000C00
38001800
38003000
38003000
38006000
3800C000
3800C000
38018000
38030000
38030000
38060000
FE0C0780
000C1FE0
001818F0
00103070
00302070
00600030
00600070
00C00060
018000C0
018000C0
03000180
06000300
06000400
0C000818
18003FF8
18007FF0
ENDCHAR
STARTCHAR 00BE
ENCODING 190
SWIDTH 742 0
DWIDTH 33 0
BBX 32 31 1 -1
BITMAP
1F0000C0
7F8000C0
43800180
81800100
01800300
03000600
02000400
1F800C00
07C01800
01C01800
00C03000
00C06000
00C06000
0180C000
F3018000
7C018018
00030038
00060038
00060078
000C00D8
00180198
00180318
00300218
00200418
00600C18
00C01FFF
00C01FFF
01800018
03000018
03000018
06000018
ENDCHAR
STARTCHAR 00BF
ENCODING 191
SWIDTH 450 0
DWIDTH 20 0
BBX 16 31 2 -10
BITMAP
0380
03C0
07C0
03C0
0180
0000
0000
0000
0100
0100
0100
0100
0300
0200
0600
0C00
1C00
3800
3800
7800
7000
F00E
F00F
F00F
F00F
F007
7806
7806
3C0C
1FF8
0180
ENDCHAR
STARTCHAR 00C0
ENCODING 192
SWIDTH 720 0
DWIDTH 32 0
BBX 32 39 0 0
BITMAP
000F0000
000F0000
00078000
00038000
00018000
0000C000
00004000
00004000
00000000
00018000
00018000
00038000
0003C000
0003C000
0007E000
0007E000
000DE000
000DF000
0018F000
0018F800
00187800
00307C00
00303C00
00603C00
00603E00
00C01E00
00C01F00
00C00F00
01FFFF00
01800F80
03000780
030007C0
060003C0
060003E0
060001E0
0C0001F0
1C0001F0
3E0003F8
FFC00FFF
ENDCHAR
STARTCHAR 00C1
ENCODING 193
SWIDTH 720 0
DWIDTH 32 0
BBX 32 39 0 0
BITMAP
0000F000
0001F000
0001E000
0001C000
00018000
00030000
00020000
00000000
00000000
00018000
00018000
00038000
0003C000
0003C000
0007E000
0007E000
000DE000
000DF000
0018F000
0018F800
00187800
00307C00
00303C00
00603C00
00603E00
00C01E00
00C01F00
00C00F00
01FFFF00
01800F80
03000780
030007C0
060003C0
060003E0
060001E0
0C0001F0
1C0001F0
3E0003F8
FFC00FFF
ENDCHAR
STARTCHAR 00C2
ENCODING 194
SWIDTH 720 0
DWIDTH 32 0
BBX 32 39 0 0
BITMAP
0003C000
0007E000
0007E000
000E7000
00183000
00101800
00200C00
00000000
00000000
00018000
00018000
00038000
0003C000
0003C000
0007E000
0007E000
000DE000
000DF000
0018F000
0018F800
00187800
00307C00
00303C00
00603C00
00603E00
00C01E00
00C01F00
00C00F00
01FFFF00
01800F80
03000780
030007C0
060003C0
060003E0
060001E0
0C0001F0
1C0001F0
3E0003F8
FFC00FFF
ENDCHAR
STARTCHAR 00C3
ENCODING 195
SWIDTH 720 0
DWIDTH 32 0
BBX 32 37 0 0
BITMAP
001F0200
003FC200
0067F600
0043FC00
0040F800
00000000
00000000
00018000
00018000
00038000
0003C000
0003C000
0007E000
0007E000
000DE000
000DF000
0018F000
0018F800
00187800
00307C00
00303C00
00603C00
00603E00
00C01E00
00C01F00
00C00F00
01FFFF00
01800F80
03000780
030007C0
060003C0
060003E0
060001E0
0C0001F0
1C0001F0
3E0003F8
FFC00FFF
ENDCHAR
STARTCHAR 00C4
ENCODING 196
SWIDTH 720 0
DWIDTH 32 0
BBX 32 37 0 0
BITMAP
001C3800
003C3C00
003C7C00
003C3C00
00181800
00000000
00000000
00018000
00018000
00038000
0003C000
0003C000
0007E000
0007E000
000DE000
000DF000
0018F000
0018F800
00187800
00307C00
00303C00
00603C00
00603E00
00C01E00
00C01F00
00C00F00
01FFFF00
01800F80
03000780
030007C0
060003C0
060003E0
060001E0
0C0001F0
1C0001F0
3E0003F8
FFC00FFF
ENDCHAR
STARTCHAR 00C5
ENCODING 197
SWIDTH 720 0
DWIDTH 32 0
BBX 32 37 0 0
BITMAP
0003C000
0007E000
000C3000
00083000
00083000
000C3000
000E6000
0007C000
00018000
00038000
0003C000
0003C000
0007E000
0007E000
000DE000
000DF000
0018F000
0018F800
00187800
00307C00
00303C00
00603C00
00603E00
00C01E00
00C01F00
00C00F00
01FFFF00
01800F80
03000780
030007C0
060003C0
060003E0
060001E0
0C0001F0
1C0001F0
3E0003F8
FFC00FFF
ENDCHAR
STARTCHAR 00C6
ENCODING 198
SWIDTH 900 0
DWIDTH 40 0
BBX 39 29 -1 0
BITMAP
0007FFFFF8
0000FE0038
0000DE0018
0000DE0008
00009E0008
00019E0008
00031E0000
00031E0000
00061E0000
00061E0040
000C1E0040
000C1E0040
00181E01C0
00181FFFC0
00301E03C0
00301E0040
007FFE0040
007FFE0040
00C01E0000
00C01E0000
01801E0000
03001E0000
03001E0002
06001E0002
06001E0004
0E001E000C
0C001E001C
1E003FFFF8
FFC1FFFFF8
ENDCHAR
STARTCHAR 00C7
ENCODING 199
SWIDTH 675 0
DWIDTH 30 0
BBX 26 38 2 -8
BITMAP
003FC080
00FFF980
03C01F80
07800780
0F000380
1E000180
3C000180
3C000080
7C000080
78000000
F8000000
F8000000
F8000000
F8000000
F8000000
F8000000
F8000000
F8000000
F8000000
F8000000
F8000000
78000000
7C000000
7C000040
3E000080
1F000180
0F800300
07C00600
03FC3800
00FFF000
000E0000
000C0000
001E0000
001F0000
00070000
00070000
00060000
007C0000
ENDCHAR
STARTCHAR 00C8
ENCODING 200
SWIDTH 607 0
DWIDTH 27 0
BBX 25 39 1 0
BITMAP
00F80000
00780000
00380000
001C0000
000C0000
000C0000
00060000
00020000
00000000
00000000
FFFFFE00
0F001E00
0F000600
0F000600
0F000200
0F000200
0F000000
0F000000
0F000000
0F001000
0F001000
0F001000
0F007000
0FFFF000
0F01F000
0F003000
0F001000
0F001000
0F001000
0F000000
0F000000
0F000000
0F000080
0F000100
0F000100
0F000300
0F000600
1FFFFE00
FFFFFE00
ENDCHAR
STARTCHAR 00C9
ENCODING 201
SWIDTH 607 0
DWIDTH 27 0
BBX 25 39 1 0
BITMAP
000F8000
000F0000
000E0000
000E0000
001C0000
00180000
00100000
00200000
00000000
00000000
FFFFFE00
0F001E00
0F000600
0F000600
0F000200
0F000200
0F000000
0F000000
0F000000
0F001000
0F001000
0F001000
0F007000
0FFFF000
0F01F000
0F003000
0F001000
0F001000
0F001000
0F000000
0F000000
0F000000
0F000080
0F000100
0F000100
0F000300
0F000600
1FFFFE00
FFFFFE00
ENDCHAR
STARTCHAR 00CA
ENCODING 202
SWIDTH 607 0
DWIDTH 27 0
BBX 25 39 1 0
BITMAP
003E0000
003E0000
007F0000
00678000
00C18000
0080C000
01004000
00000000
00000000
00000000
FFFFFE00
0F001E00
0F000600
0F000600
0F000200
0F000200
0F000000
0F000000
0F000000
0F001000
0F001000
0F001000
0F007000
0FFFF000
0F01F000
0F003000
0F001000
0F001000
0F001000
0F000000
0F000000
0F000000
0F000080
0F000100
0F000100
0F000300
0F000600
1FFFFE00
FFFFFE00
ENDCHAR
STARTCHAR 00CB
ENCODING 203
SWIDTH 607 0
DWIDTH 27 0
BBX 25 37 1 0
BITMAP
01C1C000
01E3E000
03E3E000
01E3C000
00C08000
00000000
00000000
00000000
FFFFFE00
0F001E00
0F000600
0F000600
0F000200
0F000200
0F000000
0F000000
0F000000
0F001000
0F001000
0F001000
0F007000
0FFFF000
0F01F000
0F003000
0F001000
0F001000
0F001000
0F000000
0F000000
0F000000
0F000080
0F000100
0F000100
0F000300
0F000600
1FFFFE00
FFFFFE00
ENDCHAR
STARTCHAR 00CC
ENCODING 204
SWIDTH 337 0
DWIDTH 15 0
BBX 13 39 1 0
BITMAP
3E00
1E00
0E00
0600
0700
0300
0100
0080
0000
0000
7FF0
0F80
0F80
0F80
0F00
0F00
0F00
0F00
0F00
0F00
0F00
0F00
0F00
0F00
0F00
0F00
0F00
0F00
0F00
0F00
0F00
0F00
0F00
0F00
0F80
0F80
0F80
1F80
FFF8
ENDCHAR
STARTCHAR 00CD
ENCODING 205
SWIDTH 337 0
DWIDTH 15 0
BBX 13 39 1 0
BITMAP
03E0
03C0
0380
0700
0600
0600
0C00
0800
0000
0000
7FF0
0F80
0F80
0F80
0F00
0F00
0F00
0F00
0F00
0F00
0F00
0F00
0F00
0F00
0F00
0F00
0F00
0F00
0F00
0F00
0F00
0F00
0F00
0F00
0F80
0F80
0F80
1F80
FFF8
ENDCHAR
STARTCHAR 00CE
ENCODING 206
SWIDTH 337 0
DWIDTH 15 0
BBX 13 39 1 0
BITMAP
0F80
0F80
1FC0
39C0
30E0
6030
4010
0000
0000
0000
7FF0
0F80
0F80
0F80
0F00
0F00
0F00
0F00
0F00
0F00
0F00
0F00
0F00
0F00
0F00
0F00
0F00
0F00
0F00
0F00
0F00
0F00
0F00
0F00
0F80
0F80
0F80
1F80
FFF8
ENDCHAR
STARTCHAR 00CF
ENCODING 207
SWIDTH 337 0
DWIDTH 15 0
BBX 13 37 1 0
BITMAP
7070
F8F0
F8F8
78F0
2060
0000
0000
0000
7FF0
0F80
0F80
0F80
0F00
0F00
0F00
0F00
0F00
0F00
0F00
0F00
0F00
0F00
0F00
0F00
0F00
0F00
0F00
0F00
0F00
0F00
0F00
0F00
0F80
0F80
0F80
1F80
FFF8
ENDCHAR
STARTCHAR 00D0
ENCODING 208
SWIDTH 720 0
DWIDTH 32 0
BBX 29 29 1 0
BITMAP
FFFFF000
1FC1FE00
0F003F00
0F000F80
0F0007C0
0F0003E0
0F0003F0
0F0001F0
0F0001F0
0F0000F8
0F0000F8
0F0000F8
0F0000F8
FFFF80F8
0F0000F8
0F0000F8
0F0000F8
0F0000F8
0F0000F8
0F0000F8
0F0001F0
0F0001F0
0F0003E0
0F0003C0
0F0007C0
0F001F80
0F003E00
1FFFF800
FFFFC000
ENDCHAR
STARTCHAR 00D1
ENCODING 209
SWIDTH 720 0
DWIDTH 32 0
BBX 31 37 0 0
BITMAP
001F0200
003FC200
0067F400
0043FC00
0040F800
00000000
00000000
00000000
FF0003FE
1F800070
0FC00060
07E00060
07E00060
07F00060
06F80060
06FC0060
067E0060
063E0060
061F0060
060F8060
0607C060
0607E060
0603F060
0601F060
0600F860
06007C60
06007E60
06003F60
06001F60
06000FE0
060007E0
060003E0
060003E0
060001E0
060000E0
0F000060
7FE00020
ENDCHAR
STARTCHAR 00D2
ENCODING 210
SWIDTH 720 0
DWIDTH 32 0
BBX 28 40 2 -1
BITMAP
007C0000
003C0000
001E0000
000E0000
00060000
00030000
00010000
00010000
00000000
003FC000
00FFF800
03C03C00
07001E00
0E000F00
1E000780
3C0003C0
7C0003E0
780003E0
780001E0
F80001F0
F80001F0
F80001F0
F80001F0
F80001F0
F80001F0
F80001F0
F80001F0
F80001F0
F80001F0
F80001F0
780001E0
7C0001E0
3C0003C0
3E0003C0
1E000780
0F000F00
07801E00
03E07800
00FFF000
000F0000
ENDCHAR
STARTCHAR 00D3
ENCODING 211
SWIDTH 720 0
DWIDTH 32 0
BBX 28 40 2 -1
BITMAP
0003C000
00078000
00078000
00070000
00060000
000C0000
00080000
00000000
00000000
003FC000
00FFF800
03C03C00
07001E00
0E000F00
1E000780
3C0003C0
7C0003E0
780003E0
780001E0
F80001F0
F80001F0
F80001F0
F80001F0
F80001F0
F80001F0
F80001F0
F80001F0
F80001F0
F80001F0
F80001F0
780001E0
7C0001E0
3C0003C0
3E0003C0
1E000780
0F000F00
07801E00
03E07800
00FFF000
000F0000
ENDCHAR
STARTCHAR 00D4
ENCODING 212
SWIDTH 720 0
DWIDTH 32 0
BBX 28 40 2 -1
BITMAP
000F0000
001F8000
001F8000
003BC000
0060C000
00406000
00803000
00000000
00000000
003FC000
00FFF800
03C03C00
07001E00
0E000F00
1E000780
3C0003C0
7C0003E0
780003E0
780001E0
F80001F0
F80001F0
F80001F0
F80001F0
F80001F0
F80001F0
F80001F0
F80001F0
F80001F0
F80001F0
F80001F0
780001E0
7C0001E0
3C0003C0
3E0003C0
1E000780
0F000F00
07801E00
03E07800
00FFF000
000F0000
ENDCHAR
STARTCHAR 00D5
ENCODING 213
SWIDTH 720 0
DWIDTH 32 0
BBX 28 38 2 -1
BITMAP
007C0800
00FF0800
019FD000
010FF000
0103E000
00000000
00000000
003FC000
00FFF800
03C03C00
07001E00
0E000F00
1E000780
3C0003C0
7C0003E0
780003E0
780001E0
F80001F0
F80001F0
F80001F0
F80001F0
F80001F0
F80001F0
F80001F0
F80001F0
F80001F0
F80001F0
F80001F0
780001E0
7C0001E0
3C0003C0
3E0003C0
1E000780
0F000F00
07801E00
03E07800
00FFF000
000F0000
ENDCHAR
STARTCHAR 00D6
ENCODING 214
SWIDTH 720 0
DWIDTH 32 0
BBX 28 38 2 -1
BITMAP
0070E000
00F0F000
00F1F000
00F0F000
00604000
00000000
00000000
003FC000
00FFF800
03C03C00
07001E00
0E000F00
1E000780
3C0003C0
7C0003E0
780003E0
780001E0
F80001F0
F80001F0
F80001F0
F80001F0
F80001F0
F80001F0
F80001F0
F80001F0
F80001F0
F80001F0
F80001F0
780001E0
7C0001E0
3C0003C0
3E0003C0
1E000780
0F000F00
07801E00
03E07800
00FFF000
000F0000
ENDCHAR
STARTCHAR 00D7
ENCODING 215
SWIDTH 562 0
DWIDTH 25 0
BBX 17 17 4 7
BITMAP
C00180
E00300
700600
380C00
1C1800
0E3000
076000
03C000
01C000
03E000
067000
0C3800
181C00
300E00
600700
C00380
800180
ENDCHAR
STARTCHAR 00D8
ENCODING 216
SWIDTH 720 0
DWIDTH 32 0
BBX 28 31 2 -1
BITMAP
003FC060
00FFF8C0
03C03D80
07001F80
0E000F00
1E000780
3C000FC0
7C001BE0
78001BE0
780031F0
F80061F0
F800C1F0
F80181F0
F80381F0
F80301F0
F80601F0
F80C01F0
F81801F0
F83801F0
F83001F0
F86001F0
78C001E0
7D8003E0
3F0003C0
3F0003C0
1E000780
0F000F00
1F801E00
33E07800
70FFE000
200F0000
ENDCHAR
STARTCHAR 00D9
ENCODING 217
SWIDTH 720 0
DWIDTH 32 0
BBX 30 40 1 -1
BITMAP
000F0000
000F8000
00078000
00038000
00018000
0000C000
00004000
00000000
00000000
00000000
FFE007FC
1F0000E0
1F0000E0
1F0000C0
1F0000C0
1F0000C0
1F0000C0
1F0000C0
1F0000C0
1F0000C0
1F0000C0
1F0000C0
1F0000C0
1F0000C0
1F0000C0
1F0000C0
0F0000C0
0F0000C0
0F0000C0
0F0000C0
0F0000C0
0F0000C0
0F0000C0
0F0000C0
07800180
07C00380
03E00700
01F83E00
007FF800
00078000
ENDCHAR
STARTCHAR 00DA
ENCODING 218
SWIDTH 720 0
DWIDTH 32 0
BBX 30 40 1 -1
BITMAP
0001E000
0001E000
0003C000
00038000
00030000
00060000
00040000
00000000
00000000
00000000
FFE007FC
1F0000E0
1F0000E0
1F0000C0
1F0000C0
1F0000C0
1F0000C0
1F0000C0
1F0000C0
1F0000C0
1F0000C0
1F0000C0
1F0000C0
1F0000C0
1F0000C0
1F0000C0
0F0000C0
0F0000C0
0F0000C0
0F0000C0
0F0000C0
0F0000C0
0F0000C0
0F0000C0
07800180
07C00380
03E00700
01F83E00
007FF800
00078000
ENDCHAR
STARTCHAR 00DB
ENCODING 219
SWIDTH 720 0
DWIDTH 32 0
BBX 30 40 1 -1
BITMAP
0003C000
0007E000
0007E000
000E7000
001C3800
00101800
00200C00
00000000
00000000
00000000
FFE007FC
1F0000E0
1F0000E0
1F0000C0
1F0000C0
1F0000C0
1F0000C0
1F0000C0
1F0000C0
1F0000C0
1F0000C0
1F0000C0
1F0000C0
1F0000C0
1F0000C0
1F0000C0
0F0000C0
0F0000C0
0F0000C0
0F0000C0
0F0000C0
0F0000C0
0F0000C0
0F0000C0
07800180
07C00380
03E00700
01F83E00
007FF800
00078000
ENDCHAR
STARTCHAR 00DC
ENCODING 220
SWIDTH 720 0
DWIDTH 32 0
BBX 30 38 1 -1
BITMAP
001C3800
003C3C00
003E7C00
003C3C00
00181800
00000000
00000000
00000000
FFE007FC
1F0000E0
1F0000E0
1F0000C0
1F0000C0
1F0000C0
1F0000C0
1F0000C0
1F0000C0
1F0000C0
1F0000C0
1F0000C0
1F0000C0
1F0000C0
1F0000C0
1F0000C0
0F0000C0
0F0000C0
0F0000C0
0F0000C0
0F0000C0
0F0000C0
0F0000C0
0F0000C0
07800180
07C00380
03E00700
01F83E00
007FF800
00078000
ENDCHAR
STARTCHAR 00DD
ENCODING 221
SWIDTH 720 0
DWIDTH 32 0
BBX 30 39 1 0
BITMAP
0000F000
0001E000
0001C000
0001C000
00038000
00030000
00020000
00040000
00000000
00000000
FFE007FC
3F8001E0
1F8001C0
0F800180
07C00380
07C00300
03E00600
01E00600
01F00C00
00F81800
00781800
007C3000
003E7000
001E6000
001FC000
000FC000
000F8000
00078000
00078000
00078000
00078000
00078000
00078000
00078000
00078000
00078000
00078000
000FC000
007FF800
ENDCHAR
STARTCHAR 00DE
ENCODING 222
SWIDTH 562 0
DWIDTH 25 0
BBX 22 29 1 0
BITMAP
FFF000
1F8000
0F0000
0F0000
0F0000
0F0000
0FFC00
0FFFC0
0F07E0
0F01F0
0F00F8
0F00F8
0F007C
0F007C
0F007C
0F007C
0F007C
0F00F8
0F00F8
0F01F0
0F0FE0
0FFF80
0F0000
0F0000
0F0000
0F0000
0F0000
1F8000
FFF000
ENDCHAR
STARTCHAR 00DF
ENCODING 223
SWIDTH 495 0
DWIDTH 22 0
BBX 20 31 1 0
BITMAP
00F800
03FE00
070700
0E0380
1E03C0
1C03C0
1C03C0
1C03C0
1C03C0
1C03C0
1C0380
1C0700
1C0E00
1C3E00
1C1F80
1C07C0
1C03E0
1C01E0
1C01E0
1C00F0
1C00F0
1C00F0
1C00F0
1C00F0
1C00F0
1C00E0
1C70E0
1CF0C0
3CF1C0
3C7380
FC3F00
ENDCHAR
STARTCHAR 00E0
ENCODING 224
SWIDTH 450 0
DWIDTH 20 0
BBX 18 30 2 0
BITMAP
0F8000
078000
038000
01C000
00C000
00C000
006000
000000
000000
000000
1FF000
387800
703C00
703C00
F01C00
F01C00
601C00
007C00
03DC00
0E1C00
1C1C00
701C00
F01C00
E01C00
E01C00
E01C00
F03C40
F8DE80
FF9F80
7E1E00
ENDCHAR
STARTCHAR 00E1
ENCODING 225
SWIDTH 450 0
DWIDTH 20 0
BBX 18 30 2 0
BITMAP
00F000
01E000
01E000
01C000
018000
030000
020000
000000
000000
000000
1FF000
387800
703C00
703C00
F01C00
F01C00
601C00
007C00
03DC00
0E1C00
1C1C00
701C00
F01C00
E01C00
E01C00
E01C00
F03C40
F8DE80
FF9F80
7E1E00
ENDCHAR
STARTCHAR 00E2
ENCODING 226
SWIDTH 450 0
DWIDTH 20 0
BBX 18 30 2 0
BITMAP
03C000
07E000
0FE000
0C7000
183800
101800
200400
000000
000000
000000
1FF000
387800
703C00
703C00
F01C00
F01C00
601C00
007C00
03DC00
0E1C00
1C1C00
701C00
F01C00
E01C00
E01C00
E01C00
F03C40
F8DE80
FF9F80
7E1E00
ENDCHAR
STARTCHAR 00E3
ENCODING 227
SWIDTH 450 0
DWIDTH 20 0
BBX 18 29 2 0
BITMAP
1F0200
3FC200
67F400
43FC00
40F800
000000
000000
000000
000000
1FF000
387800
703C00
703C00
F01C00
F01C00
601C00
007C00
03DC00
0E1C00
1C1C00
701C00
F01C00
E01C00
E01C00
E01C00
F03C40
F8DE80
FF9F80
7E1E00
ENDCHAR
STARTCHAR 00E4
ENCODING 228
SWIDTH 450 0
DWIDTH 20 0
BBX 18 29 2 0
BITMAP
1C3800
3C3C00
3C7C00
3C3C00
181800
000000
000000
000000
000000
1FF000
387800
703C00
703C00
F01C00
F01C00
601C00
007C00
03DC00
0E1C00
1C1C00
701C00
F01C00
E01C00
E01C00
E01C00
F03C40
F8DE80
FF9F80
7E1E00
ENDCHAR
STARTCHAR 00E5
ENCODING 229
SWIDTH 450 0
DWIDTH 20 0
BBX 18 31 2 0
BITMAP
03C000
07E000
0C3000
083000
081000
0C3000
0E6000
07C000
000000
000000
000000
1FF000
387800
703C00
703C00
F01C00
F01C00
601C00
007C00
03DC00
0E1C00
1C1C00
701C00
F01C00
E01C00
E01C00
E01C00
F03C40
F8DE80
FF9F80
7E1E00
ENDCHAR
STARTCHAR 00E6
ENCODING 230
SWIDTH 675 0
DWIDTH 30 0
BBX 26 21 2 -1
BITMAP
1FF1FE00
387B0F00
703E0780
F03C03C0
F03C03C0
703C03C0
003FFFC0
007FFFC0
01FC0000
073C0000
1C3C0000
783C0000
F03C0000
E03C0040
E01E0040
E01E0080
F01F8180
F86FFF00
FFC7FE00
7F83FC00
08006000
ENDCHAR
STARTCHAR 00E7
ENCODING 231
SWIDTH 450 0
DWIDTH 20 0
BBX 16 28 2 -8
BITMAP
07F8
1C3C
381E
701F
701F
E00E
E000
E000
E000
E000
E000
E000
F001
F001
F803
7C02
7E0E
3FFC
1FF8
0FF0
0180
0180
03C0
03E0
00E0
00E0
00E0
0FC0
ENDCHAR
STARTCHAR 00E8
ENCODING 232
SWIDTH 450 0
DWIDTH 20 0
BBX 16 31 2 -1
BITMAP
0780
03C0
03C0
01C0
00C0
0060
0020
0000
0000
0000
07F8
1C7C
301E
701F
600F
E00F
FFFF
FFFF
E000
E000
E000
E000
F000
F001
F801
7C03
7E06
3FFC
1FFC
0FF0
0180
ENDCHAR
STARTCHAR 00E9
ENCODING 233
SWIDTH 450 0
DWIDTH 20 0
BBX 16 31 2 -1
BITMAP
00F8
00F0
01E0
01C0
0180
0300
0200
0000
0000
0000
07F8
1C7C
301E
701F
600F
E00F
FFFF
FFFF
E000
E000
E000
E000
F000
F001
F801
7C03
7E06
3FFC
1FFC
0FF0
0180
ENDCHAR
STARTCHAR 00EA
ENCODING 234
SWIDTH 450 0
DWIDTH 20 0
BBX 16 31 2 -1
BITMAP
03E0
03F0
07F0
0638
0C18
080C
1004
0000
0000
0000
07F8
1C7C
301E
701F
600F
E00F
FFFF
FFFF
E000
E000
E000
E000
F000
F001
F801
7C03
7E06
3FFC
1FFC
0FF0
0180
ENDCHAR
STARTCHAR 00EB
ENCODING 235
SWIDTH 450 0
DWIDTH 20 0
BBX 16 30 2 -1
BITMAP
0C1C
1E3E
1E3E
1E3E
0C1C
0000
0000
0000
0000
07F8
1C7C
301E
701F
600F
E00F
FFFF
FFFF
E000
E000
E000
E000
F000
F001
F801
7C03
7E06
3FFC
1FFC
0FF0
0180
ENDCHAR
STARTCHAR 00EC
ENCODING 236
SWIDTH 270 0
DWIDTH 12 0
BBX 10 30 1 0
BITMAP
7C00
3C00
1C00
0E00
0600
0600
0300
0000
0000
0000
0E00
7E00
FE00
1E00
0E00
0E00
0E00
0E00
0E00
0E00
0E00
0E00
0E00
0E00
0E00
0E00
0E00
0E00
1F00
7FC0
ENDCHAR
STARTCHAR 00ED
ENCODING 237
SWIDTH 270 0
DWIDTH 12 0
BBX 10 30 1 0
BITMAP
0780
0F00
0F00
0E00
0C00
1800
1000
0000
0000
0000
0E00
7E00
FE00
1E00
0E00
0E00
0E00
0E00
0E00
0E00
0E00
0E00
0E00
0E00
0E00
0E00
0E00
0E00
1F00
7FC0
ENDCHAR
STARTCHAR 00EE
ENCODING 238
SWIDTH 270 0
DWIDTH 12 0
BBX 11 30 1 0
BITMAP
1F00
3F00
3F80
7380
61C0
C060
8020
0000
0000
0000
0E00
7E00
FE00
1E00
0E00
0E00
0E00
0E00
0E00
0E00
0E00
0E00
0E00
0E00
0E00
0E00
0E00
0E00
1F00
7FC0
ENDCHAR
STARTCHAR 00EF
ENCODING 239
SWIDTH 270 0
DWIDTH 12 0
BBX 12 29 0 0
BITMAP
7060
F8F0
F8F0
F0F0
6060
0000
0000
0000
0000
0700
3F00
7F00
0F00
0700
0700
0700
0700
0700
0700
0700
0700
0700
0700
0700
0700
0700
0700
0F80
3FE0
ENDCHAR
STARTCHAR 00F0
ENCODING 240
SWIDTH 495 0
DWIDTH 22 0
BBX 20 32 1 -1
BITMAP
080100
060300
038E00
01F800
00E000
03F000
073800
1C1C00
001E00
000F00
000F80
03FF80
061FC0
1C07C0
1803C0
3803E0
3801E0
7801E0
7801E0
7801F0
7801F0
F800F0
7800E0
7800E0
7800E0
7C01E0
3C01C0
3E01C0
1E0380
0F8700
07FC00
006000
ENDCHAR
STARTCHAR 00F1
ENCODING 241
SWIDTH 495 0
DWIDTH 22 0
BBX 22 29 0 0
BITMAP
03E040
07F840
04FEC0
083F80
081F00
000000
000000
000000
000000
0E1F80
7E7FC0
FEE3C0
1F81E0
0F01E0
0E01E0
0E01E0
0E01E0
0E01E0
0E01E0
0E01E0
0E01E0
0E01E0
0E01E0
0E01E0
0E01E0
0E01E0
1E01E0
1F01F0
7FCFFC
ENDCHAR
STARTCHAR 00F2
ENCODING 242
SWIDTH 495 0
DWIDTH 22 0
BBX 20 31 1 -1
BITMAP
03E000
01E000
00E000
007000
007000
003000
001000
000000
000000
000000
03FC00
060F00
1C0780
1C03C0
3803C0
3801E0
7801E0
7801F0
7801F0
7800F0
F800F0
7800F0
7800E0
7800E0
7C01E0
3C01C0
3E01C0
1E0380
0F8700
07FC00
006000
ENDCHAR
STARTCHAR 00F3
ENCODING 243
SWIDTH 495 0
DWIDTH 22 0
BBX 20 31 1 -1
BITMAP
003C00
007800
007000
007000
00E000
00C000
008000
000000
000000
000000
03FC00
060F00
1C0780
1C03C0
3803C0
3801E0
7801E0
7801F0
7801F0
7800F0
F800F0
7800F0
7800E0
7800E0
7C01E0
3C01C0
3E01C0
1E0380
0F8700
07FC00
006000
ENDCHAR
STARTCHAR 00F4
ENCODING 244
SWIDTH 495 0
DWIDTH 22 0
BBX 20 31 1 -1
BITMAP
00F800
01F800
01FC00
039C00
030E00
060300
040100
000000
000000
000000
03FC00
060F00
1C0780
1C03C0
3803C0
3801E0
7801E0
7801F0
7801F0
7800F0
F800F0
7800F0
7800E0
7800E0
7C01E0
3C01C0
3E01C0
1E0380
0F8700
07FC00
006000
ENDCHAR
STARTCHAR 00F5
ENCODING 245
SWIDTH 495 0
DWIDTH 22 0
BBX 20 30 1 -1
BITMAP
07C080
0FF080
09FD80
107F00
103E00
000000
000000
000000
000000
03FC00
060F00
1C0780
1C03C0
3803C0
3801E0
7801E0
7801F0
7801F0
7800F0
F800F0
7800F0
7800E0
7800E0
7C01E0
3C01C0
3E01C0
1E0380
0F8700
07FC00
006000
ENDCHAR
STARTCHAR 00F6
ENCODING 246
SWIDTH 495 0
DWIDTH 22 0
BBX 20 30 1 -1
BITMAP
070600
0F0F00
0F8F00
0F0F00
060600
000000
000000
000000
000000
03FC00
060F00
1C0780
1C03C0
3803C0
3801E0
7801E0
7801F0
7801F0
7800F0
F800F0
7800F0
7800E0
7800E0
7C01E0
3C01C0
3E01C0
1E0380
0F8700
07FC00
006000
ENDCHAR
STARTCHAR 00F7
ENCODING 247
SWIDTH 540 0
DWIDTH 24 0
BBX 24 17 0 6
BITMAP
001C00
003C00
001C00
000000
000000
000000
000000
FFFFFF
FFFFFF
000000
000000
000000
000000
001800
003C00
003C00
001800
ENDCHAR
STARTCHAR 00F8
ENCODING 248
SWIDTH 495 0
DWIDTH 22 0
BBX 20 22 1 -1
BITMAP
000010
03FC30
060F60
0C07C0
1C03C0
3803C0
3807E0
780DE0
7819F0
7811F0
7830F0
7860F0
78C0F0
7980E0
7B00E0
7E01E0
3C01C0
3E01C0
1E0380
2F8700
63FE00
C06000
ENDCHAR
STARTCHAR 00F9
ENCODING 249
SWIDTH 495 0
DWIDTH 22 0
BBX 22 31 0 -1
BITMAP
01F000
00F000
007000
003800
001800
001800
000C00
000000
000000
000000
FE0FE0
1E03E0
1E01E0
1E01E0
1E01E0
1E01E0
1E01E0
1E01E0
1E01E0
1E01E0
1E01E0
1E01E0
1E01E0
1E01E0
1E01E0
0E01E0
0F03E0
0F8DF4
0FF9F8
07F1E0
008100
ENDCHAR
STARTCHAR 00FA
ENCODING 250
SWIDTH 495 0
DWIDTH 22 0
BBX 22 31 0 -1
BITMAP
003E00
003C00
007800
007000
006000
004000
008000
000000
000000
000000
FE0FE0
1E03E0
1E01E0
1E01E0
1E01E0
1E01E0
1E01E0
1E01E0
1E01E0
1E01E0
1E01E0
1E01E0
1E01E0
1E01E0
1E01E0
0E01E0
0F03E0
0F8DF4
0FF9F8
07F1E0
008100
ENDCHAR
STARTCHAR 00FB
ENCODING 251
SWIDTH 495 0
DWIDTH 22 0
BBX 22 31 0 -1
BITMAP
007800
00FC00
00FE00
01CE00
018700
020300
040080
000000
000000
000000
FE0FE0
1E03E0
1E01E0
1E01E0
1E01E0
1E01E0
1E01E0
1E01E0
1E01E0
1E01E0
1E01E0
1E01E0
1E01E0
1E01E0
1E01E0
0E01E0
0F03E0
0F8DF4
0FF9F8
07F1E0
008100
ENDCHAR
STARTCHAR 00FC
ENCODING 252
SWIDTH 495 0
DWIDTH 22 0
BBX 22 30 0 -1
BITMAP
038300
078780
07C780
078780
030300
000000
000000
000000
000000
FE0FE0
1E03E0
1E01E0
1E01E0
1E01E0
1E01E0
1E01E0
1E01E0
1E01E0
1E01E0
1E01E0
1E01E0
1E01E0
1E01E0
1E01E0
0E01E0
0F03E0
0F8DF4
0FF9F8
07F1E0
008100
ENDCHAR
STARTCHAR 00FD
ENCODING 253
SWIDTH 495 0
DWIDTH 22 0
BBX 22 40 0 -10
BITMAP
001E00
001C00
003C00
003800
003000
006000
004000
000000
000000
000000
FFC1FC
3E0070
1E0070
1E0060
0F0060
0F00C0
0780C0
0780C0
03C180
03C180
01E300
01E300
00F300
00F600
007E00
007C00
003C00
003800
001800
001800
003000
003000
002000
006000
006000
38C000
7F8000
7F8000
3E0000
080000
ENDCHAR
STARTCHAR 00FE
ENCODING 254
SWIDTH 495 0
DWIDTH 22 0
BBX 21 40 0 -9
BITMAP
060000
1E0000
FE0000
1E0000
1E0000
1E0000
1E0000
1E0000
1E0000
1E0000
1E0000
1E3F80
1E7FC0
1EFFE0
1F83E0
1F01F0
1E00F0
1E00F0
1E00F8
1E0078
1E0078
1E0078
1E0078
1E0070
1E0070
1E0070
1E00E0
1E00E0
1F01C0
1F8380
1EFF00
1E1800
1E0000
1E0000
1E0000
1E0000
1E0000
1E0000
1E0000
FFC000
ENDCHAR
STARTCHAR 00FF
ENCODING 255
SWIDTH 495 0
DWIDTH 22 0
BBX 22 39 0 -10
BITMAP
01C380
03C3C0
03C7C0
03C3C0
018180
000000
000000
000000
000000
FFC1FC
3E0070
1E0070
1E0060
0F0060
0F00C0
0780C0
0780C0
03C180
03C180
01E300
01E300
00F300
00F600
007E00
007C00
003C00
003800
001800
001800
003000
003000
002000
006000
006000
38C000
7F8000
7F8000
3E0000
080000
ENDCHAR
STARTCHAR 0100
ENCODING 256
SWIDTH 720 0
DWIDTH 32 0
BBX 32 35 0 0
BITMAP
007FFE00
007FFE00
00000000
00000000
00000000
00018000
00018000
00038000
0003C000
0003C000
0007E000
0007E000
000DE000
000DF000
0018F000
0018F800
00187800
00307C00
00303C00
00603C00
00603E00
00C01E00
00C01F00
00C00F00
01FFFF00
01800F80
03000780
030007C0
060003C0
060003E0
060001E0
0C0001F0
1C0001F0
3E0003F8
FFC00FFF
ENDCHAR
STARTCHAR 0101
ENCODING 257
SWIDTH 450 0
DWIDTH 20 0
BBX 18 27 2 0
BITMAP
7FFE00
7FFE00
7FFE00
000000
000000
000000
000000
1FF000
387800
703C00
703C00
F01C00
F01C00
601C00
007C00
03DC00
0E1C00
1C1C00
701C00
F01C00
E01C00
E01C00
E01C00
F03C40
F8DE80
FF9F80
7E1E00
ENDCHAR
STARTCHAR 0102
ENCODING 258
SWIDTH 720 0
DWIDTH 32 0
BBX 32 38 0 0
BITMAP
00200400
00300C00
003E3800
001FF800
000FF000
0003C000
00000000
00000000
00018000
00018000
00038000
0003C000
0003C000
0007E000
0007E000
000DE000
000DF000
0018F000
0018F800
00187800
00307C00
00303C00
00603C00
00603E00
00C01E00
00C01F00
00C00F00
01FFFF00
01800F80
03000780
030007C0
060003C0
060003E0
060001E0
0C0001F0
1C0001F0
3E0003F8
FFC00FFF
ENDCHAR
STARTCHAR 0103
ENCODING 259
SWIDTH 450 0
DWIDTH 20 0
BBX 18 29 2 0
BITMAP
200400
300C00
1FF800
1FF000
0FE000
010000
000000
000000
000000
1FF000
387800
703C00
703C00
F01C00
F01C00
601C00
007C00
03DC00
0E1C00
1C1C00
701C00
F01C00
E01C00
E01C00
E01C00
F03C40
F8DE80
FF9F80
7E1E00
ENDCHAR
STARTCHAR 0104
ENCODING 260
SWIDTH 720 0
DWIDTH 32 0
BBX 32 38 0 -8
BITMAP
00018000
00018000
00038000
0003C000
0003C000
0007E000
0007E000
000DE000
000DF000
0018F000
0018F800
00187800
00307C00
00303C00
00603C00
00603E00
00C01E00
00C01F00
00C00F00
01FFFF00
01800F80
03000780
030007C0
060003C0
060003E0
060001E0
0C0001F0
1C0001F0
3E0003F8
FFC00FFF
00000180
00000180
00000380
00000380
000003C0
000001E0
000001FF
0000007C
ENDCHAR
STARTCHAR 0105
ENCODING 261
SWIDTH 450 0
DWIDTH 20 0
BBX 20 28 2 -8
BITMAP
1FF000
387800
703C00
703C00
F01C00
F01C00
601C00
007C00
03DC00
0E1C00
1C1C00
701C00
F01C00
E01C00
E01C00
E01C00
F03C40
F8DE80
FF9F80
7E1E00
001800
001800
001800
003800
003C00
001E00
001FF0
0007C0
ENDCHAR
STARTCHAR 0106
ENCODING 262
SWIDTH 675 0
DWIDTH 30 0
BBX 26 40 2 -1
BITMAP
0003E000
0003C000
00038000
00070000
00060000
00060000
000C0000
00080000
00000000
003FC080
00FFF980
03C01F80
07800780
0F000380
1E000180
3C000180
3C000080
7C000080
78000000
F8000000
F8000000
F8000000
F8000000
F8000000
F8000000
F8000000
F8000000
F8000000
F8000000
F8000000
78000000
7C000000
7C000040
3E000080
1F000180
0F800300
07C00600
03FC3800
00FFF000
000E0000
ENDCHAR
STARTCHAR 0107
ENCODING 263
SWIDTH 450 0
DWIDTH 20 0
BBX 16 31 2 -1
BITMAP
00F8
00F0
00E0
01C0
0180
0180
0100
0000
0000
0000
07F8
1C3C
381E
701F
701F
E00E
E000
E000
E000
E000
E000
E000
F001
F001
F803
7C02
7E0E
3FFC
1FF8
0FF0
0180
ENDCHAR
STARTCHAR 0108
ENCODING 264
SWIDTH 675 0
DWIDTH 30 0
BBX 26 41 2 -1
BITMAP
001F0000
001F0000
003F8000
003B8000
0061C000
0040C000
00806000
01001000
00000000
00000000
003FC080
00FFF980
03C01F80
07800780
0F000380
1E000180
3C000180
3C000080
7C000080
78000000
F8000000
F8000000
F8000000
F8000000
F8000000
F8000000
F8000000
F8000000
F8000000
F8000000
F8000000
78000000
7C000000
7C000040
3E000080
1F000180
0F800300
07C00600
03FC3800
00FFF000
000E0000
ENDCHAR
STARTCHAR 0109
ENCODING 265
SWIDTH 450 0
DWIDTH 20 0
BBX 16 31 2 -1
BITMAP
03C0
07E0
0FE0
0C70
1830
1018
200C
0000
0000
0000
07F8
1C3C
381E
701F
701F
E00E
E000
E000
E000
E000
E000
E000
F001
F001
F803
7C02
7E0E
3FFC
1FF8
0FF0
0180
ENDCHAR
STARTCHAR 010A
ENCODING 266
SWIDTH 675 0
DWIDTH 30 0
BBX 26 38 2 -1
BITMAP
000E0000
001F0000
001F0000
000F0000
00040000
00000000
00000000
003FC080
00FFF980
03C01F80
07800780
0F000380
1E000180
3C000180
3C000080
7C000080
78000000
F8000000
F8000000
F8000000
F8000000
F8000000
F8000000
F8000000
F8000000
F8000000
F8000000
F8000000
78000000
7C000000
7C000040
3E000080
1F000180
0F800300
07C00600
03FC3800
00FFF000
000E0000
ENDCHAR
STARTCHAR 010B
ENCODING 267
SWIDTH 450 0
DWIDTH 20 0
BBX 16 30 2 -1
BITMAP
0380
03C0
03C0
03C0
0180
0000
0000
0000
0000
07F8
1C3C
381E
701F
701F
E00E
E000
E000
E000
E000
E000
E000
F001
F001
F803
7C02
7E0E
3FFC
1FF8
0FF0
0180
ENDCHAR
STARTCHAR 010C
ENCODING 268
SWIDTH 675 0
DWIDTH 30 0
BBX 26 40 2 -1
BITMAP
00401000
00603000
00306000
0038E000
001FC000
001F8000
000F8000
00000000
00000000
003FC080
00FFF980
03C01F80
07800780
0F000380
1E000180
3C000180
3C000080
7C000080
78000000
F8000000
F8000000
F8000000
F8000000
F8000000
F8000000
F8000000
F8000000
F8000000
F8000000
F8000000
78000000
7C000000
7C000040
3E000080
1F000180
0F800300
07C00600
03FC3800
00FFF000
000E0000
ENDCHAR
STARTCHAR 010D
ENCODING 269
SWIDTH 450 0
DWIDTH 20 0
BBX 16 31 2 -1
BITMAP
1004
180C
0E18
0738
07F0
03F0
03E0
0000
0000
0000
07F8
1C3C
381E
701F
701F
E00E
E000
E000
E000
E000
E000
E000
F001
F001
F803
7C02
7E0E
3FFC
1FF8
0FF0
0180
ENDCHAR
STARTCHAR 010E
ENCODING 270
SWIDTH 720 0
DWIDTH 32 0
BBX 29 39 1 0
BITMAP
00801000
00C02000
00606000
0038C000
003F8000
001F8000
001F0000
00000000
00000000
00000000
FFFFF000
1FC1FE00
0F003F00
0F000F80
0F0007C0
0F0003E0
0F0003F0
0F0001F0
0F0001F0
0F0000F8
0F0000F8
0F0000F8
0F0000F8
0F0000F8
0F0000F8
0F0000F8
0F0000F8
0F0000F8
0F0000F8
0F0000F8
0F0001F0
0F0001F0
0F0003E0
0F0003C0
0F0007C0
0F001F80
0F003E00
1FFFF800
FFFFC000
ENDCHAR
STARTCHAR 010F
ENCODING 271
SWIDTH 652 0
DWIDTH 29 0
BBX 27 32 1 -1
BITMAP
0000C380
0003C7C0
001FC7E0
0003C7E0
0003C3E0
0003C060
0003C060
0003C060
0003C0C0
0003C180
0003C300
03FFC000
070FC000
0C07C000
1C03C000
3803C000
3803C000
7803C000
7803C000
7003C000
7003C000
F803C000
F803C000
7803C000
7803C000
7C03C000
7C03C000
3E03C000
1F07E000
1FFFF800
07F3C000
01C30000
ENDCHAR
STARTCHAR 0110
ENCODING 272
SWIDTH 720 0
DWIDTH 32 0
BBX 29 29 1 0
BITMAP
FFFFF000
1FC1FE00
0F003F00
0F000F80
0F0007C0
0F0003E0
0F0003F0
0F0001F0
0F0001F0
0F0000F8
0F0000F8
0F0000F8
0F0000F8
FFFF80F8
0F0000F8
0F0000F8
0F0000F8
0F0000F8
0F0000F8
0F0000F8
0F0001F0
0F0001F0
0F0003E0
0F0003C0
0F0007C0
0F001F80
0F003E00
1FFFF800
FFFFC000
ENDCHAR
STARTCHAR 0111
ENCODING 273
SWIDTH 495 0
DWIDTH 22 0
BBX 21 32 1 -1
BITMAP
000080
000780
001F80
000780
000380
000380
01FFF8
01FFF8
000380
000380
000380
07FB80
0E1F80
1C0F80
380780
380780
700380
700380
F00380
F00380
F00380
F00380
F00380
F00380
F00380
F80380
780380
7C03C0
3F0FC0
1FFBF0
0FF380
018200
ENDCHAR
STARTCHAR 0112
ENCODING 274
SWIDTH 607 0
DWIDTH 27 0
BBX 25 35 1 0
BITMAP
03FFF000
03FFF000
00000000
00000000
00000000
00000000
FFFFFE00
0F001E00
0F000600
0F000600
0F000200
0F000200
0F000000
0F000000
0F000000
0F001000
0F001000
0F001000
0F007000
0FFFF000
0F01F000
0F003000
0F001000
0F001000
0F001000
0F000000
0F000000
0F000000
0F000080
0F000100
0F000100
0F000300
0F000600
1FFFFE00
FFFFFE00
ENDCHAR
STARTCHAR 0113
ENCODING 275
SWIDTH 450 0
DWIDTH 20 0
BBX 16 28 2 -1
BITMAP
7FFE
7FFE
7FFE
0000
0000
0000
0000
07F8
1C7C
301E
701F
600F
E00F
FFFF
FFFF
E000
E000
E000
E000
F000
F001
F801
7C03
7E06
3FFC
1FFC
0FF0
0180
ENDCHAR
STARTCHAR 0114
ENCODING 276
SWIDTH 607 0
DWIDTH 27 0
BBX 25 38 1 0
BITMAP
03002000
0180C000
01FFC000
00FF8000
007F0000
00080000
00000000
00000000
00000000
FFFFFE00
0F001E00
0F000600
0F000600
0F000200
0F000200
0F000000
0F000000
0F000000
0F001000
0F001000
0F001000
0F007000
0FFFF000
0F01F000
0F003000
0F001000
0F001000
0F001000
0F000000
0F000000
0F000000
0F000080
0F000100
0F000100
0F000300
0F000600
1FFFFE00
FFFFFE00
ENDCHAR
STARTCHAR 0115
ENCODING 277
SWIDTH 450 0
DWIDTH 20 0
BBX 16 30 2 -1
BITMAP
2004
300C
1FF8
1FF8
0FF0
0180
0000
0000
0000
07F8
1C7C
301E
701F
600F
E00F
FFFF
FFFF
E000
E000
E000
E000
F000
F001
F801
7C03
7E06
3FFC
1FFC
0FF0
0180
ENDCHAR
STARTCHAR 0116
ENCODING 278
SWIDTH 607 0
DWIDTH 27 0
BBX 25 37 1 0
BITMAP
001C0000
003E0000
003E0000
001E0000
00080000
00000000
00000000
00000000
FFFFFE00
0F001E00
0F000600
0F000600
0F000200
0F000200
0F000000
0F000000
0F000000
0F001000
0F001000
0F001000
0F007000
0FFFF000
0F01F000
0F003000
0F001000
0F001000
0F001000
0F000000
0F000000
0F000000
0F000080
0F000100
0F000100
0F000300
0F000600
1FFFFE00
FFFFFE00
ENDCHAR
STARTCHAR 0117
ENCODING 279
SWIDTH 450 0
DWIDTH 20 0
BBX 16 30 2 -1
BITMAP
0380
03C0
03C0
03C0
0180
0000
0000
0000
0000
07F8
1C7C
301E
701F
600F
E00F
FFFF
FFFF
E000
E000
E000
E000
F000
F001
F801
7C03
7E06
3FFC
1FFC
0FF0
0180
ENDCHAR
STARTCHAR 0118
ENCODING 280
SWIDTH 607 0
DWIDTH 27 0
BBX 25 37 1 -8
BITMAP
FFFFFE00
0F001E00
0F000600
0F000600
0F000200
0F000200
0F000000
0F000000
0F000000
0F001000
0F001000
0F001000
0F007000
0FFFF000
0F01F000
0F003000
0F001000
0F001000
0F001000
0F000000
0F000000
0F000000
0F000080
0F000100
0F000100
0F000300
0F000600
1FFFFE00
FFFFFE00
00008000
00018000
00018000
0001C000
0001C000
0001F000
0000FF00
00007C00
ENDCHAR
STARTCHAR 0119
ENCODING 281
SWIDTH 450 0
DWIDTH 20 0
BBX 18 28 2 -8
BITMAP
07F800
1C7C00
301E00
701F00
600F00
E00F00
FFFF00
FFFF00
E00000
E00000
E00000
E00000
F00000
F00100
F80100
7C0300
7E0600
3FFC00
1FFC00
0FF000
01A000
006000
006000
006000
007000
007800
003FC0
001F00
ENDCHAR
STARTCHAR 011A
ENCODING 282
SWIDTH 607 0
DWIDTH 27 0
BBX 25 39 1 0
BITMAP
01000000
0180C000
00C18000
00E38000
007F0000
007F0000
003E0000
00000000
00000000
00000000
FFFFFE00
0F001E00
0F000600
0F000600
0F000200
0F000200
0F000000
0F000000
0F000000
0F001000
0F001000
0F001000
0F007000
0FFFF000
0F01F000
0F003000
0F001000
0F001000
0F001000
0F000000
0F000000
0F000000
0F000080
0F000100
0F000100
0F000300
0F000600
1FFFFE00
FFFFFE00
ENDCHAR
STARTCHAR 011B
ENCODING 283
SWIDTH 450 0
DWIDTH 20 0
BBX 16 31 2 -1
BITMAP
1004
180C
0C18
0F38
07F0
03F0
03E0
0000
0000
0000
07F8
1C7C
301E
701F
600F
E00F
FFFF
FFFF
E000
E000
E000
E000
F000
F001
F801
7C03
7E06
3FFC
1FFC
0FF0
0180
ENDCHAR
STARTCHAR 011C
ENCODING 284
SWIDTH 720 0
DWIDTH 32 0
BBX 29 41 2 -1
BITMAP
00078000
000F8000
000FC000
001DC000
0038E000
00307000
00401000
00000800
00000000
00000000
001FE080
00FEFC80
03E00F80
078003C0
0F0001C0
1E0000C0
1E0000C0
3C000040
7C000040
78000000
F8000000
F8000000
F8000000
F8000000
F8003FF8
F80007E0
F80003C0
F80003C0
F80003C0
F80003C0
F80003C0
7C0003C0
7C0003C0
3E0003C0
3E0003C0
1F0003C0
0F8003C0
07C003C0
01F00F80
007FFE00
0003E000
ENDCHAR
STARTCHAR 011D
ENCODING 285
SWIDTH 495 0
DWIDTH 22 0
BBX 20 40 1 -10
BITMAP
00F000
01F800
01FC00
039C00
020E00
040600
080100
000000
000000
000000
03FC00
0E0FF0
1C07F0
1C0780
3C0780
3C03C0
3C03C0
3C03C0
3C0380
3C0380
1E0700
0F0700
07FC00
046000
0C0000
180000
3C0000
3FFF80
1FFFE0
0FFFF0
0807F0
100030
300010
600030
700020
F00060
7E01C0
3FFF00
1FFE00
00C000
ENDCHAR
STARTCHAR 011E
ENCODING 286
SWIDTH 720 0
DWIDTH 32 0
BBX 29 39 2 -1
BITMAP
00400400
00200800
003C3800
001FF000
000FF000
0007C000
00000000
00000000
001FE080
00FEFC80
03E00F80
078003C0
0F0001C0
1E0000C0
1E0000C0
3C000040
7C000040
78000000
F8000000
F8000000
F8000000
F8000000
F8003FF8
F80007E0
F80003C0
F80003C0
F80003C0
F80003C0
F80003C0
7C0003C0
7C0003C0
3E0003C0
3E0003C0
1F0003C0
0F8003C0
07C003C0
01F00F80
007FFE00
0003E000
ENDCHAR
STARTCHAR 011F
ENCODING 287
SWIDTH 495 0
DWIDTH 22 0
BBX 20 39 1 -10
BITMAP
0C0100
060300
07FF00
03FE00
01FC00
002000
000000
000000
000000
03FC00
0E0FF0
1C07F0
1C0780
3C0780
3C03C0
3C03C0
3C03C0
3C0380
3C0380
1E0700
0F0700
07FC00
046000
0C0000
180000
3C0000
3FFF80
1FFFE0
0FFFF0
0807F0
100030
300010
600030
700020
F00060
7E01C0
3FFF00
1FFE00
00C000
ENDCHAR
STARTCHAR 0120
ENCODING 288
SWIDTH 720 0
DWIDTH 32 0
BBX 29 38 2 -1
BITMAP
00070000
000F8000
000F8000
000F0000
00020000
00000000
00000000
001FE080
00FEFC80
03E00F80
078003C0
0F0001C0
1E0000C0
1E0000C0
3C000040
7C000040
78000000
F8000000
F8000000
F8000000
F8000000
F8003FF8
F80007E0
F80003C0
F80003C0
F80003C0
F80003C0
F80003C0
7C0003C0
7C0003C0
3E0003C0
3E0003C0
1F0003C0
0F8003C0
07C003C0
01F00F80
007FFE00
0003E000
ENDCHAR
STARTCHAR 0121
ENCODING 289
SWIDTH 495 0
DWIDTH 22 0
BBX 20 39 1 -10
BITMAP
007000
00F000
00F000
00F000
006000
000000
000000
000000
000000
03FC00
0E0FF0
1C07F0
1C0780
3C0780
3C03C0
3C03C0
3C03C0
3C0380
3C0380
1E0700
0F0700
07FC00
046000
0C0000
180000
3C0000
3FFF80
1FFFE0
0FFFF0
0807F0
100030
300010
600030
700020
F00060
7E01C0
3FFF00
1FFE00
00C000
ENDCHAR
STARTCHAR 0122
ENCODING 290
SWIDTH 720 0
DWIDTH 32 0
BBX 29 38 2 -8
BITMAP
001FE080
00FEFC80
03E00F80
078003C0
0F0001C0
1E0000C0
1E0000C0
3C000040
7C000040
78000000
F8000000
F8000000
F8000000
F8000000
F8003FF8
F80007E0
F80003C0
F80003C0
F80003C0
F80003C0
F80003C0
7C0003C0
7C0003C0
3E0003C0
3E0003C0
1F0003C0
0F8003C0
07C003C0
01F00F80
007FFE00
0003E000
00060000
00078000
00078000
00038000
00038000
00038000
001F0000
ENDCHAR
STARTCHAR 0123
ENCODING 291
SWIDTH 495 0
DWIDTH 22 0
BBX 20 42 1 -10
BITMAP
007000
00C000
008000
008000
01F000
00F800
00F000
006000
000000
000000
000000
000000
03FC00
0E0FF0
1C07F0
1C0780
3C0780
3C03C0
3C03C0
3C03C0
3C0380
3C0380
1E0700
0F0700
07FC00
046000
0C0000
180000
3C0000
3FFF80
1FFFE0
0FFFF0
0807F0
100030
300010
600030
700020
F00060
7E01C0
3FFF00
1FFE00
00C000
ENDCHAR
STARTCHAR 0124
ENCODING 292
SWIDTH 720 0
DWIDTH 32 0
BBX 30 40 1 0
BITMAP
00078000
000FC000
000FC000
001DE000
0018E000
00303000
00201800
00400800
00000000
00000000
00000000
FFF03FFC
1F8007C0
0F0003C0
0F0003C0
0F0003C0
0F0003C0
0F0003C0
0F0003C0
0F0003C0
0F0003C0
0F0003C0
0F0003C0
0F0003C0
0FFFFFC0
0FFFFFC0
0F0003C0
0F0003C0
0F0003C0
0F0003C0
0F0003C0
0F0003C0
0F0003C0
0F0003C0
0F0003C0
0F0003C0
0F0003C0
0F0003C0
1F8007E0
FFF03FFC
ENDCHAR
STARTCHAR 0125
ENCODING 293
SWIDTH 495 0
DWIDTH 22 0
BBX 22 40 0 0
BITMAP
007800
007C00
00FC00
01DE00
018E00
030300
020180
040080
000000
060000
1E0000
FE0000
1E0000
1E0000
0E0000
0E0000
0E0000
0E0000
0E0000
0E0000
0E1F80
0E7FC0
0EE3C0
0F81E0
0F01E0
0E01E0
0E01E0
0E01E0
0E01E0
0E01E0
0E01E0
0E01E0
0E01E0
0E01E0
0E01E0
0E01E0
0E01E0
0E01E0
1F01F0
7FCFFC
ENDCHAR
STARTCHAR 0126
ENCODING 294
SWIDTH 720 0
DWIDTH 32 0
BBX 30 29 1 0
BITMAP
FFF03FFC
1F8007C0
0F0003C0
0F0003C0
FFFFFFFC
FFFFFFFC
0F0003C0
0F0003C0
0F0003C0
0F0003C0
0F0003C0
0F0003C0
0F0003C0
0FFFFFC0
0FFFFFC0
0F0003C0
0F0003C0
0F0003C0
0F0003C0
0F0003C0
0F0003C0
0F0003C0
0F0003C0
0F0003C0
0F0003C0
0F0003C0
0F0003C0
1F8007E0
FFF03FFC
ENDCHAR
STARTCHAR 0127
ENCODING 295
SWIDTH 495 0
DWIDTH 22 0
BBX 22 31 0 0
BITMAP
060000
1E0000
FE0000
1E0000
1E0000
0E0000
FFFC00
FFFC00
0E0000
0E0000
0E0000
0E1F80
0E7FC0
0EE3C0
0F81E0
0F01E0
0E01E0
0E01E0
0E01E0
0E01E0
0E01E0
0E01E0
0E01E0
0E01E0
0E01E0
0E01E0
0E01E0
0E01E0
1E01E0
1F01F0
7FCFFC
ENDCHAR
STARTCHAR 0128
ENCODING 296
SWIDTH 337 0
DWIDTH 15 0
BBX 14 38 0 0
BITMAP
1E00
3F04
7FC4
47FC
81F8
8060
0000
0000
0000
3FF8
07C0
07C0
07C0
0780
0780
0780
0780
0780
0780
0780
0780
0780
0780
0780
0780
0780
0780
0780
0780
0780
0780
0780
0780
07C0
07C0
07C0
0FC0
7FFC
ENDCHAR
STARTCHAR 0129
ENCODING 297
SWIDTH 270 0
DWIDTH 12 0
BBX 14 29 -1 0
BITMAP
3E04
7F84
4FEC
83F8
81F0
0000
0000
0000
0000
0380
1F80
1F80
0780
0380
0380
0380
0380
0380
0380
0380
0380
0380
0380
0380
0380
0380
0380
07C0
1FF0
ENDCHAR
STARTCHAR 012A
ENCODING 298
SWIDTH 337 0
DWIDTH 15 0
BBX 14 35 0 0
BITMAP
FFFC
FFFC
0000
0000
0000
0000
3FF8
07C0
07C0
07C0
0780
0780
0780
0780
0780
0780
0780
0780
0780
0780
0780
0780
0780
0780
0780
0780
0780
0780
0780
0780
07C0
07C0
07C0
0FC0
7FFC
ENDCHAR
STARTCHAR 012B
ENCODING 299
SWIDTH 270 0
DWIDTH 12 0
BBX 14 27 -1 0
BITMAP
FFFC
FFFC
FFFC
0000
0000
0000
0000
0380
1F80
1F80
0780
0380
0380
0380
0380
0380
0380
0380
0380
0380
0380
0380
0380
0380
0380
07C0
1FF0
ENDCHAR
STARTCHAR 012C
ENCODING 300
SWIDTH 337 0
DWIDTH 15 0
BBX 13 38 1 0
BITMAP
8010
6030
7FF0
3FE0
1FC0
0600
0000
0000
0000
7FF0
0F80
0F80
0F80
0F00
0F00
0F00
0F00
0F00
0F00
0F00
0F00
0F00
0F00
0F00
0F00
0F00
0F00
0F00
0F00
0F00
0F00
0F00
0F00
0F80
0F80
0F80
1F80
FFF8
ENDCHAR
STARTCHAR 012D
ENCODING 301
SWIDTH 270 0
DWIDTH 12 0
BBX 12 29 0 0
BITMAP
8010
C030
7FF0
3FE0
1FC0
0600
0000
0000
0000
0700
3F00
3F00
0F00
0700
0700
0700
0700
0700
0700
0700
0700
0700
0700
0700
0700
0700
0700
0F80
3FE0
ENDCHAR
STARTCHAR 012E
ENCODING 302
SWIDTH 337 0
DWIDTH 15 0
BBX 13 37 1 -8
BITMAP
7FF0
0F80
0F80
0F80
0F00
0F00
0F00
0F00
0F00
0F00
0F00
0F00
0F00
0F00
0F00
0F00
0F00
0F00
0F00
0F00
0F00
0F00
0F00
0F00
0F80
0F80
0F80
1F80
FFF8
0400
0C00
0C00
0C00
0E00
0F00
07F8
03E0
ENDCHAR
STARTCHAR 012F
ENCODING 303
SWIDTH 270 0
DWIDTH 12 0
BBX 13 39 1 -8
BITMAP
0E00
1F00
1F00
0E00
0400
0000
0000
0000
0000
0000
0000
0E00
7E00
FE00
1E00
0E00
0E00
0E00
0E00
0E00
0E00
0E00
0E00
0E00
0E00
0E00
0E00
0E00
0E00
1F00
7FC0
0C00
0800
1800
1C00
1C00
1F00
0FF8
03C0
ENDCHAR
STARTCHAR 0130
ENCODING 304
SWIDTH 337 0
DWIDTH 15 0
BBX 13 37 1 0
BITMAP
0700
0F80
0F80
0F00
0600
0000
0000
0000
7FF0
0F80
0F80
0F80
0F00
0F00
0F00
0F00
0F00
0F00
0F00
0F00
0F00
0F00
0F00
0F00
0F00
0F00
0F00
0F00
0F00
0F00
0F00
0F00
0F80
0F80
0F80
1F80
FFF8
ENDCHAR
STARTCHAR 0131
ENCODING 305
SWIDTH 270 0
DWIDTH 12 0
BBX 10 20 1 0
BITMAP
0E00
7E00
FE00
1E00
0E00
0E00
0E00
0E00
0E00
0E00
0E00
0E00
0E00
0E00
0E00
0E00
0E00
0E00
1F00
7FC0
ENDCHAR
STARTCHAR 0132
ENCODING 306
SWIDTH 697 0
DWIDTH 31 0
BBX 30 30 1 -1
BITMAP
7FF03FFC
0F8007E0
0F8003C0
0F8003C0
0F0003C0
0F0003C0
0F0003C0
0F0003C0
0F0003C0
0F0003C0
0F0003C0
0F0003C0
0F0003C0
0F0003C0
0F0003C0
0F0003C0
0F0003C0
0F0003C0
0F0003C0
0F0003C0
0F0003C0
0F0003C0
0F0003C0
0F0003C0
0F81C380
0F83C380
0F83E300
1F83E700
FFF9FC00
00007000
ENDCHAR
STARTCHAR 0133
ENCODING 307
SWIDTH 562 0
DWIDTH 25 0
BBX 20 41 1 -10
BITMAP
0E0060
1F00F0
1F00F0
0E00F0
040040
000000
000000
000000
000000
000000
000000
0E00F0
7E03F0
FE05F0
1E00F0
0E00F0
0E00F0
0E00F0
0E00F0
0E00F0
0E00F0
0E00F0
0E00F0
0E00F0
0E00F0
0E00F0
0E00F0
0E00F0
0E00F0
1F00F0
7FC0F0
0000F0
0000F0
0000E0
0000E0
0000E0
0000E0
00F0C0
00F980
00FF00
001800
ENDCHAR
STARTCHAR 0134
ENCODING 308
SWIDTH 382 0
DWIDTH 17 0
BBX 16 41 1 -1
BITMAP
01F0
01F0
03F8
03B8
061C
040C
0806
0001
0000
0000
0000
0FFF
01F0
00F0
00F0
00F0
00F0
00F0
00F0
00F0
00F0
00F0
00F0
00F0
00F0
00F0
00F0
00F0
00F0
00F0
00F0
00F0
00F0
00F0
00E0
60E0
F0E0
F8C0
F980
7F00
1800
ENDCHAR
STARTCHAR 0135
ENCODING 309
SWIDTH 270 0
DWIDTH 12 0
BBX 15 40 -3 -10
BITMAP
01E0
03F0
03F8
0738
061C
080C
1002
0000
0000
0000
00E0
03E0
07E0
01E0
00E0
00E0
00E0
00E0
00E0
00E0
00E0
00E0
00E0
00E0
00E0
00E0
00E0
00E0
00E0
00E0
00E0
00E0
00E0
00E0
00E0
00C0
F1C0
F980
FF00
3000
ENDCHAR
STARTCHAR 0136
ENCODING 310
SWIDTH 720 0
DWIDTH 32 0
BBX 31 37 1 -8
BITMAP
FFF07FE0
1F801F00
0F001E00
0F001800
0F003000
0F006000
0F00C000
0F018000
0F030000
0F060000
0F0C0000
0F180000
0F300000
0FF80000
0FFC0000
0F7E0000
0F3F0000
0F1F8000
0F0FC000
0F07E000
0F03F000
0F01F800
0F00FC00
0F007E00
0F003F00
0F001F80
0F000FE0
1F800FF8
FFF07FFE
00000000
00070000
0007C000
0003C000
0001C000
0001C000
0001C000
000F8000
ENDCHAR
STARTCHAR 0137
ENCODING 311
SWIDTH 495 0
DWIDTH 22 0
BBX 22 39 0 -8
BITMAP
060000
1E0000
7E0000
1E0000
0E0000
0E0000
0E0000
0E0000
0E0000
0E0000
0E0000
0E07F8
0E03C0
0E0380
0E0700
0E0C00
0E1800
0E3000
0E6000
0EE000
0FF000
0EF800
0E7C00
0E3C00
0E1E00
0E0F00
0E0F80
0E07C0
0E03E0
1F03F0
FFC7FC
000000
007000
007C00
003C00
001C00
001C00
001C00
00F800
ENDCHAR
STARTCHAR 0138
ENCODING 312
SWIDTH 495 0
DWIDTH 22 0
BBX 22 20 0 0
BITMAP
FFE7F8
1F03C0
1E0380
0E0700
0E0C00
0E1800
0E3000
0E6000
0EE000
0FF000
0EF800
0E7C00
0E3C00
0E1E00
0E0F00
0E0F80
0E07C0
0E03E0
1F03F0
FFC7FC
ENDCHAR
STARTCHAR 0139
ENCODING 313
SWIDTH 607 0
DWIDTH 27 0
BBX 25 39 1 0
BITMAP
003E0000
003C0000
00380000
00300000
00700000
00600000
00400000
00800000
00000000
00000000
FFF80000
0F800000
0F000000
0F000000
0F000000
0F000000
0F000000
0F000000
0F000000
0F000000
0F000000
0F000000
0F000000
0F000000
0F000000
0F000000
0F000000
0F000000
0F000000
0F000000
0F000000
0F000080
0F000080
0F000100
0F000100
0F000300
0F800E00
1FFFFE00
FFFFFE00
ENDCHAR
STARTCHAR 013A
ENCODING 314
SWIDTH 270 0
DWIDTH 12 0
BBX 10 39 1 0
BITMAP
07C0
0780
0700
0E00
0C00
0800
1800
1000
0600
1E00
FE00
1E00
1E00
0E00
0E00
0E00
0E00
0E00
0E00
0E00
0E00
0E00
0E00
0E00
0E00
0E00
0E00
0E00
0E00
0E00
0E00
0E00
0E00
0E00
0E00
0E00
1E00
1F00
7FC0
ENDCHAR
STARTCHAR 013B
ENCODING 315
SWIDTH 607 0
DWIDTH 27 0
BBX 25 37 1 -8
BITMAP
FFF80000
0F800000
0F000000
0F000000
0F000000
0F000000
0F000000
0F000000
0F000000
0F000000
0F000000
0F000000
0F000000
0F000000
0F000000
0F000000
0F000000
0F000000
0F000000
0F000000
0F000000
0F000080
0F000080
0F000100
0F000100
0F000300
0F800E00
1FFFFE00
FFFFFE00
00000000
001C0000
001E0000
001F0000
00070000
00070000
000E0000
007C0000
ENDCHAR
STARTCHAR 013C
ENCODING 316
SWIDTH 270 0
DWIDTH 12 0
BBX 10 39 1 -8
BITMAP
0600
1E00
FE00
1E00
1E00
0E00
0E00
0E00
0E00
0E00
0E00
0E00
0E00
0E00
0E00
0E00
0E00
0E00
0E00
0E00
0E00
0E00
0E00
0E00
0E00
0E00
0E00
0E00
1E00
1F00
7FC0
0000
1C00
1F00
0F00
0780
0700
0700
3E00
ENDCHAR
STARTCHAR 013D
ENCODING 317
SWIDTH 607 0
DWIDTH 27 0
BBX 25 30 1 0
BITMAP
00003800
FFF87C00
0F807E00
0F007E00
0F003600
0F000600
0F000600
0F000400
0F000C00
0F001800
0F006000
0F000000
0F000000
0F000000
0F000000
0F000000
0F000000
0F000000
0F000000
0F000000
0F000000
0F000000
0F000080
0F000080
0F000100
0F000100
0F000300
0F800E00
1FFFFE00
FFFFFE00
ENDCHAR
STARTCHAR 013E
ENCODING 318
SWIDTH 405 0
DWIDTH 18 0
BBX 17 31 1 0
BITMAP
061C00
1E3F00
FE3F00
1E3F80
1E1F80
0E0180
0E0100
0E0300
0E0200
0E0C00
0E1800
0E0000
0E0000
0E0000
0E0000
0E0000
0E0000
0E0000
0E0000
0E0000
0E0000
0E0000
0E0000
0E0000
0E0000
0E0000
0E0000
0E0000
1E0000
1F0000
7FC000
ENDCHAR
STARTCHAR 013F
ENCODING 319
SWIDTH 607 0
DWIDTH 27 0
BBX 25 29 1 0
BITMAP
FFF80000
0F800000
0F000000
0F000000
0F000000
0F000000
0F000000
0F000000
0F000000
0F000000
0F000000
0F00C000
0F01E000
0F01E000
0F01E000
0F01C000
0F000000
0F000000
0F000000
0F000000
0F000000
0F000080
0F000080
0F000100
0F000100
0F000300
0F800E00
1FFFFE00
FFFFFE00
ENDCHAR
STARTCHAR 0140
ENCODING 320
SWIDTH 337 0
DWIDTH 15 0
BBX 15 31 1 0
BITMAP
0600
1E00
FE00
1E00
1E00
0E00
0E00
0E00
0E00
0E00
0E00
0E00
0E00
0E00
0E3C
0E3E
0E3C
0E1C
0E00
0E00
0E00
0E00
0E00
0E00
0E00
0E00
0E00
0E00
1E00
1F00
7FC0
ENDCHAR
STARTCHAR 0141
ENCODING 321
SWIDTH 607 0
DWIDTH 27 0
BBX 26 29 0 0
BITMAP
7FF80000
07C00000
07800000
07800000
07800000
07800000
07800000
07800000
07840000
078C0000
07B80000
07F00000
07E00000
07800000
07800000
0F800000
1F800000
3F800000
67800000
C7800000
87800000
07800040
07800040
07800080
07800180
07800380
07C00700
0FFFFF00
7FFFFF00
ENDCHAR
STARTCHAR 0142
ENCODING 322
SWIDTH 270 0
DWIDTH 12 0
BBX 11 31 1 0
BITMAP
0200
1E00
7E00
1E00
1E00
0E00
0E00
0E00
0E00
0E00
0E00
0E60
0EC0
0F80
0F00
0E00
1E00
3E00
6E00
CE00
8E00
0E00
0E00
0E00
0E00
0E00
0E00
0E00
0E00
1F00
FFC0
ENDCHAR
STARTCHAR 0143
ENCODING 323
SWIDTH 720 0
DWIDTH 32 0
BBX 31 39 0 0
BITMAP
0001F000
0001E000
0001C000
00038000
00030000
00030000
00060000
00040000
00000000
00000000
FF0003FE
1F800070
0FC00060
07E00060
07E00060
07F00060
06F80060
06FC0060
067E0060
063E0060
061F0060
060F8060
0607C060
0607E060
0603F060
0601F060
0600F860
06007C60
06007E60
06003F60
06001F60
06000FE0
060007E0
060003E0
060003E0
060001E0
060000E0
0F000060
7FE00020
ENDCHAR
STARTCHAR 0144
ENCODING 324
SWIDTH 495 0
DWIDTH 22 0
BBX 22 30 0 0
BITMAP
003E00
003C00
003800
007000
006000
006000
00C000
000000
000000
000000
0E1F80
7E7FC0
FEE3C0
1F81E0
0F01E0
0E01E0
0E01E0
0E01E0
0E01E0
0E01E0
0E01E0
0E01E0
0E01E0
0E01E0
0E01E0
0E01E0
0E01E0
1E01E0
1F01F0
7FCFFC
ENDCHAR
STARTCHAR 0145
ENCODING 325
SWIDTH 720 0
DWIDTH 32 0
BBX 31 37 0 -8
BITMAP
FF0003FE
1F800070
0FC00060
07E00060
07E00060
07F00060
06F80060
06FC0060
067E0060
063E0060
061F0060
060F8060
0607C060
0607E060
0603F060
0601F060
0600F860
06007C60
06007E60
06003F60
06001F60
06000FE0
060007E0
060003E0
060003E0
060001E0
060000E0
0F000060
7FE00020
00000000
00038000
0003E000
0001E000
0000E000
0000E000
0000E000
0007C000
ENDCHAR
STARTCHAR 0146
ENCODING 326
SWIDTH 495 0
DWIDTH 22 0
BBX 22 28 0 -8
BITMAP
0E1F80
7E7FC0
FEE3C0
1F81E0
0F01E0
0E01E0
0E01E0
0E01E0
0E01E0
0E01E0
0E01E0
0E01E0
0E01E0
0E01E0
0E01E0
0E01E0
0E01E0
1E01E0
1F01F0
7FCFFC
000000
007000
007C00
003C00
001C00
001C00
001C00
00F800
ENDCHAR
STARTCHAR 0147
ENCODING 327
SWIDTH 720 0
DWIDTH 32 0
BBX 31 39 0 0
BITMAP
00200400
00180C00
001C1800
000E3000
00077000
0007E000
0003E000
00000000
00000000
00000000
FF0003FE
1F800070
0FC00060
07E00060
07E00060
07F00060
06F80060
06FC0060
067E0060
063E0060
061F0060
060F8060
0607C060
0607E060
0603F060
0601F060
0600F860
06007C60
06007E60
06003F60
06001F60
06000FE0
060007E0
060003E0
060003E0
060001E0
060000E0
0F000060
7FE00020
ENDCHAR
STARTCHAR 0148
ENCODING 328
SWIDTH 495 0
DWIDTH 22 0
BBX 22 30 0 0
BITMAP
040100
060300
030600
01CE00
01FC00
00FC00
00F800
000000
000000
000000
0E1F80
7E7FC0
FEE3C0
1F81E0
0F01E0
0E01E0
0E01E0
0E01E0
0E01E0
0E01E0
0E01E0
0E01E0
0E01E0
0E01E0
0E01E0
0E01E0
0E01E0
1E01E0
1F01F0
7FCFFC
ENDCHAR
STARTCHAR 0149
ENCODING 329
SWIDTH 607 0
DWIDTH 27 0
BBX 27 30 0 0
BITMAP
78000000
FC000000
FC000000
FE000000
6E000000
06000000
04000000
0C000000
18000000
30000000
4071F800
03F3FC00
05F63E00
00FC1E00
00F00F00
00F00F00
00F00F00
00F00F00
00F00F00
00F00F00
00F00F00
00F00F00
00F00F00
00F00F00
00F00F00
00F00F00
00F00F00
00F00F00
00F00F00
07FE7FE0
ENDCHAR
STARTCHAR 014A
ENCODING 330
SWIDTH 697 0
DWIDTH 31 0
BBX 28 31 1 -1
BITMAP
FF03F800
1F0FFE00
0F1C1F00
0F300F80
0F2007C0
0F4003C0
0FC003E0
0F8001E0
0F0001F0
0F0001F0
0F0001F0
0F0001F0
0F0001F0
0F0000F0
0F0000F0
0F0000F0
0F0000F0
0F0000F0
0F0000F0
0F0000F0
0F0000F0
0F0001E0
0F0001E0
0F0001E0
0F0181C0
0F03C1C0
0F03C180
0F03C300
1F83E600
FFF1FC00
00007000
ENDCHAR
STARTCHAR 014B
ENCODING 331
SWIDTH 495 0
DWIDTH 22 0
BBX 19 30 0 -10
BITMAP
0E1F80
7E7FC0
FEE3C0
1F81E0
1F01E0
0E01E0
0E01E0
0E01E0
0E01E0
0E01E0
0E01E0
0E01E0
0E01E0
0E01E0
0E01E0
0E01E0
0E01E0
1E01E0
1F01E0
7FC1E0
0001E0
0001E0
0001E0
0001E0
0001C0
0001C0
00E180
01F300
00FE00
003000
ENDCHAR
STARTCHAR 014C
ENCODING 332
SWIDTH 720 0
DWIDTH 32 0
BBX 28 36 2 -1
BITMAP
01FFF800
01FFF800
00000000
00000000
00000000
003FC000
00FFF800
03C03C00
07001E00
0E000F00
1E000780
3C0003C0
7C0003E0
780003E0
780001E0
F80001F0
F80001F0
F80001F0
F80001F0
F80001F0
F80001F0
F80001F0
F80001F0
F80001F0
F80001F0
F80001F0
780001E0
7C0001E0
3C0003C0
3E0003C0
1E000780
0F000F00
07801E00
03E07800
00FFF000
000F0000
ENDCHAR
STARTCHAR 014D
ENCODING 333
SWIDTH 495 0
DWIDTH 22 0
BBX 20 28 1 -1
BITMAP
1FFF80
1FFF80
1FFF80
000000
000000
000000
000000
03FC00
060F00
1C0780
1C03C0
3803C0
3801E0
7801E0
7801F0
7801F0
7800F0
F800F0
7800F0
7800E0
7800E0
7C01E0
3C01C0
3E01C0
1E0380
0F8700
07FC00
006000
ENDCHAR
STARTCHAR 014E
ENCODING 334
SWIDTH 720 0
DWIDTH 32 0
BBX 28 39 2 -1
BITMAP
00801000
00C03000
007FE000
007FE000
003FC000
00060000
00000000
00000000
003FC000
00FFF800
03C03C00
07001E00
0E000F00
1E000780
3C0003C0
7C0003E0
780003E0
780001E0
F80001F0
F80001F0
F80001F0
F80001F0
F80001F0
F80001F0
F80001F0
F80001F0
F80001F0
F80001F0
F80001F0
780001E0
7C0001E0
3C0003C0
3E0003C0
1E000780
0F000F00
07801E00
03E07800
00FFF000
000F0000
ENDCHAR
STARTCHAR 014F
ENCODING 335
SWIDTH 495 0
DWIDTH 22 0
BBX 20 30 1 -1
BITMAP
080100
0C0600
0FFE00
07FC00
03F800
004000
000000
000000
000000
03FC00
060F00
1C0780
1C03C0
3803C0
3801E0
7801E0
7801F0
7801F0
7800F0
F800F0
7800F0
7800E0
7800E0
7C01E0
3C01C0
3E01C0
1E0380
0F8700
07FC00
006000
ENDCHAR
STARTCHAR 0150
ENCODING 336
SWIDTH 720 0
DWIDTH 32 0
BBX 28 40 2 -1
BITMAP
001C7800
003C7800
00387000
00386000
00306000
0020C000
00608000
00408000
00000000
003FC000
00FFF800
03C03C00
07001E00
0E000F00
1E000780
3C0003C0
7C0003E0
780003E0
780001E0
F80001F0
F80001F0
F80001F0
F80001F0
F80001F0
F80001F0
F80001F0
F80001F0
F80001F0
F80001F0
F80001F0
780001E0
7C0001E0
3C0003C0
3E0003C0
1E000780
0F000F00
07801E00
03E07800
00FFF000
000F0000
ENDCHAR
STARTCHAR 0151
ENCODING 337
SWIDTH 495 0
DWIDTH 22 0
BBX 20 31 1 -1
BITMAP
03C780
03C700
038700
030600
030600
020C00
040800
000000
000000
000000
03FC00
060F00
1C0780
1C03C0
3803C0
3801E0
7801E0
7801F0
7801F0
7800F0
F800F0
7800F0
7800E0
7800E0
7C01E0
3C01C0
3E01C0
1E0380
0F8700
07FC00
006000
ENDCHAR
STARTCHAR 0152
ENCODING 338
SWIDTH 900 0
DWIDTH 40 0
BBX 36 30 2 0
BITMAP
000FE00000
01FFFFFFC0
03C0FC01C0
0F007C00C0
1F003C0040
1E003C0040
3C003C0040
7C003C0000
7C003C0000
78003C0000
F8003C0200
F8003C0200
F8003C0200
F8003C0E00
F8003FFE00
F8003C1E00
F8003C0200
F8003C0200
F8003C0200
F8003C0200
F8003C0000
78003C0000
7C003C0000
3C003C0010
3E003C0030
1E003C0020
0F007C0060
07807C00E0
03F1FFFFC0
00FFFFFFC0
ENDCHAR
STARTCHAR 0153
ENCODING 339
SWIDTH 720 0
DWIDTH 32 0
BBX 30 21 1 -1
BITMAP
03FC1FC0
0E1E31F0
1C0F60F0
3807C078
3807C078
7803C07C
7803FFFC
7803FFFC
7803C000
F803C000
F803C000
F803C000
7803C000
7803E008
7803E008
7C03F018
3C03FC30
1E077FF0
0F0E7FE0
07FC3FC0
00E00600
ENDCHAR
STARTCHAR 0154
ENCODING 340
SWIDTH 675 0
DWIDTH 30 0
BBX 29 39 1 0
BITMAP
000F0000
001E0000
001C0000
001C0000
00380000
00300000
00200000
00400000
00000000
00000000
FFFFC000
1F87F000
0F00F800
0F007C00
0F007C00
0F003E00
0F003E00
0F003E00
0F003E00
0F003C00
0F007C00
0F00F800
0F01F000
0F07E000
0FFF0000
0F1F0000
0F0F8000
0F07C000
0F03C000
0F03E000
0F01F000
0F00F000
0F00F800
0F007C00
0F003E00
0F001E00
0F001F80
1F800FC0
FFF007F8
ENDCHAR
STARTCHAR 0155
ENCODING 341
SWIDTH 337 0
DWIDTH 15 0
BBX 15 30 0 0
BITMAP
01F0
01E0
01C0
0380
0300
0300
0200
0000
0000
0000
0E3E
7E7E
FEFE
1E8C
0F00
0E00
0E00
0E00
0E00
0E00
0E00
0E00
0E00
0E00
0E00
0E00
0E00
0F00
1F00
FFE0
ENDCHAR
STARTCHAR 0156
ENCODING 342
SWIDTH 675 0
DWIDTH 30 0
BBX 29 37 1 -8
BITMAP
FFFFC000
1F87F000
0F00F800
0F007C00
0F007C00
0F003E00
0F003E00
0F003E00
0F003E00
0F003C00
0F007C00
0F00F800
0F01F000
0F07E000
0FFF0000
0F1F0000
0F0F8000
0F07C000
0F03C000
0F03E000
0F01F000
0F00F000
0F00F800
0F007C00
0F003E00
0F001E00
0F001F80
1F800FC0
FFF007F8
00000000
000E0000
000F8000
00078000
00038000
00038000
00038000
001F0000
ENDCHAR
STARTCHAR 0157
ENCODING 343
SWIDTH 337 0
DWIDTH 15 0
BBX 15 28 0 -8
BITMAP
0E3E
7E7E
FEFE
1E8C
0F00
0E00
0E00
0E00
0E00
0E00
0E00
0E00
0E00
0E00
0E00
0E00
0E00
0F00
1F00
FFE0
0000
0E00
0F80
0FC0
01C0
01C0
0380
1F00
ENDCHAR
STARTCHAR 0158
ENCODING 344
SWIDTH 675 0
DWIDTH 30 0
BBX 29 39 1 0
BITMAP
02004000
01008000
01C18000
00E30000
00770000
007E0000
003E0000
00000000
00000000
00000000
FFFFC000
1F87F000
0F00F800
0F007C00
0F007C00
0F003E00
0F003E00
0F003E00
0F003E00
0F003C00
0F007C00
0F00F800
0F01F000
0F07E000
0FFF0000
0F1F0000
0F0F8000
0F07C000
0F03C000
0F03E000
0F01F000
0F00F000
0F00F800
0F007C00
0F003E00
0F001E00
0F001F80
1F800FC0
FFF007F8
ENDCHAR
STARTCHAR 0159
ENCODING 345
SWIDTH 337 0
DWIDTH 15 0
BBX 15 30 0 0
BITMAP
2008
3018
1C30
0E70
0FE0
07E0
07C0
0000
0000
0000
0E3E
7E7E
FEFE
1E8C
0F00
0E00
0E00
0E00
0E00
0E00
0E00
0E00
0E00
0E00
0E00
0E00
0E00
0F00
1F00
FFE0
ENDCHAR
STARTCHAR 015A
ENCODING 346
SWIDTH 562 0
DWIDTH 25 0
BBX 19 40 3 -1
BITMAP
007800
00F000
00E000
00E000
01C000
018000
010000
020000
000000
07F080
1FFF80
380F80
700380
F00380
E00180
E00080
F00080
F00080
F80080
FC0000
7F0000
3FC000
1FF000
0FF800
03FE00
01FF00
007F80
001FC0
000FE0
0003E0
8001E0
8001E0
C001E0
C001E0
E001E0
E001C0
F80380
FE0F00
8FFE00
80F000
ENDCHAR
STARTCHAR 015B
ENCODING 347
SWIDTH 382 0
DWIDTH 17 0
BBX 14 31 2 -1
BITMAP
01E0
03C0
0380
0380
0700
0600
0400
0000
0000
0000
1FF0
3070
6030
E030
E010
E010
F800
7C00
7F00
3FC0
0FF0
03F8
00F8
807C
803C
C03C
C018
E038
F030
FFE0
0300
ENDCHAR
STARTCHAR 015C
ENCODING 348
SWIDTH 562 0
DWIDTH 25 0
BBX 19 41 3 -1
BITMAP
01E000
01F000
03F800
037800
061C00
0C0C00
080600
100000
000000
000000
07F080
1FFF80
380F80
700380
F00380
E00180
E00080
F00080
F00080
F80080
FC0000
7F0000
3FC000
1FF000
0FF800
03FE00
01FF00
007F80
001FC0
000FE0
0003E0
8001E0
8001E0
C001E0
C001E0
E001E0
E001C0
F80380
FE0F00
8FFE00
80F000
ENDCHAR
STARTCHAR 015D
ENCODING 349
SWIDTH 382 0
DWIDTH 17 0
BBX 14 31 2 -1
BITMAP
0F80
0FC0
1FC0
19E0
3060
6030
4010
0000
0000
0000
1FF0
3070
6030
E030
E010
E010
F800
7C00
7F00
3FC0
0FF0
03F8
00F8
807C
803C
C03C
C018
E038
F030
FFE0
0300
ENDCHAR
STARTCHAR 015E
ENCODING 350
SWIDTH 562 0
DWIDTH 25 0
BBX 19 38 3 -8
BITMAP
07F080
1FFF80
380F80
700380
F00380
E00180
E00080
F00080
F00080
F80080
FC0000
7F0000
3FC000
1FF000
0FF800
03FE00
01FF00
007F80
001FC0
000FE0
0003E0
8001E0
8001E0
C001E0
C001E0
E001E0
E001C0
F80380
FE0F00
8FFE00
80F000
00C000
01E000
01F000
007000
007000
00E000
07C000
ENDCHAR
STARTCHAR 015F
ENCODING 351
SWIDTH 382 0
DWIDTH 17 0
BBX 14 28 2 -8
BITMAP
1FF0
3070
6030
E030
E010
E010
F800
7C00
7F00
3FC0
0FF0
03F8
00F8
807C
803C
C03C
C018
E038
F030
FFE0
0300
0200
0780
0FC0
03C0
01C0
0380
1F00
ENDCHAR
STARTCHAR 0160
ENCODING 352
SWIDTH 562 0
DWIDTH 25 0
BBX 19 40 3 -1
BITMAP
100200
0C0600
0E0C00
071800
03B800
03F000
01F000
000000
000000
07F080
1FFF80
380F80
700380
F00380
E00180
E00080
F00080
F00080
F80080
FC0000
7F0000
3FC000
1FF000
0FF800
03FE00
01FF00
007F80
001FC0
000FE0
0003E0
8001E0
8001E0
C001E0
C001E0
E001E0
E001C0
F80380
FE0F00
8FFE00
80F000
ENDCHAR
STARTCHAR 0161
ENCODING 353
SWIDTH 382 0
DWIDTH 17 0
BBX 14 31 2 -1
BITMAP
4010
6030
3060
1CE0
1FC0
0FC0
0F80
0000
0000
0000
1FF0
3070
6030
E030
E010
E010
F800
7C00
7F00
3FC0
0FF0
03F8
00F8
807C
803C
C03C
C018
E038
F030
FFE0
0300
ENDCHAR
STARTCHAR 0162
ENCODING 354
SWIDTH 607 0
DWIDTH 27 0
BBX 25 39 1 -10
BITMAP
7FFFFF80
7C1E0F80
601E0380
C01E0180
C01E0080
801E0080
001E0000
001E0000
001E0000
001E0000
001E0000
001E0000
001E0000
001E0000
001E0000
001E0000
001E0000
001E0000
001E0000
001E0000
001E0000
001E0000
001E0000
001E0000
001E0000
003E0000
003E0000
003F0000
03FFE000
00000000
00000000
001C0000
003E0000
003E0000
001A0000
00020000
00060000
000C0000
00380000
ENDCHAR
STARTCHAR 0163
ENCODING 355
SWIDTH 270 0
DWIDTH 12 0
BBX 12 36 0 -10
BITMAP
0200
0200
0600
0600
0E00
1E00
7FF0
FFF0
0E00
0E00
0E00
0E00
0E00
0E00
0E00
0E00
0E00
0E00
0E00
0E00
0E00
0E00
0E10
0F30
0FE0
07C0
0000
0000
0700
0F80
0F80
0780
0080
0180
0300
0E00
ENDCHAR
STARTCHAR 0164
ENCODING 356
SWIDTH 607 0
DWIDTH 27 0
BBX 25 39 1 0
BITMAP
01002000
01804000
00C08000
00738000
007F0000
003F0000
003E0000
00000000
00000000
00000000
7FFFFF80
7C1E0F80
601E0380
C01E0180
C01E0080
801E0080
001E0000
001E0000
001E0000
001E0000
001E0000
001E0000
001E0000
001E0000
001E0000
001E0000
001E0000
001E0000
001E0000
001E0000
001E0000
001E0000
001E0000
001E0000
001E0000
003E0000
003E0000
003F0000
03FFE000
ENDCHAR
STARTCHAR 0165
ENCODING 357
SWIDTH 427 0
DWIDTH 19 0
BBX 19 31 0 0
BITMAP
000700
000FC0
000FC0
000FE0
0007E0
020060
020040
0600C0
0E0080
0E0300
1E0600
7FF000
FFF000
0E0000
0E0000
0E0000
0E0000
0E0000
0E0000
0E0000
0E0000
0E0000
0E0000
0E0000
0E0000
0E0000
0E0000
0E1000
0F3000
0FE000
07C000
ENDCHAR
STARTCHAR 0166
ENCODING 358
SWIDTH 607 0
DWIDTH 27 0
BBX 25 29 1 0
BITMAP
7FFFFF80
7C3E1F80
E03E0380
C03E0180
C03E0080
803E0080
003E0000
003E0000
003E0000
003E0000
003E0000
003E0000
003E0000
1FFFFC00
003E0000
003E0000
003E0000
003E0000
003E0000
003E0000
003E0000
003E0000
003E0000
003E0000
003E0000
003E0000
003E0000
003E0000
03FFE000
ENDCHAR
STARTCHAR 0167
ENCODING 359
SWIDTH 270 0
DWIDTH 12 0
BBX 12 26 0 0
BITMAP
0200
0200
0600
0E00
0E00
1E00
7FF0
FFF0
1E00
1E00
1E00
1E00
1E00
FFF0
FFF0
1E00
1E00
1E00
1E00
1E00
1E00
0E00
0E10
0F30
0FE0
07C0
ENDCHAR
STARTCHAR 0168
ENCODING 360
SWIDTH 720 0
DWIDTH 32 0
BBX 30 39 1 -1
BITMAP
001E0200
003F8200
007FE400
0043FC00
0041F800
00403000
00000000
00000000
00000000
FFE007FC
1F0000E0
1F0000E0
1F0000C0
1F0000C0
1F0000C0
1F0000C0
1F0000C0
1F0000C0
1F0000C0
1F0000C0
1F0000C0
1F0000C0
1F0000C0
1F0000C0
1F0000C0
0F0000C0
0F0000C0
0F0000C0
0F0000C0
0F0000C0
0F0000C0
0F0000C0
0F0000C0
07800180
07C00380
03E00700
01F83E00
007FF800
00078000
ENDCHAR
STARTCHAR 0169
ENCODING 361
SWIDTH 495 0
DWIDTH 22 0
BBX 22 30 0 -1
BITMAP
03E040
07F840
04FEC0
083F80
081F00
000000
000000
000000
000000
FE0FE0
1E03E0
1E01E0
1E01E0
1E01E0
1E01E0
1E01E0
1E01E0
1E01E0
1E01E0
1E01E0
1E01E0
1E01E0
1E01E0
1E01E0
0E01E0
0F03E0
0F8DF4
07F9F8
07F1E0
008100
ENDCHAR
STARTCHAR 016A
ENCODING 362
SWIDTH 720 0
DWIDTH 32 0
BBX 30 36 1 -1
BITMAP
007FFE00
007FFE00
00000000
00000000
00000000
00000000
FFE007FC
1F0000E0
1F0000E0
1F0000C0
0F0000C0
0F0000C0
0F0000C0
0F0000C0
0F0000C0
0F0000C0
0F0000C0
0F0000C0
0F0000C0
0F0000C0
0F0000C0
0F0000C0
0F0000C0
0F0000C0
0F0000C0
0F0000C0
0F0000C0
0F0000C0
0F0000C0
0F0000C0
07800180
07C00380
03E00700
01F83E00
007FF800
00078000
ENDCHAR
STARTCHAR 016B
ENCODING 363
SWIDTH 495 0
DWIDTH 22 0
BBX 22 28 0 -1
BITMAP
0FFFC0
0FFFC0
0FFFC0
000000
000000
000000
000000
FE0FE0
1E03E0
1E01E0
1E01E0
1E01E0
1E01E0
1E01E0
1E01E0
1E01E0
1E01E0
1E01E0
1E01E0
1E01E0
1E01E0
1E01E0
0E01E0
0F03E0
0F8DF4
07F9F8
07F1E0
008100
ENDCHAR
STARTCHAR 016C
ENCODING 364
SWIDTH 720 0
DWIDTH 32 0
BBX 30 39 1 -1
BITMAP
00400800
00601800
003FF000
003FF000
001FE000
00030000
00000000
00000000
00000000
FFE007FC
1F0000E0
1F0000E0
1F0000C0
0F0000C0
0F0000C0
0F0000C0
0F0000C0
0F0000C0
0F0000C0
0F0000C0
0F0000C0
0F0000C0
0F0000C0
0F0000C0
0F0000C0
0F0000C0
0F0000C0
0F0000C0
0F0000C0
0F0000C0
0F0000C0
0F0000C0
0F0000C0
07800180
07C00380
03E00700
01F83E00
007FF800
00078000
ENDCHAR
STARTCHAR 016D
ENCODING 365
SWIDTH 495 0
DWIDTH 22 0
BBX 22 30 0 -1
BITMAP
040080
060180
03FF00
03FF00
00FE00
003000
000000
000000
000000
FE0FE0
1E03E0
1E01E0
1E01E0
1E01E0
1E01E0
1E01E0
1E01E0
1E01E0
1E01E0
1E01E0
1E01E0
1E01E0
1E01E0
1E01E0
0E01E0
0F03E0
0F8DF4
07F9F8
07F1E0
008100
ENDCHAR
STARTCHAR 016E
ENCODING 366
SWIDTH 720 0
DWIDTH 32 0
BBX 30 40 1 -1
BITMAP
0007E000
00067000
000C3000
00081000
00081000
000C3000
0007E000
0003C000
00000000
00000000
FFE007FC
1F0000E0
1F0000E0
1F0000C0
1F0000C0
1F0000C0
1F0000C0
1F0000C0
1F0000C0
1F0000C0
1F0000C0
1F0000C0
1F0000C0
1F0000C0
1F0000C0
1F0000C0
0F0000C0
0F0000C0
0F0000C0
0F0000C0
0F0000C0
0F0000C0
0F0000C0
0F0000C0
07800180
07C00380
03E00700
01F83E00
007FF800
00078000
ENDCHAR
STARTCHAR 016F
ENCODING 367
SWIDTH 495 0
DWIDTH 22 0
BBX 22 32 0 -1
BITMAP
007000
00FC00
018400
010600
030600
010600
018C00
00F800
000000
000000
000000
FE0FE0
1E03E0
1E01E0
1E01E0
1E01E0
1E01E0
1E01E0
1E01E0
1E01E0
1E01E0
1E01E0
1E01E0
1E01E0
1E01E0
1E01E0
0E01E0
0F03E0
0F8DF4
0FF9F8
07F1E0
008100
ENDCHAR
STARTCHAR 0170
ENCODING 368
SWIDTH 720 0
DWIDTH 32 0
BBX 30 40 1 -1
BITMAP
000F1E00
000E1C00
000E1800
000C3800
00183000
00183000
00102000
00100000
00000000
00000000
FFE007FC
1F0000E0
1F0000E0
1F0000C0
1F0000C0
1F0000C0
1F0000C0
1F0000C0
1F0000C0
1F0000C0
1F0000C0
1F0000C0
1F0000C0
1F0000C0
1F0000C0
1F0000C0
0F0000C0
0F0000C0
0F0000C0
0F0000C0
0F0000C0
0F0000C0
0F0000C0
0F0000C0
07800180
07C00380
03E00700
01F83E00
007FF800
00078000
ENDCHAR
STARTCHAR 0171
ENCODING 369
SWIDTH 495 0
DWIDTH 22 0
BBX 22 31 0 -1
BITMAP
01C780
03C780
038700
038600
030600
020400
020800
000000
000000
000000
FE0FE0
1E03E0
1E01E0
1E01E0
1E01E0
1E01E0
1E01E0
1E01E0
1E01E0
1E01E0
1E01E0
1E01E0
1E01E0
1E01E0
1E01E0
0E01E0
0F03E0
0F8DF4
0FF9F8
07F1E0
008100
ENDCHAR
STARTCHAR 0172
ENCODING 370
SWIDTH 720 0
DWIDTH 32 0
BBX 30 37 1 -8
BITMAP
FFE007FC
1F0000E0
1F0000E0
1F0000C0
1F0000C0
1F0000C0
1F0000C0
1F0000C0
1F0000C0
1F0000C0
1F0000C0
1F0000C0
1F0000C0
1F0000C0
1F0000C0
1F0000C0
0F0000C0
0F0000C0
0F0000C0
0F0000C0
0F0000C0
0F0000C0
0F0000C0
0F0000C0
07800180
07C00380
03E00700
01F83E00
007FF800
00078000
00030000
00030000
00038000
00038000
0003E000
0001FF00
00007800
ENDCHAR
STARTCHAR 0173
ENCODING 371
SWIDTH 495 0
DWIDTH 22 0
BBX 24 28 0 -8
BITMAP
FE0FE0
1E03E0
1E01E0
1E01E0
1E01E0
1E01E0
1E01E0
1E01E0
1E01E0
1E01E0
1E01E0
1E01E0
1E01E0
1E01E0
1E01E0
0E01E0
0F03E0
0F8DF4
0FF9F8
07F1E0
008180
000180
000380
000380
000380
0001E0
0001FF
00007C
ENDCHAR
STARTCHAR 0174
ENCODING 372
SWIDTH 945 0
DWIDTH 42 0
BBX 40 41 1 -1
BITMAP
00003C0000
00007E0000
00007E0000
0000EF0000
0000C70000
0001818000
0001008000
0002004000
0000000000
0000000000
0000000000
FFC3FF80FF
3F00FC001C
1F007C0018
1F003C0018
0F003C0010
0F803E0030
0F801E0030
07801E0020
07C01F0060
03C01F0060
03C03F0040
03E03F80C0
01E03780C0
01E0678180
01F067C180
00F063C180
00F0C3E300
00F8C1E300
0078C1E300
007981F600
007D80F600
003D00F600
003F00FC00
001F007C00
001E007C00
001E007800
000E003800
000C003800
000C003000
0004001000
ENDCHAR
STARTCHAR 0175
ENCODING 373
SWIDTH 720 0
DWIDTH 32 0
BBX 32 31 0 -1
BITMAP
0003C000
0007E000
0007F000
000E7000
00183800
00101800
00200400
00000000
00000000
00000000
FF9FF87F
3E07E01C
1E03C018
1E01C018
0E01E018
0F01E030
0F01F030
0701F020
07817060
03837860
03C27840
03C63CC0
01C43C80
01EC1D80
01E81F80
00F81F00
00F00F00
00700E00
00700600
00600600
00200400
ENDCHAR
STARTCHAR 0176
ENCODING 374
SWIDTH 720 0
DWIDTH 32 0
BBX 30 40 1 0
BITMAP
00078000
000FC000
000FC000
001DE000
0018E000
00303000
00201800
00400800
00000000
00000000
00000000
FFE007FC
3F8001E0
1F8001C0
0F800180
07C00380
07C00300
03E00600
01E00600
01F00C00
00F81800
00781800
007C3000
003E7000
001E6000
001FC000
000FC000
000F8000
00078000
00078000
00078000
00078000
00078000
00078000
00078000
00078000
00078000
00078000
000FC000
007FF800
ENDCHAR
STARTCHAR 0177
ENCODING 375
SWIDTH 495 0
DWIDTH 22 0
BBX 22 40 0 -10
BITMAP
007C00
007C00
00FE00
01CF00
018300
030180
020080
000000
000000
000000
FFC1FC
3E0070
1E0070
1E0060
0F0060
0F00C0
0780C0
0780C0
03C180
03C180
01E300
01E300
00F300
00F600
007E00
007C00
003C00
003800
001800
001800
003000
003000
002000
006000
006000
38C000
7F8000
7F8000
3E0000
080000
ENDCHAR
STARTCHAR 0178
ENCODING 376
SWIDTH 720 0
DWIDTH 32 0
BBX 30 37 1 0
BITMAP
00383800
007C7C00
007C7C00
003C7800
00103000
00000000
00000000
00000000
FFE007FC
3F8001E0
1F8001C0
0F800180
07C00380
07C00300
03E00600
01E00600
01F00C00
00F81800
00781800
007C3000
003E7000
001E6000
001FC000
000FC000
000F8000
00078000
00078000
00078000
00078000
00078000
00078000
00078000
00078000
00078000
00078000
000FC000
007FF800
ENDCHAR
STARTCHAR 0179
ENCODING 377
SWIDTH 607 0
DWIDTH 27 0
BBX 25 39 1 0
BITMAP
00078000
000F0000
000E0000
000E0000
001C0000
00180000
00100000
00200000
00000000
00000000
1FFFFF00
1E003E00
18003E00
30007C00
3000F800
2000F000
2001F000
0003E000
0007C000
0007C000
000F8000
001F0000
001F0000
003E0000
007C0000
00F80000
00F80000
01F00000
03E00000
03E00000
07C00000
0F800080
0F800080
1F000180
3E000100
7C000300
7C000700
FFFFFF00
FFFFFF00
ENDCHAR
STARTCHAR 017A
ENCODING 378
SWIDTH 450 0
DWIDTH 20 0
BBX 18 30 1 0
BITMAP
007800
00F000
00E000
00E000
01C000
018000
010000
000000
000000
000000
7FFFC0
7FFFC0
600F80
600F00
401E00
403E00
007C00
007800
00F000
01F000
03E000
03C000
078000
0F0000
1F0040
1E0040
3C00C0
7800C0
F80F80
FFFF80
ENDCHAR
STARTCHAR 017B
ENCODING 379
SWIDTH 607 0
DWIDTH 27 0
BBX 25 37 1 0
BITMAP
001E0000
001E0000
001E0000
001E0000
000C0000
00000000
00000000
00000000
1FFFFF00
1E003E00
18003E00
30007C00
3000F800
2000F000
2001F000
0003E000
0007C000
0007C000
000F8000
001F0000
001F0000
003E0000
007C0000
00F80000
00F80000
01F00000
03E00000
03E00000
07C00000
0F800080
0F800080
1F000180
3E000100
7C000300
7C000700
FFFFFF00
FFFFFF00
ENDCHAR
STARTCHAR 017C
ENCODING 380
SWIDTH 450 0
DWIDTH 20 0
BBX 18 29 1 0
BITMAP
00E000
01F000
01F000
01F000
00E000
000000
000000
000000
000000
7FFFC0
7FFFC0
600F80
600F00
401E00
403E00
007C00
007800
00F000
01F000
03E000
03C000
078000
0F0000
1F0040
1E0040
3C00C0
7800C0
F80F80
FFFF80
ENDCHAR
STARTCHAR 017D
ENCODING 381
SWIDTH 607 0
DWIDTH 27 0
BBX 25 39 1 0
BITMAP
01002000
00804000
00E0C000
00718000
007B8000
003F0000
003E0000
00000000
00000000
00000000
1FFFFF00
1E003E00
18003E00
30007C00
3000F800
2000F000
2001F000
0003E000
0007C000
0007C000
000F8000
001F0000
001F0000
003E0000
007C0000
00F80000
00F80000
01F00000
03E00000
03E00000
07C00000
0F800080
0F800080
1F000180
3E000100
7C000300
7C000700
FFFFFF00
FFFFFF00
ENDCHAR
STARTCHAR 017E
ENCODING 382
SWIDTH 450 0
DWIDTH 20 0
BBX 18 30 1 0
BITMAP
100200
0C0400
060C00
071800
03F800
03F000
01F000
000000
000000
000000
7FFFC0
7FFFC0
600F80
600F00
401E00
403E00
007C00
007800
00F000
01F000
03E000
03C000
078000
0F0000
1F0040
1E0040
3C00C0
7800C0
F80F80
FFFF80
ENDCHAR
STARTCHAR 017F
ENCODING 383
SWIDTH 270 0
DWIDTH 12 0
BBX 18 31 0 0
BITMAP
003E00
00FF00
018780
0303C0
0703C0
070080
070000
0F0000
0F0000
0F0000
0F0000
0F0000
0F0000
0F0000
0F0000
0F0000
0F0000
0F0000
0F0000
0F0000
0F0000
0F0000
0F0000
0F0000
0F0000
0F0000
0F0000
0F0000
0F0000
1F8000
FFE000
ENDCHAR
STARTCHAR 018F
ENCODING 399
SWIDTH 720 0
DWIDTH 32 0
BBX 29 31 1 -1
BITMAP
041FE000
07FDF800
07C01E00
0F800F00
0F000780
0E0003C0
0C0003E0
0C0001E0
080001F0
080000F0
000000F8
000000F8
000000F8
000000F8
FFFFFFF8
FFFFFFF8
F80000F8
F80000F8
F80000F8
F80000F8
7C0000F8
7C0001F0
7C0001F0
3E0001E0
1E0003E0
1F0007C0
0F800780
07C01F00
01F03E00
007FF800
000F8000
ENDCHAR
STARTCHAR 0192
ENCODING 402
SWIDTH 495 0
DWIDTH 22 0
BBX 22 39 0 -9
BITMAP
000078
00019C
00019C
000318
000300
000700
000700
000E00
000E00
000E00
001E00
01FFE0
001E00
001C00
001C00
003C00
003C00
003C00
003800
007800
007800
007800
007000
00F000
00F000
00F000
00E000
00E000
01E000
01C000
01C000
01C000
018000
038000
038000
630000
E60000
EE0000
780000
ENDCHAR
STARTCHAR 01A0
ENCODING 416
SWIDTH 720 0
DWIDTH 32 0
BBX 28 34 2 0
BITMAP
000001E0
000001E0
000001E0
003FC0E0
00FFFFC0
03C03C00
07001E00
0E000F00
1E000780
3C0003C0
7C0003E0
780003E0
780001F0
F80001F0
F80001F0
F80001F0
F80001F0
F80001F0
F80001F0
F80001F0
F80001F0
F80001F0
F80001F0
F80001F0
780001E0
7C0003E0
3C0003C0
3E0003C0
1E000780
0F000F00
07801E00
03E07800
00FFF000
000F0000
ENDCHAR
STARTCHAR 01A1
ENCODING 417
SWIDTH 540 0
DWIDTH 24 0
BBX 23 22 1 -1
BITMAP
00001C
03FC3C
060F1E
1C079C
1803DC
3803E0
3801E0
7801E0
7801F0
7801F0
7800F0
F800F0
7800F0
7800E0
7800E0
7C01E0
3C01C0
3E01C0
1E0380
0F8700
07FC00
006000
ENDCHAR
STARTCHAR 01AF
ENCODING 431
SWIDTH 765 0
DWIDTH 34 0
BBX 35 35 1 -1
BITMAP
00000001E0
00000001E0
00000001E0
00000000E0
00000003C0
FFE007FC00
1F0000E000
1F0000E000
1F0000C000
1F0000C000
1F0000C000
1F0000C000
1F0000C000
1F0000C000
1F0000C000
1F0000C000
1F0000C000
1F0000C000
1F0000C000
1F0000C000
1F0000C000
0F0000C000
0F0000C000
0F0000C000
0F0000C000
0F0000C000
0F0000C000
0F0000C000
0F0000C000
0780018000
07C0038000
03E0070000
01F83E0000
007FF80000
0007800000
ENDCHAR
STARTCHAR 01B0
ENCODING 432
SWIDTH 540 0
DWIDTH 24 0
BBX 24 22 0 -1
BITMAP
00000E
FE0FEF
1E03EF
1E01E7
1E01E6
1E01F0
1E01E0
1E01E0
1E01E0
1E01E0
1E01E0
1E01E0
1E01E0
1E01E0
1E01E0
1E01E0
0E01E0
0F03E0
0F8DF4
0FF9F8
07F1E0
008100
ENDCHAR
STARTCHAR 01CD
ENCODING 461
SWIDTH 720 0
DWIDTH 32 0
BBX 32 39 0 0
BITMAP
00200400
00100800
001C1800
000E3000
000F7000
0007E000
0007C000
00000000
00000000
00018000
00018000
00038000
0003C000
0003C000
0007E000
0007E000
000DE000
000DF000
0018F000
0018F800
00187800
00307C00
00303C00
00603C00
00603E00
00C01E00
00C01F00
00C00F00
01FFFF00
01800F80
03000780
030007C0
060003C0
060003E0
060001E0
0C0001F0
1C0001F0
3E0003F8
FFC00FFF
ENDCHAR
STARTCHAR 01CE
ENCODING 462
SWIDTH 450 0
DWIDTH 20 0
BBX 18 30 2 0
BITMAP
200400
100800
1C1000
0E7000
0FE000
07E000
07C000
000000
000000
000000
1FF000
387800
703C00
703C00
F01C00
F01C00
601C00
007C00
03DC00
0E1C00
1C1C00
701C00
F01C00
E01C00
E01C00
E01C00
F03C40
F8DE80
FF9F80
7E1E00
ENDCHAR
STARTCHAR 01CF
ENCODING 463
SWIDTH 337 0
DWIDTH 15 0
BBX 13 39 1 0
BITMAP
8010
6030
3060
38E0
1FC0
1F80
0F80
0000
0000
0000
7FF0
0F80
0F80
0F80
0F00
0F00
0F00
0F00
0F00
0F00
0F00
0F00
0F00
0F00
0F00
0F00
0F00
0F00
0F00
0F00
0F00
0F00
0F00
0F00
0F80
0F80
0F80
1F80
FFF8
ENDCHAR
STARTCHAR 01D0
ENCODING 464
SWIDTH 270 0
DWIDTH 12 0
BBX 12 30 0 0
BITMAP
C010
6020
3060
38C0
1FC0
1F80
0F80
0000
0000
0000
0700
3F00
7F00
0F00
0700
0700
0700
0700
0700
0700
0700
0700
0700
0700
0700
0700
0700
0700
0F80
3FE0
ENDCHAR
STARTCHAR 01D1
ENCODING 465
SWIDTH 720 0
DWIDTH 32 0
BBX 28 40 2 -1
BITMAP
00801000
00603000
00706000
0038C000
001DC000
001F8000
000F8000
00000000
00000000
003FC000
00FFF800
03C03C00
07001E00
0E000F00
1E000780
3C0003C0
7C0003E0
780003E0
780001E0
F80001F0
F80001F0
F80001F0
F80001F0
F80001F0
F80001F0
F80001F0
F80001F0
F80001F0
F80001F0
F80001F0
780001E0
7C0001E0
3C0003C0
3E0003C0
1E000780
0F000F00
07801E00
03E07800
00FFF000
000F0000
ENDCHAR
STARTCHAR 01D2
ENCODING 466
SWIDTH 495 0
DWIDTH 22 0
BBX 20 31 1 -1
BITMAP
080100
060200
070600
038C00
01FC00
01F800
00F000
000000
000000
000000
03FC00
060F00
1C0780
1C03C0
3803C0
3801E0
7801E0
7801F0
7801F0
7800F0
F800F0
7800F0
7800E0
7800E0
7C01E0
3C01C0
3E01C0
1E0380
0F8700
07FC00
006000
ENDCHAR
STARTCHAR 01D3
ENCODING 467
SWIDTH 720 0
DWIDTH 32 0
BBX 30 40 1 -1
BITMAP
00400800
00201000
00383000
001C6000
001EE000
000FC000
000F8000
00000000
00000000
00000000
FFE007FC
1F0000E0
1F0000E0
1F0000C0
1F0000C0
1F0000C0
1F0000C0
1F0000C0
1F0000C0
1F0000C0
1F0000C0
1F0000C0
1F0000C0
1F0000C0
1F0000C0
1F0000C0
0F0000C0
0F0000C0
0F0000C0
0F0000C0
0F0000C0
0F0000C0
0F0000C0
0F0000C0
07800180
07C00380
03E00700
01F83E00
007FF800
00078000
ENDCHAR
STARTCHAR 01D4
ENCODING 468
SWIDTH 495 0
DWIDTH 22 0
BBX 22 31 0 -1
BITMAP
040080
030100
038300
01C600
00FE00
00FC00
007800
000000
000000
000000
FE0FE0
1E03E0
1E01E0
1E01E0
1E01E0
1E01E0
1E01E0
1E01E0
1E01E0
1E01E0
1E01E0
1E01E0
1E01E0
1E01E0
1E01E0
0E01E0
0F03E0
0F8DF4
0FF9F8
07F1E0
008100
ENDCHAR
STARTCHAR 01D5
ENCODING 469
SWIDTH 720 0
DWIDTH 32 0
BBX 30 41 1 -1
BITMAP
003FF000
003FF000
003FF000
00000000
00000000
00387000
00387000
00387000
00102000
00000000
00000000
FFE007FC
1F0000E0
1F0000E0
1F0000C0
1F0000C0
1F0000C0
1F0000C0
1F0000C0
1F0000C0
1F0000C0
1F0000C0
1F0000C0
1F0000C0
1F0000C0
1F0000C0
1F0000C0
0F0000C0
0F0000C0
0F0000C0
0F0000C0
0F0000C0
0F0000C0
0F0000C0
0F0000C0
07800180
07C00380
03E00700
01F83E00
007FF800
00078000
ENDCHAR
STARTCHAR 01D6
ENCODING 470
SWIDTH 495 0
DWIDTH 22 0
BBX 22 34 0 -1
BITMAP
0FFFC0
0FFFC0
0FFFC0
000000
000000
010000
078780
07C780
07C780
038780
000000
000000
000000
FE0FE0
1E03E0
1E01E0
1E01E0
1E01E0
1E01E0
1E01E0
1E01E0
1E01E0
1E01E0
1E01E0
1E01E0
1E01E0
1E01E0
1E01E0
0E01E0
0F03E0
0F8DF4
0FF9F8
07F1E0
008100
ENDCHAR
STARTCHAR 01D7
ENCODING 471
SWIDTH 720 0
DWIDTH 32 0
BBX 30 41 1 -1
BITMAP
0001E000
00038000
00030000
00020000
00000000
00387000
00387000
00387000
00102000
00000000
00000000
FFE007FC
1F0000E0
1F0000E0
1F0000C0
1F0000C0
1F0000C0
1F0000C0
1F0000C0
1F0000C0
1F0000C0
1F0000C0
1F0000C0
1F0000C0
1F0000C0
1F0000C0
1F0000C0
0F0000C0
0F0000C0
0F0000C0
0F0000C0
0F0000C0
0F0000C0
0F0000C0
0F0000C0
07800180
07C00380
03E00700
01F83E00
007FF800
00078000
ENDCHAR
STARTCHAR 01D8
ENCODING 472
SWIDTH 495 0
DWIDTH 22 0
BBX 22 38 0 -1
BITMAP
001F00
001E00
003C00
003800
003000
003000
006000
004000
000000
010000
078780
07C780
07C780
038780
000000
000000
000000
FE0FE0
1E03E0
1E01E0
1E01E0
1E01E0
1E01E0
1E01E0
1E01E0
1E01E0
1E01E0
1E01E0
1E01E0
1E01E0
1E01E0
1E01E0
0E01E0
0F03E0
0F8DF4
0FF9F8
07F1E0
008100
ENDCHAR
STARTCHAR 01D9
ENCODING 473
SWIDTH 720 0
DWIDTH 32 0
BBX 30 41 1 -1
BITMAP
00201000
00186000
000FC000
00078000
00000000
00387000
00387000
00387000
00102000
00000000
00000000
FFE007FC
1F0000E0
1F0000E0
1F0000C0
1F0000C0
1F0000C0
1F0000C0
1F0000C0
1F0000C0
1F0000C0
1F0000C0
1F0000C0
1F0000C0
1F0000C0
1F0000C0
1F0000C0
0F0000C0
0F0000C0
0F0000C0
0F0000C0
0F0000C0
0F0000C0
0F0000C0
0F0000C0
07800180
07C00380
03E00700
01F83E00
007FF800
00078000
ENDCHAR
STARTCHAR 01DA
ENCODING 474
SWIDTH 495 0
DWIDTH 22 0
BBX 22 37 0 -1
BITMAP
060080
030100
018300
01EE00
00FC00
00FC00
007800
000000
010000
078780
07C780
07C780
038780
000000
000000
000000
FE0FE0
1E03E0
1E01E0
1E01E0
1E01E0
1E01E0
1E01E0
1E01E0
1E01E0
1E01E0
1E01E0
1E01E0
1E01E0
1E01E0
1E01E0
0E01E0
0F03E0
0F8DF4
0FF9F8
07F1E0
008100
ENDCHAR
STARTCHAR 01DB
ENCODING 475
SWIDTH 720 0
DWIDTH 32 0
BBX 30 41 1 -1
BITMAP
001E0000
000F0000
00030000
00010000
00000000
00387000
00387000
00387000
00102000
00000000
00000000
FFE007FC
1F0000E0
1F0000E0
1F0000C0
1F0000C0
1F0000C0
1F0000C0
1F0000C0
1F0000C0
1F0000C0
1F0000C0
1F0000C0
1F0000C0
1F0000C0
1F0000C0
1F0000C0
0F0000C0
0F0000C0
0F0000C0
0F0000C0
0F0000C0
0F0000C0
0F0000C0
0F0000C0
07800180
07C00380
03E00700
01F83E00
007FF800
00078000
ENDCHAR
STARTCHAR 01DC
ENCODING 476
SWIDTH 495 0
DWIDTH 22 0
BBX 22 38 0 -1
BITMAP
03E000
01E000
00F000
007000
003000
001800
001800
000800
000000
010000
078780
07C780
07C780
038780
000000
000000
000000
FE0FE0
1E03E0
1E01E0
1E01E0
1E01E0
1E01E0
1E01E0
1E01E0
1E01E0
1E01E0
1E01E0
1E01E0
1E01E0
1E01E0
1E01E0
0E01E0
0F03E0
0F8DF4
0FF9F8
07F1E0
008100
ENDCHAR
STARTCHAR 01FA
ENCODING 506
SWIDTH 720 0
DWIDTH 32 0
BBX 32 45 0 0
BITMAP
0000F800
0000F000
0001E000
0001C000
00018000
00030000
00030000
00020000
0003C000
0007E000
000C3000
00083000
00083000
000C3000
000E6000
0007C000
00018000
00038000
0003C000
0003C000
0007E000
0007E000
000DE000
000DF000
0018F000
0018F800
00187800
00307C00
00303C00
00603C00
00603E00
00C01E00
00C01F00
00C00F00
01FFFF00
01800F80
03000780
030007C0
060003C0
060003E0
060001E0
0C0001F0
1C0001F0
3E0003F8
FFC00FFF
ENDCHAR
STARTCHAR 01FB
ENCODING 507
SWIDTH 450 0
DWIDTH 20 0
BBX 18 40 2 0
BITMAP
00F800
00F000
01E000
01C000
018000
010000
030000
020000
000000
03C000
07E000
0C3000
083000
081000
0C3000
0E6000
07C000
000000
000000
000000
1FF000
387800
703C00
703C00
F01C00
F01C00
601C00
007C00
03DC00
0E1C00
1C1C00
701C00
F01C00
E01C00
E01C00
E01C00
F03C40
F8DE80
FF9F80
7E1E00
ENDCHAR
STARTCHAR 01FC
ENCODING 508
SWIDTH 900 0
DWIDTH 40 0
BBX 39 40 -1 0
BITMAP
0000078000
00000F0000
00000F0000
00000E0000
00001C0000
0000180000
0000100000
0000000000
0000000000
0000000000
0000000000
0007FFFFF8
0000FE0038
0000DE0018
0000DE0008
00009E0008
00019E0008
00031E0000
00031E0000
00061E0000
00061E0040
000C1E0040
000C1E0040
00181E01C0
00181FFFC0
00301E03C0
00301E0040
007FFE0040
007FFE0040
00C01E0000
00C01E0000
01801E0000
03001E0000
03001E0002
06001E0002
06001E0004
0E001E000C
0C001E001C
1E003FFFF8
FFC1FFFFF8
ENDCHAR
STARTCHAR 01FD
ENCODING 509
SWIDTH 675 0
DWIDTH 30 0
BBX 26 31 2 -1
BITMAP
00078000
000F0000
000E0000
000E0000
001C0000
00180000
00100000
00000000
00000000
00000000
1FF1FE00
387B0F00
703E0780
F03C03C0
F03C03C0
703C03C0
003FFFC0
007FFFC0
01FC0000
073C0000
1C3C0000
783C0000
F03C0000
E03C0040
E01E0040
E01E0080
F01F8180
F86FFF00
FFC7FE00
7F83FC00
08006000
ENDCHAR
STARTCHAR 01FE
ENCODING 510
SWIDTH 720 0
DWIDTH 32 0
BBX 28 41 2 -1
BITMAP
0003E000
0003C000
00078000
00070000
00060000
000C0000
000C0000
00080000
00000000
00000000
003FC060
00FFF8C0
03C03D80
07001F80
0E000F00
1E000780
3C000FC0
7C001BE0
78001BE0
780031F0
F80061F0
F800C1F0
F80181F0
F80381F0
F80301F0
F80601F0
F80C01F0
F81801F0
F83801F0
F83001F0
F86001F0
78C001E0
7D8003E0
3F0003C0
3F0003C0
1E000780
0F000F00
1F801E00
33E07800
70FFE000
200F0000
ENDCHAR
STARTCHAR 01FF
ENCODING 511
SWIDTH 495 0
DWIDTH 22 0
BBX 20 31 1 -1
BITMAP
003C00
003C00
007800
007000
006000
00C000
008000
000000
000000
000010
03FC30
060F60
0C07C0
1C03C0
3803C0
3807E0
780DE0
7819F0
7811F0
7830F0
7860F0
78C0F0
7980E0
7B00E0
7E01E0
3C01C0
3E01C0
1E0380
2F8700
63FE00
C06000
ENDCHAR
STARTCHAR 0218
ENCODING 536
SWIDTH 562 0
DWIDTH 25 0
BBX 19 40 3 -10
BITMAP
07F080
1FFF80
380F80
700380
F00380
E00180
E00080
F00080
F00080
F80080
FC0000
7F0000
3FC000
1FF000
0FF800
03FE00
01FF00
007F80
001FC0
000FE0
0003E0
8001E0
8001E0
C001E0
C001E0
E001E0
E001C0
F80380
FE0F00
8FFE00
80F000
000000
00E000
01F000
01F000
00D000
001000
001000
002000
01C000
ENDCHAR
STARTCHAR 0219
ENCODING 537
SWIDTH 382 0
DWIDTH 17 0
BBX 14 30 2 -10
BITMAP
1FF0
3070
6030
E030
E010
E010
F800
7C00
7F00
3FC0
0FF0
03F8
00F8
807C
803C
C03C
C018
E038
F030
FFE0
0300
0000
0700
0F80
0FC0
06C0
00C0
0080
0180
0E00
ENDCHAR
STARTCHAR 021A
ENCODING 538
SWIDTH 607 0
DWIDTH 27 0
BBX 25 39 1 -10
BITMAP
7FFFFF80
7C1E0F80
601E0380
C01E0180
C01E0080
801E0080
001E0000
001E0000
001E0000
001E0000
001E0000
001E0000
001E0000
001E0000
001E0000
001E0000
001E0000
001E0000
001E0000
001E0000
001E0000
001E0000
001E0000
001E0000
001E0000
003E0000
003E0000
003F0000
03FFE000
00000000
00000000
001C0000
003E0000
003E0000
001A0000
00020000
00060000
000C0000
00380000
ENDCHAR
STARTCHAR 021B
ENCODING 539
SWIDTH 270 0
DWIDTH 12 0
BBX 12 36 0 -10
BITMAP
0200
0200
0600
0600
0E00
1E00
7FF0
FFF0
0E00
0E00
0E00
0E00
0E00
0E00
0E00
0E00
0E00
0E00
0E00
0E00
0E00
0E00
0E10
0F30
0FE0
07C0
0000
0000
0700
0F80
0F80
0780
0080
0180
0300
0E00
ENDCHAR
STARTCHAR 0259
ENCODING 601
SWIDTH 450 0
DWIDTH 20 0
BBX 16 21 2 -1
BITMAP
0FF0
1FF8
3FFC
707E
403E
C01F
800F
000F
0007
0007
0007
0007
0007
FFFF
F007
F006
F806
780C
3C18
1FF0
0300
ENDCHAR
STARTCHAR 02C6
ENCODING 710
SWIDTH 337 0
DWIDTH 15 0
BBX 11 7 2 23
BITMAP
1F00
1F00
3F80
7380
61C0
C060
8020
ENDCHAR
STARTCHAR 02C7
ENCODING 711
SWIDTH 337 0
DWIDTH 15 0
BBX 11 7 2 23
BITMAP
8020
C060
60C0
7980
3F80
3F00
1F00
ENDCHAR
STARTCHAR 02C9
ENCODING 713
SWIDTH 337 0
DWIDTH 15 0
BBX 14 2 0 27
BITMAP
FFFC
FFFC
ENDCHAR
STARTCHAR 02D8
ENCODING 728
SWIDTH 337 0
DWIDTH 15 0
BBX 12 6 1 23
BITMAP
C010
6030
7FF0
3FE0
1FC0
0200
ENDCHAR
STARTCHAR 02D9
ENCODING 729
SWIDTH 337 0
DWIDTH 15 0
BBX 5 5 5 24
BITMAP
70
F8
F8
F0
60
ENDCHAR
STARTCHAR 02DA
ENCODING 730
SWIDTH 337 0
DWIDTH 15 0
BBX 9 8 3 23
BITMAP
1C00
7F00
4300
C180
C180
C100
6300
3E00
ENDCHAR
STARTCHAR 02DB
ENCODING 731
SWIDTH 337 0
DWIDTH 15 0
BBX 10 8 3 -8
BITMAP
6000
6000
E000
E000
E000
7800
7FC0
1F00
ENDCHAR
STARTCHAR 02DC
ENCODING 732
SWIDTH 337 0
DWIDTH 15 0
BBX 14 5 0 24
BITMAP
3F04
7F84
4FEC
43F8
81F0
ENDCHAR
STARTCHAR 02DD
ENCODING 733
SWIDTH 337 0
DWIDTH 15 0
BBX 12 7 2 23
BITMAP
78F0
70E0
61C0
E1C0
C180
C100
8100
ENDCHAR
STARTCHAR 0300
ENCODING 768
SWIDTH 0 0
DWIDTH 0 0
BBX 7 7 -11 32
BITMAP
F8
7C
3C
1C
0C
06
02
ENDCHAR
STARTCHAR 0301
ENCODING 769
SWIDTH 0 0
DWIDTH 0 0
BBX 7 8 -9 32
BITMAP
1E
3C
3C
38
70
60
40
80
ENDCHAR
STARTCHAR 0303
ENCODING 771
SWIDTH 0 0
DWIDTH 0 0
BBX 14 6 -17 32
BITMAP
1C04
7F04
7FC4
47F8
83F8
8060
ENDCHAR
STARTCHAR 0309
ENCODING 777
SWIDTH 0 0
DWIDTH 0 0
BBX 6 7 -9 32
BITMAP
30
CC
CC
CC
08
10
10
ENDCHAR
STARTCHAR 0323
ENCODING 803
SWIDTH 0 0
DWIDTH 0 0
BBX 5 4 -20 -7
BITMAP
78
F8
F8
78
ENDCHAR
STARTCHAR 037E
ENCODING 894
SWIDTH 270 0
DWIDTH 12 0
BBX 7 27 3 -6
BITMAP
78
7C
78
78
00
00
00
00
00
00
00
00
00
00
00
00
78
FC
FC
FE
26
04
0C
0C
18
30
C0
ENDCHAR
STARTCHAR 0384
ENCODING 900
SWIDTH 337 0
DWIDTH 15 0
BBX 7 7 5 23
BITMAP
3E
3C
38
70
60
40
C0
ENDCHAR
STARTCHAR 0385
ENCODING 901
SWIDTH 337 0
DWIDTH 15 0
BBX 15 7 0 23
BITMAP
01F0
01E0
03C0
F39E
F31E
F21E
F41E
ENDCHAR
STARTCHAR 0386
ENCODING 902
SWIDTH 720 0
DWIDTH 32 0
BBX 32 30 0 0
BITMAP
03C18000
07818000
07038000
0703C000
0E03C000
0C07E000
0807E000
000DE000
000DF000
0018F000
0018F800
00187800
00307C00
00303C00
00603C00
00603E00
00C01E00
00C01F00
00C00F00
01FFFF00
01800F80
03000780
030007C0
060003C0
060003E0
060001E0
0C0001F0
1C0001F0
3E0003F8
FFC00FFF
ENDCHAR
STARTCHAR 0387
ENCODING 903
SWIDTH 270 0
DWIDTH 12 0
BBX 5 4 4 16
BITMAP
F0
F8
F8
F0
ENDCHAR
STARTCHAR 0388
ENCODING 904
SWIDTH 697 0
DWIDTH 31 0
BBX 32 30 -3 0
BITMAP
3C000000
78FFFFFC
701F001C
600F000C
E00F0004
C00F0006
800F0002
000F0000
000F0000
000F0000
000F0010
000F0010
000F0030
000F0070
000FFFF0
000F01F0
000F0030
000F0010
000F0010
000F0010
000F0000
000F0000
000F0000
000F0001
000F0001
000F0003
000F0006
000F000E
001FFFFE
00FFFFFC
ENDCHAR
STARTCHAR 0389
ENCODING 905
SWIDTH 810 0
DWIDTH 36 0
BBX 38 30 -3 0
BITMAP
3C00000000
78FFF03FFC
701F0007C0
600F0003C0
E00F0003C0
C00F0003C0
800F0003C0
000F0003C0
000F0003C0
000F0003C0
000F0003C0
000F0003C0
000F0003C0
000F0003C0
000FFFFFC0
000FFFFFC0
000F0003C0
000F0003C0
000F0003C0
000F0003C0
000F0003C0
000F0003C0
000F0003C0
000F0003C0
000F0003C0
000F0003C0
000F0003C0
000F0007C0
001F8007E0
00FFF07FFC
ENDCHAR
STARTCHAR 038A
ENCODING 906
SWIDTH 405 0
DWIDTH 18 0
BBX 20 30 -3 0
BITMAP
3C0000
78FFF0
701F80
600F00
E00F00
C00F00
800F00
000F00
000F00
000F00
000F00
000F00
000F00
000F00
000F00
000F00
000F00
000F00
000F00
000F00
000F00
000F00
000F00
000F00
000F00
000F00
000F00
000F00
001F80
00FFF0
ENDCHAR
STARTCHAR 038C
ENCODING 908
SWIDTH 720 0
DWIDTH 32 0
BBX 31 31 -1 -1
BITMAP
7C07F800
781FFF00
70780780
60E003C0
E1C001E0
C3C000F0
87800078
0F80007C
0F00007C
0F00003C
1F00003E
1F00003E
1F00003E
1F00003E
1F00003E
1F00003E
1F00003E
1F00003E
1F00003E
1F00003E
1F00003E
0F00003C
0F80003C
07800078
07C00078
03C000F0
01E001E0
00F003C0
007C0F00
001FFE00
0001E000
ENDCHAR
STARTCHAR 038E
ENCODING 910
SWIDTH 810 0
DWIDTH 36 0
BBX 38 30 -3 0
BITMAP
3C00000000
78FFF007FC
703F8001E0
601F8001C0
E00F8001C0
C007C00180
8007C00300
0003E00600
0001F00600
0001F00C00
0000F81C00
00007C1800
00007C3000
00003E3000
00001F6000
00001FC000
00000FC000
0000078000
0000078000
0000078000
0000078000
0000078000
0000078000
0000078000
0000078000
0000078000
0000078000
0000078000
00000FC000
00007FF800
ENDCHAR
STARTCHAR 038F
ENCODING 911
SWIDTH 742 0
DWIDTH 33 0
BBX 33 30 -1 0
BITMAP
7C07FC0000
783FFF8000
707C07E000
E0F001F000
C1E000F800
C3C0007C00
87C0007C00
0780003E00
0F80003E00
0F80003E00
0F80001F00
1F80001F00
1F80001F00
1F80001F00
1F80001F00
0F80001E00
0F80003E00
0F80003E00
0780003C00
07C0003C00
03C0007800
01E000F000
00F001E000
203C078080
200C060080
3004060180
3FFC07FF80
3FFC07FF80
3FFC07FF80
3FFC07FF80
ENDCHAR
STARTCHAR 0390
ENCODING 912
SWIDTH 270 0
DWIDTH 12 0
BBX 16 31 -2 -1
BITMAP
00F0
01E0
01E0
71CF
F99F
FB1F
720E
0000
0000
0000
03C0
0FC0
17C0
03C0
03C0
03C0
03C0
03C0
03C0
03C0
03C0
03C0
03C0
03C0
03C0
03C0
03C4
03C4
01E8
01F8
0060
ENDCHAR
STARTCHAR 0391
ENCODING 913
SWIDTH 720 0
DWIDTH 32 0
BBX 32 30 0 0
BITMAP
00018000
00018000
00038000
0003C000
0003C000
0007E000
0007E000
000DE000
000DF000
0018F000
0018F800
00187800
00307C00
00303C00
00603C00
00603E00
00C01E00
00C01F00
00C00F00
01FFFF00
01800F80
03000780
030007C0
060003C0
060003E0
060001E0
0C0001F0
1C0001F0
3E0003F8
FFC00FFF
ENDCHAR
STARTCHAR 0392
ENCODING 914
SWIDTH 675 0
DWIDTH 30 0
BBX 26 29 1 0
BITMAP
FFFFF000
1F00FC00
0F003E00
0F001F00
0F000F00
0F000F80
0F000F80
0F000F80
0F000F80
0F000F80
0F001F00
0F001E00
0F007C00
0FFFF800
0FFFF800
0F007E00
0F001F80
0F000F80
0F000FC0
0F0007C0
0F0007C0
0F0007C0
0F0007C0
0F0007C0
0F000F80
0F001F80
0F003F00
1FFFFC00
FFFFE000
ENDCHAR
STARTCHAR 0393
ENCODING 915
SWIDTH 585 0
DWIDTH 26 0
BBX 24 29 1 0
BITMAP
FFFFFE
1F001E
0F0006
0F0002
0F0002
0F0001
0F0000
0F0000
0F0000
0F0000
0F0000
0F0000
0F0000
0F0000
0F0000
0F0000
0F0000
0F0000
0F0000
0F0000
0F0000
0F0000
0F0000
0F0000
0F0000
0F0000
0F8000
1F8000
FFF000
ENDCHAR
STARTCHAR 0394
ENCODING 916
SWIDTH 652 0
DWIDTH 29 0
BBX 26 30 1 0
BITMAP
00040000
00060000
000E0000
000F0000
001F0000
001F0000
003F8000
00378000
0077C000
0063C000
0063C000
00C3E000
00C1E000
0181F000
0180F000
0380F000
03007800
03007800
06007C00
06003C00
0C003E00
0C001E00
18001E00
18001F00
38000F00
30000F80
30000780
60000780
7FFFFFC0
FFFFFFC0
ENDCHAR
STARTCHAR 0395
ENCODING 917
SWIDTH 607 0
DWIDTH 27 0
BBX 25 29 1 0
BITMAP
FFFFFE00
0F001E00
0F000600
0F000600
0F000200
0F000200
0F000000
0F000000
0F000000
0F001000
0F001000
0F001000
0F007000
0FFFF000
0F01F000
0F003000
0F001000
0F001000
0F001000
0F000000
0F000000
0F000000
0F000080
0F000100
0F000100
0F000300
0F000600
1FFFFE00
FFFFFE00
ENDCHAR
STARTCHAR 0396
ENCODING 918
SWIDTH 607 0
DWIDTH 27 0
BBX 25 29 1 0
BITMAP
1FFFFF00
1E003E00
18003E00
30007C00
3000F800
2000F000
2001F000
0003E000
0007C000
0007C000
000F8000
001F0000
001F0000
003E0000
007C0000
00F80000
00F80000
01F00000
03E00000
03E00000
07C00000
0F800080
0F800080
1F000180
3E000100
7C000300
7C000700
FFFFFF00
FFFFFF00
ENDCHAR
STARTCHAR 0397
ENCODING 919
SWIDTH 720 0
DWIDTH 32 0
BBX 30 29 1 0
BITMAP
FFF03FFC
1F8007C0
0F0003C0
0F0003C0
0F0003C0
0F0003C0
0F0003C0
0F0003C0
0F0003C0
0F0003C0
0F0003C0
0F0003C0
0F0003C0
0FFFFFC0
0FFFFFC0
0F0003C0
0F0003C0
0F0003C0
0F0003C0
0F0003C0
0F0003C0
0F0003C0
0F0003C0
0F0003C0
0F0003C0
0F0003C0
0F0003C0
1F8007E0
FFF03FFC
ENDCHAR
STARTCHAR 0398
ENCODING 920
SWIDTH 720 0
DWIDTH 32 0
BBX 28 31 2 -1
BITMAP
003FC000
00FFF800
03C03C00
07000F00
0F000780
1E000780
3C0003C0
7C0003E0
780001E0
780001F0
F84021F0
F84021F0
F84021F0
F879E1F0
F87FE1F0
F87FE1F0
F87FE1F0
F86061F0
F84021F0
F84021F0
F84021F0
780001E0
7C0001E0
3C0003C0
3E0003C0
1E000780
0F000F00
07801E00
03E07800
00FFF000
000F0000
ENDCHAR
STARTCHAR 0399
ENCODING 921
SWIDTH 337 0
DWIDTH 15 0
BBX 13 29 1 0
BITMAP
7FF0
0F80
0F80
0F80
0F00
0F00
0F00
0F00
0F00
0F00
0F00
0F00
0F00
0F00
0F00
0F00
0F00
0F00
0F00
0F00
0F00
0F00
0F00
0F00
0F80
0F80
0F80
1F80
FFF8
ENDCHAR
STARTCHAR 039A
ENCODING 922
SWIDTH 720 0
DWIDTH 32 0
BBX 31 29 1 0
BITMAP
FFF07FE0
1F801F00
0F001E00
0F001800
0F003000
0F006000
0F00C000
0F018000
0F030000
0F060000
0F0C0000
0F180000
0F300000
0FF80000
0FFC0000
0F7E0000
0F3F0000
0F1F8000
0F0FC000
0F07E000
0F03F000
0F01F800
0F00FC00
0F007E00
0F003F00
0F001F80
0F000FE0
1F800FF8
FFF07FFE
ENDCHAR
STARTCHAR 039B
ENCODING 923
SWIDTH 720 0
DWIDTH 32 0
BBX 31 30 1 0
BITMAP
00020000
00030000
00070000
00078000
000F8000
000FC000
000FC000
001BC000
001BE000
0031E000
0031F000
0030F000
0060F800
00607800
00C07800
00C07C00
01803C00
01803E00
01801E00
03001F00
03000F00
06000F00
06000F80
06000780
0C0007C0
0C0003C0
1C0003E0
1C0003E0
3C0007F0
FF801FFE
ENDCHAR
STARTCHAR 039C
ENCODING 924
SWIDTH 900 0
DWIDTH 40 0
BBX 38 29 1 0
BITMAP
FF800007F8
1F80000FC0
0F80000FC0
0FC0001F80
0FC0001F80
0FE0001F80
0DE0003780
0DF0003780
0CF0006780
0CF8006780
0C7800C780
0C7C00C780
0C3C018780
0C3E018780
0C3E038780
0C1E030780
0C1F030780
0C0F060780
0C0F860780
0C078C0780
0C07CC0780
0C03D80780
0C03F80780
0C01F00780
0C01F00780
0C00F007C0
0C00E007C0
1E00E00FC0
FFC0407FFC
ENDCHAR
STARTCHAR 039D
ENCODING 925
SWIDTH 720 0
DWIDTH 32 0
BBX 31 29 0 0
BITMAP
FF0003FE
1F800070
0FC00060
07E00060
07E00060
07F00060
06F80060
06FC0060
067E0060
063E0060
061F0060
060F8060
0607C060
0607E060
0603F060
0601F060
0600F860
06007C60
06007E60
06003F60
06001F60
06000FE0
060007E0
060003E0
060003E0
060001E0
060000E0
0F000060
7FE00020
ENDCHAR
STARTCHAR 039E
ENCODING 926
SWIDTH 652 0
DWIDTH 29 0
BBX 25 29 2 0
BITMAP
7FFFFF00
7FFFFF00
7FFFFF00
78000F00
40000300
40000100
00000100
00000000
00000000
00001000
04001000
04001000
07007000
07FFF000
07FFF000
07FFF000
06003000
04001000
08001000
00000000
00000000
80000080
80000080
80000080
C0000180
FFFFFF80
FFFFFF80
FFFFFF80
FFFFFF80
ENDCHAR
STARTCHAR 039F
ENCODING 927
SWIDTH 720 0
DWIDTH 32 0
BBX 28 31 2 -1
BITMAP
003FC000
00FFF800
03C03C00
07001E00
0E000F00
1E000780
3C0003C0
7C0003E0
780003E0
780001E0
F80001F0
F80001F0
F80001F0
F80001F0
F80001F0
F80001F0
F80001F0
F80001F0
F80001F0
F80001F0
F80001F0
780001E0
7C0001E0
3C0003C0
3E0003C0
1E000780
0F000F00
07801E00
03E07800
00FFF000
000F0000
ENDCHAR
STARTCHAR 03A0
ENCODING 928
SWIDTH 720 0
DWIDTH 32 0
BBX 30 29 1 0
BITMAP
FFFFFFFC
1F0003E0
0F0003C0
0F0003C0
0F0003C0
0F0003C0
0F0003C0
0F0003C0
0F0003C0
0F0003C0
0F0003C0
0F0003C0
0F0003C0
0F0003C0
0F0003C0
0F0003C0
0F0003C0
0F0003C0
0F0003C0
0F0003C0
0F0003C0
0F0003C0
0F0003C0
0F0003C0
0F0003C0
0F0003C0
0F8003C0
1F8007E0
FFF03FFC
ENDCHAR
STARTCHAR 03A1
ENCODING 929
SWIDTH 562 0
DWIDTH 25 0
BBX 22 29 1 0
BITMAP
FFFF80
1FCFE0
0F01F0
0F00F8
0F00FC
0F007C
0F007C
0F007C
0F007C
0F007C
0F007C
0F00F8
0F00F8
0F01F0
0FFFE0
0F3F00
0F0000
0F0000
0F0000
0F0000
0F0000
0F0000
0F0000
0F0000
0F0000
0F0000
0F0000
1F8000
FFF000
ENDCHAR
STARTCHAR 03A3
ENCODING 931
SWIDTH 585 0
DWIDTH 26 0
BBX 24 29 1 0
BITMAP
FFFFFC
7C007C
7E000C
3F0004
1F0004
0F8004
0FC004
07E000
03E000
01F000
00F800
00FC00
007E00
003C00
001C00
003800
003000
006000
00C000
018000
030001
070002
060002
0C0006
18001E
3FFFFE
7FFFFE
FFFFFE
FFFFFE
ENDCHAR
STARTCHAR 03A4
ENCODING 932
SWIDTH 607 0
DWIDTH 27 0
BBX 25 29 1 0
BITMAP
7FFFFF80
7C1E0F80
601E0380
C01E0180
C01E0080
801E0080
001E0000
001E0000
001E0000
001E0000
001E0000
001E0000
001E0000
001E0000
001E0000
001E0000
001E0000
001E0000
001E0000
001E0000
001E0000
001E0000
001E0000
001E0000
001E0000
003E0000
003E0000
003F0000
03FFE000
ENDCHAR
STARTCHAR 03A5
ENCODING 933
SWIDTH 720 0
DWIDTH 32 0
BBX 30 29 1 0
BITMAP
FFE007FC
3F8001E0
1F8001C0
0F800180
07C00380
07C00300
03E00600
01E00600
01F00C00
00F81800
00781800
007C3000
003E7000
001E6000
001FC000
000FC000
000F8000
00078000
00078000
00078000
00078000
00078000
00078000
00078000
00078000
00078000
00078000
000FC000
007FF800
ENDCHAR
STARTCHAR 03A6
ENCODING 934
SWIDTH 720 0
DWIDTH 32 0
BBX 29 29 2 0
BITMAP
00FFF000
001F8000
000F8000
000F0000
00FFF800
078F1F00
1E0F0780
3C0F03C0
780F01E0
780F00F0
F80F00F0
F00F00F8
F00F00F8
F00F00F8
F00F00F8
F00F00F8
F00F00F8
F80F00F0
F80F00F0
780F01E0
3C0F01E0
1E0F03C0
0F0F0780
07EF3E00
007FF000
000F0000
000F8000
001FC000
00FFF000
ENDCHAR
STARTCHAR 03A7
ENCODING 935
SWIDTH 720 0
DWIDTH 32 0
BBX 32 29 0 0
BITMAP
7FFC07FC
07F001F0
03F000C0
01F00180
00F80380
00F80300
007C0600
003E0C00
003E1800
001F3800
000FB000
000FE000
0007C000
0003E000
0003E000
0003F000
0006F800
000CF800
001C7C00
00183E00
00303E00
00601F00
00C00F80
01C00F80
018007C0
030003E0
0F0003F0
1F0007F8
FFE01FFF
ENDCHAR
STARTCHAR 03A8
ENCODING 936
SWIDTH 742 0
DWIDTH 33 0
BBX 31 30 1 0
BITMAP
C0000002
707FF81C
7807C038
3807C038
3C07C078
3C07C078
3C078078
3C078078
3C078078
3C078078
3C0780F8
3E0780F8
1E0780F0
1E0781F0
0F8783E0
07E78F80
01FFFE00
00078000
00078000
00078000
00078000
00078000
00078000
00078000
0007C000
0007C000
0007C000
0007C000
000FE000
007FFC00
ENDCHAR
STARTCHAR 03A9
ENCODING 937
SWIDTH 742 0
DWIDTH 33 0
BBX 31 30 1 0
BITMAP
001FF000
00FFFE00
01F01F80
03C007C0
078003E0
0F0001F0
1F0001F0
1E0000F8
3E0000F8
3E0000F8
3E00007C
7E00007C
7E00007C
7E00007C
7E00007C
3E000078
3E0000F8
3E0000F8
1E0000F0
1F0000F0
0F0001E0
078003C0
03C00780
80F01E02
80301802
C0101806
FFF01FFE
FFF01FFE
FFF01FFE
FFF01FFE
ENDCHAR
STARTCHAR 03AA
ENCODING 938
SWIDTH 337 0
DWIDTH 15 0
BBX 13 37 1 0
BITMAP
7070
F8F0
F8F8
78F0
2060
0000
0000
0000
7FF0
0F80
0F80
0F80
0F00
0F00
0F00
0F00
0F00
0F00
0F00
0F00
0F00
0F00
0F00
0F00
0F00
0F00
0F00
0F00
0F00
0F00
0F00
0F00
0F80
0F80
0F80
1F80
FFF8
ENDCHAR
STARTCHAR 03AB
ENCODING 939
SWIDTH 720 0
DWIDTH 32 0
BBX 30 37 1 0
BITMAP
00383800
007C7C00
007C7C00
003C7800
00103000
00000000
00000000
00000000
FFE007FC
3F8001E0
1F8001C0
0F800180
07C00380
07C00300
03E00600
01E00600
01F00C00
00F81800
00781800
007C3000
003E7000
001E6000
001FC000
000FC000
000F8000
00078000
00078000
00078000
00078000
00078000
00078000
00078000
00078000
00078000
00078000
000FC000
007FF800
ENDCHAR
STARTCHAR 03AC
ENCODING 940
SWIDTH 517 0
DWIDTH 23 0
BBX 21 31 2 -1
BITMAP
007C00
007800
007000
00E000
00C000
008000
018000
000000
000000
000000
0FE1E0
1E71C0
3C31C0
781BC0
780BC0
700FC0
F00F80
F00780
F00780
F00780
F00780
F00700
F00F00
F00F00
F00F00
700F08
781F88
381DD8
3C38F0
0FF0F0
030040
ENDCHAR
STARTCHAR 03AD
ENCODING 941
SWIDTH 427 0
DWIDTH 19 0
BBX 16 31 2 -1
BITMAP
00F8
00F0
00E0
01C0
0180
0100
0300
0000
0000
0000
0FF8
3C3E
781E
701E
700C
7000
7000
3800
1C00
07F0
3C00
7800
F000
F000
F006
F00F
F00F
781F
3C1E
1FF8
0180
ENDCHAR
STARTCHAR 03AE
ENCODING 942
SWIDTH 517 0
DWIDTH 23 0
BBX 21 40 0 -10
BITMAP
001F00
001E00
001C00
001800
003000
003000
002000
000000
000000
000000
3E0FC0
7F3FE0
4F71E0
8740F0
8780F0
0700F0
0700F0
0700F0
0700F0
0700F0
0700F0
0700F0
0700F0
0700F0
0700F0
0700F0
0700F0
0700F0
0700F0
0700F0
0000F0
0000F0
0000F0
0000F0
000070
000070
000070
000070
000078
000078
ENDCHAR
STARTCHAR 03AF
ENCODING 943
SWIDTH 270 0
DWIDTH 12 0
BBX 11 31 1 -1
BITMAP
07C0
0780
0F00
0E00
0C00
1800
1000
0000
0000
0000
1E00
7E00
BE00
1E00
1E00
1E00
1E00
1E00
1E00
1E00
1E00
1E00
1E00
1E00
1E00
1E00
1E20
1E20
0F40
0FC0
0300
ENDCHAR
STARTCHAR 03B0
ENCODING 944
SWIDTH 495 0
DWIDTH 22 0
BBX 20 31 0 -1
BITMAP
001E00
003C00
003800
0E39C0
1F73E0
1F63E0
0E41C0
000000
000000
000000
7E0700
7E0380
8F01C0
8F00E0
0F00E0
0F00F0
0F00F0
0F00F0
0F00F0
0F00F0
0F00F0
0F00F0
0F00F0
0F00F0
0F00E0
0700E0
0701C0
078180
03C300
01FE00
003000
ENDCHAR
STARTCHAR 03B1
ENCODING 945
SWIDTH 517 0
DWIDTH 23 0
BBX 21 21 2 -1
BITMAP
0FE1E0
1E71C0
3C31C0
781BC0
780BC0
700FC0
F00F80
F00780
F00780
F00780
F00780
F00700
F00F00
F00F00
F00F00
700F08
781F88
381DD8
3C38F0
0FF0F0
030040
ENDCHAR
STARTCHAR 03B2
ENCODING 946
SWIDTH 517 0
DWIDTH 23 0
BBX 19 41 2 -10
BITMAP
01E000
07FC00
1E0F00
1C0700
380780
380780
780380
780380
780380
780780
780780
780700
780E00
79FC00
786E00
780780
7803C0
7803C0
7803E0
7801E0
7801E0
7801E0
7801E0
7801E0
7801E0
7801C0
7801C0
780380
7C0780
7E0F00
7BFC00
786000
780000
780000
780000
780000
780000
780000
700000
700000
F00000
ENDCHAR
STARTCHAR 03B3
ENCODING 947
SWIDTH 450 0
DWIDTH 20 0
BBX 19 30 0 -10
BITMAP
3C01E0
7E03E0
7F03C0
C703C0
838780
818780
818700
018700
018E00
00CE00
00CC00
00DC00
00D800
00D800
005000
007000
006000
006000
006000
006000
006000
00E000
00E000
00E000
01E000
01E000
01E000
01C000
01C000
008000
ENDCHAR
STARTCHAR 03B4
ENCODING 948
SWIDTH 472 0
DWIDTH 21 0
BBX 17 32 2 -1
BITMAP
03E000
0FFC00
103E00
201F00
200F00
300600
180000
0C0000
0E0000
038000
01C000
00F000
007800
07FC00
0E1E00
3C1F00
380F00
700F80
F00780
F00780
F00780
E00780
E00380
F00380
F00780
F00780
F00700
780600
780E00
3C1800
0FF000
018000
ENDCHAR
STARTCHAR 03B5
ENCODING 949
SWIDTH 427 0
DWIDTH 19 0
BBX 16 21 2 -1
BITMAP
0FF8
3C3E
781E
701E
700C
7000
7000
3800
1C00
07F0
3C00
7800
F000
F000
F006
F00F
F00F
781F
3C1E
1FF8
0180
ENDCHAR
STARTCHAR 03B6
ENCODING 950
SWIDTH 405 0
DWIDTH 18 0
BBX 16 41 2 -10
BITMAP
0400
1806
301E
303E
30FC
19F0
0F80
0600
0400
0800
1800
3000
2000
6000
6000
4000
C000
C000
C000
C000
C000
C000
C000
C000
C000
E000
E000
FC00
7FFC
7FFE
1FFF
07FF
0003
0003
0001
0003
0003
01C6
01FC
01F8
0060
ENDCHAR
STARTCHAR 03B7
ENCODING 951
SWIDTH 517 0
DWIDTH 23 0
BBX 21 30 0 -10
BITMAP
3E0FC0
7F3FE0
4F71E0
8740F0
8780F0
0700F0
0700F0
0700F0
0700F0
0700F0
0700F0
0700F0
0700F0
0700F0
0700F0
0700F0
0700F0
0700F0
0700F0
0700F0
0000F0
0000F0
0000F0
0000F0
000070
000070
000070
000070
000078
000078
ENDCHAR
STARTCHAR 03B8
ENCODING 952
SWIDTH 472 0
DWIDTH 21 0
BBX 18 32 2 -1
BITMAP
01E000
077800
0C1C00
1C0C00
380E00
380F00
780700
700700
700780
F00780
F00780
F00780
F00780
F007C0
F007C0
FFFFC0
FFFFC0
F007C0
F00780
F00780
F00780
F00780
F00780
700780
700700
780700
380E00
380E00
1C0C00
0E1800
07F000
008000
ENDCHAR
STARTCHAR 03B9
ENCODING 953
SWIDTH 270 0
DWIDTH 12 0
BBX 11 21 1 -1
BITMAP
1E00
7E00
BE00
1E00
1E00
1E00
1E00
1E00
1E00
1E00
1E00
1E00
1E00
1E00
1E00
1E00
1E20
1E20
0F40
0FC0
0300
ENDCHAR
STARTCHAR 03BA
ENCODING 954
SWIDTH 495 0
DWIDTH 22 0
BBX 22 20 1 0
BITMAP
1C01F8
7C03F8
FC0678
1C0800
1C1800
1C3000
1C6000
1CC000
1DC000
1FE000
1DF000
1CF000
1C7800
1C3C00
1C3E00
1C1F00
1C0F00
1C0780
1C07E0
1C03FC
ENDCHAR
STARTCHAR 03BB
ENCODING 955
SWIDTH 495 0
DWIDTH 22 0
BBX 21 31 1 0
BITMAP
0C0000
3E0000
3F0000
778000
418000
418000
80C000
00C000
00C000
004000
004000
006000
00E000
00E000
01E000
01F000
03F000
03F000
079000
079000
0F1800
0F1800
1E1800
1E0800
1E0C00
3C0C08
3C0E08
780718
7807F0
F003F0
F001E0
ENDCHAR
STARTCHAR 03BC
ENCODING 956
SWIDTH 540 0
DWIDTH 24 0
BBX 21 30 3 -10
BITMAP
700700
700700
700700
700700
700700
700700
700700
700700
700700
700700
700700
700700
700700
700700
700700
780700
781F08
7C3788
7FE7F0
5F83E0
660080
600000
E00000
E00000
E00000
E00000
F00000
F00000
E00000
400000
ENDCHAR
STARTCHAR 03BD
ENCODING 957
SWIDTH 450 0
DWIDTH 20 0
BBX 19 21 0 -1
BITMAP
3C01E0
FC01E0
3C01E0
1E01E0
1E01E0
0E00C0
0F00C0
070180
070180
078300
038300
038600
03C600
01CC00
01E800
01F800
00F000
00F000
00E000
006000
004000
ENDCHAR
STARTCHAR 03BE
ENCODING 958
SWIDTH 450 0
DWIDTH 20 0
BBX 17 41 2 -10
BITMAP
0C0000
180C00
307C00
30F800
19F000
0FE000
040000
0C0000
080000
080000
180000
080000
0C7F00
07FF00
07FC00
0C0000
180000
300000
600000
400000
C00000
C00000
800000
C00000
C00000
C00000
E00000
FC1800
7FFF00
3FFF80
1FFF80
03FF80
000180
000080
000080
000080
000180
006300
00FF00
00FE00
003000
ENDCHAR
STARTCHAR 03BF
ENCODING 959
SWIDTH 495 0
DWIDTH 22 0
BBX 20 21 1 -1
BITMAP
03FC00
060F00
1C0780
1C03C0
3803C0
3801E0
7801E0
7801F0
7801F0
7800F0
F800F0
7800F0
7800E0
7800E0
7C01E0
3C01C0
3E01C0
1E0380
0F8700
07FC00
006000
ENDCHAR
STARTCHAR 03C0
ENCODING 960
SWIDTH 495 0
DWIDTH 22 0
BBX 21 21 1 -1
BITMAP
0FFFF8
3FFFF8
7FFFF8
E30600
830E00
830E00
030E00
030E00
070E00
070E00
070E00
060E00
0E0E00
0E0E00
1E0E00
1E0E08
3E0F10
7C0FF0
7C0FE0
7C07E0
100100
ENDCHAR
STARTCHAR 03C1
ENCODING 961
SWIDTH 495 0
DWIDTH 22 0
BBX 19 30 2 -10
BITMAP
03FC00
0FFF00
181F80
380F80
3007C0
7003C0
7003C0
7001E0
7001E0
7001E0
7001E0
7001C0
7001C0
7001C0
7001C0
780380
780300
780600
7C0C00
77F800
70C000
700000
700000
700000
700000
700000
700000
F00000
F00000
F00000
ENDCHAR
STARTCHAR 03C2
ENCODING 962
SWIDTH 405 0
DWIDTH 18 0
BBX 15 30 2 -10
BITMAP
03FC
07FE
1E7E
1000
2000
6000
4000
C000
C000
8000
8000
8000
8000
C000
C000
E000
FE00
7FF8
3FFC
1FFE
07FE
0006
0006
0006
0006
0004
030C
03F8
03F0
0080
ENDCHAR
STARTCHAR 03C3
ENCODING 963
SWIDTH 540 0
DWIDTH 24 0
BBX 21 21 2 -1
BITMAP
01FFF8
0FFFF8
1FFFF8
3F9800
7C0C00
F80700
F00380
F00380
E001C0
E001C0
E001E0
E001E0
F001E0
F001E0
7001E0
7801C0
3803C0
1C0780
0E0F00
07FC00
006000
ENDCHAR
STARTCHAR 03C4
ENCODING 964
SWIDTH 405 0
DWIDTH 18 0
BBX 17 21 0 -1
BITMAP
0FFF80
1FFF80
3FFF80
70E000
40E000
81C000
01C000
01C000
01C000
01C000
01C000
01C000
01C000
01C000
01C000
01C200
01E200
01FE00
01FC00
00FC00
002000
ENDCHAR
STARTCHAR 03C5
ENCODING 965
SWIDTH 495 0
DWIDTH 22 0
BBX 20 21 0 -1
BITMAP
7E0700
7E0380
8F01C0
8F00E0
0F00E0
0F00F0
0F00F0
0F00F0
0F00F0
0F00F0
0F00F0
0F00F0
0F00F0
0F00F0
0F00E0
0700E0
0701C0
078180
03C300
01FE00
003000
ENDCHAR
STARTCHAR 03C6
ENCODING 966
SWIDTH 585 0
DWIDTH 26 0
BBX 23 30 1 -10
BITMAP
038FE0
0E1FF0
1C1CF8
3C187C
38183C
78381E
78381E
78381E
78380E
F8380E
78380E
78380E
78380E
78381C
78381C
3C381C
1C3838
1E3870
0738E0
03FF80
003800
003800
003800
003800
003800
003800
003800
003800
003800
003800
ENDCHAR
STARTCHAR 03C7
ENCODING 967
SWIDTH 450 0
DWIDTH 20 0
BBX 20 30 1 -10
BITMAP
3C03C0
7E03C0
FE0780
C70780
830F00
830F00
011E00
019E00
01BC00
01BC00
00F800
00F800
00F000
00F000
01E000
01E000
03E000
03E000
07E000
07A000
0F3000
0F3000
1E3000
1E1010
3C1810
3C1C30
780FE0
780FE0
F007C0
F00100
ENDCHAR
STARTCHAR 03C8
ENCODING 968
SWIDTH 630 0
DWIDTH 28 0
BBX 26 30 1 -10
BITMAP
F00C03C0
780C0780
3C0C0F00
3C0C0F00
3C0C0F00
3C0C1E00
1E0C1E00
1E0C1E00
1E0C1E00
1E0C1E00
1E0C1E00
1E0C1E00
0E0C1C00
0E0C3C00
0F0C3C00
070C3800
070C7000
038C7000
01CCE000
007F8000
000C0000
000C0000
000C0000
000C0000
000C0000
000C0000
000C0000
000C0000
000C0000
000C0000
ENDCHAR
STARTCHAR 03C9
ENCODING 969
SWIDTH 652 0
DWIDTH 29 0
BBX 26 21 2 -1
BITMAP
07C1F000
0E003C00
1C000E00
38080F00
781C0700
701C0780
F01E0780
F01E0780
F01E0380
F01E03C0
F01C03C0
F01C03C0
F01C03C0
F0080380
F0080780
F00C0780
701C0700
78160F00
3C631E00
1FC1FC00
03002000
ENDCHAR
STARTCHAR 03CA
ENCODING 970
SWIDTH 270 0
DWIDTH 12 0
BBX 12 28 0 -1
BITMAP
F0F0
F1F0
F1F0
F0F0
0000
0000
0000
0F00
3F00
5F00
0F00
0F00
0F00
0F00
0F00
0F00
0F00
0F00
0F00
0F00
0F00
0F00
0F00
0F10
0F10
07A0
07E0
0180
ENDCHAR
STARTCHAR 03CB
ENCODING 971
SWIDTH 495 0
DWIDTH 22 0
BBX 20 28 0 -1
BITMAP
078700
0F8F80
0F8F80
078700
000000
000000
000000
7E0700
7E0380
8F01C0
8F00E0
0F00E0
0F00F0
0F00F0
0F00F0
0F00F0
0F00F0
0F00F0
0F00F0
0F00F0
0F00F0
0F00E0
0700E0
0701C0
078180
03C300
01FE00
003000
ENDCHAR
STARTCHAR 03CC
ENCODING 972
SWIDTH 495 0
DWIDTH 22 0
BBX 20 31 1 -1
BITMAP
003C00
007800
007000
007000
00E000
00C000
008000
000000
000000
000000
03FC00
060F00
1C0780
1C03C0
3803C0
3801E0
7801E0
7801F0
7801F0
7800F0
F800F0
7800F0
7800E0
7800E0
7C01E0
3C01C0
3E01C0
1E0380
0F8700
07FC00
006000
ENDCHAR
STARTCHAR 03CD
ENCODING 973
SWIDTH 495 0
DWIDTH 22 0
BBX 20 31 0 -1
BITMAP
001E00
003C00
003800
003800
007000
006000
004000
000000
000000
000000
7E0700
7E0380
8F01C0
8F00E0
0F00E0
0F00F0
0F00F0
0F00F0
0F00F0
0F00F0
0F00F0
0F00F0
0F00F0
0F00F0
0F00E0
0700E0
0701C0
078180
03C300
01FE00
003000
ENDCHAR
STARTCHAR 03CE
ENCODING 974
SWIDTH 652 0
DWIDTH 29 0
BBX 26 31 2 -1
BITMAP
000F8000
000F0000
000E0000
001C0000
00180000
00180000
00100000
00000000
00000000
00000000
07C1F000
0E003C00
1C000E00
38080F00
781C0700
701C0780
F01E0780
F01E0780
F01E0380
F01E03C0
F01C03C0
F01C03C0
F01C03C0
F0080380
F0080780
F00C0780
701C0700
78160F00
3C631E00
1FC1FC00
03002000
ENDCHAR
STARTCHAR 0401
ENCODING 1025
SWIDTH 607 0
DWIDTH 27 0
BBX 25 37 1 0
BITMAP
01C1C000
01E3E000
03E3E000
01E3C000
00C08000
00000000
00000000
00000000
FFFFFE00
0F001E00
0F000600
0F000600
0F000200
0F000200
0F000000
0F000000
0F000000
0F001000
0F001000
0F001000
0F007000
0FFFF000
0F01F000
0F003000
0F001000
0F001000
0F001000
0F000000
0F000000
0F000000
0F000080
0F000100
0F000100
0F000300
0F000600
1FFFFE00
FFFFFE00
ENDCHAR
STARTCHAR 0402
ENCODING 1026
SWIDTH 742 0
DWIDTH 33 0
BBX 31 29 1 0
BITMAP
FFFFFE00
FC7C7E00
E07C0600
C07C0600
807C0200
807C0200
007C0000
007C0000
007C0000
007C3FC0
007CFFF0
007DFFF0
007F81F8
007E00FC
007C007C
007C007C
007C007E
007C003E
007C003E
007C003E
007C003E
007C003E
007C003C
007C003C
007C003C
007C0078
007C0078
00FE00F0
07FFCFC0
ENDCHAR
STARTCHAR 0403
ENCODING 1027
SWIDTH 585 0
DWIDTH 26 0
BBX 24 40 1 0
BITMAP
000F00
001E00
001E00
001C00
003800
003000
002000
000000
000000
000000
000000
FFFFFE
1F001E
0F0006
0F0002
0F0002
0F0001
0F0000
0F0000
0F0000
0F0000
0F0000
0F0000
0F0000
0F0000
0F0000
0F0000
0F0000
0F0000
0F0000
0F0000
0F0000
0F0000
0F0000
0F0000
0F0000
0F0000
0F8000
1F8000
FFF000
ENDCHAR
STARTCHAR 0404
ENCODING 1028
SWIDTH 652 0
DWIDTH 29 0
BBX 26 31 2 -1
BITMAP
003FE100
00FDFF00
03C01F00
07800F80
0F000780
1E000380
3E000180
3C000180
7C000080
78000080
F8000000
F8000000
F8000000
F8000000
FFFF0000
FFFF0000
F8000000
F8000000
F8000000
F8000000
F8000000
7C000000
7C000000
3C000040
3E000040
1F000080
0F800100
07C00600
03F01C00
00FFF000
000F0000
ENDCHAR
STARTCHAR 0405
ENCODING 1029
SWIDTH 562 0
DWIDTH 25 0
BBX 19 31 3 -1
BITMAP
07F080
1FFF80
380F80
700380
F00380
E00180
E00080
F00080
F00080
F80080
FC0000
7F0000
3FC000
1FF000
0FF800
03FE00
01FF00
007F80
001FC0
000FE0
0003E0
8001E0
8001E0
C001E0
C001E0
E001E0
E001C0
F80380
FE0F00
8FFE00
80F000
ENDCHAR
STARTCHAR 0406
ENCODING 1030
SWIDTH 337 0
DWIDTH 15 0
BBX 13 29 1 0
BITMAP
7FF0
0F80
0F80
0F80
0F00
0F00
0F00
0F00
0F00
0F00
0F00
0F00
0F00
0F00
0F00
0F00
0F00
0F00
0F00
0F00
0F00
0F00
0F00
0F00
0F80
0F80
0F80
1F80
FFF8
ENDCHAR
STARTCHAR 0407
ENCODING 1031
SWIDTH 337 0
DWIDTH 15 0
BBX 13 37 1 0
BITMAP
7070
F8F0
F8F8
78F0
2060
0000
0000
0000
7FF0
0F80
0F80
0F80
0F00
0F00
0F00
0F00
0F00
0F00
0F00
0F00
0F00
0F00
0F00
0F00
0F00
0F00
0F00
0F00
0F00
0F00
0F00
0F00
0F80
0F80
0F80
1F80
FFF8
ENDCHAR
STARTCHAR 0408
ENCODING 1032
SWIDTH 382 0
DWIDTH 17 0
BBX 16 30 1 -1
BITMAP
0FFF
01F0
00F0
00F0
00F0
00F0
00F0
00F0
00F0
00F0
00F0
00F0
00F0
00F0
00F0
00F0
00F0
00F0
00F0
00F0
00F0
00F0
00F0
00E0
60E0
F0E0
F8C0
F980
7F00
1800
ENDCHAR
STARTCHAR 0409
ENCODING 1033
SWIDTH 877 0
DWIDTH 39 0
BBX 37 29 0 0
BITMAP
03FFFFF000
00700F8000
00300F0000
00300F0000
00300F0000
00300F0000
00300F0000
00300F0000
00300F0000
00300F0000
00300F0000
00300F0000
00300F0000
00300FFC00
00300FFFC0
00300F07E0
00300F03F0
00200F01F0
00600F00F8
00600F00F8
00600F00F8
00600F00F8
00600F00F8
00C00F00F8
00C00F01F0
71C00F01F0
FF800F03E0
FF001FBF80
7E00FFFE00
ENDCHAR
STARTCHAR 040A
ENCODING 1034
SWIDTH 877 0
DWIDTH 39 0
BBX 36 29 1 0
BITMAP
FFF1FFE000
0F803F0000
0F001E0000
0F001E0000
0F001E0000
0F001E0000
0F001E0000
0F001E0000
0F001E0000
0F001E0000
0F001E0000
0F001E0000
0F001E0000
0FFFFFF800
0FFFFFFF80
0F001E0FC0
0F001E07E0
0F001E03F0
0F001E01F0
0F001E01F0
0F001E01F0
0F001E01F0
0F001E01F0
0F001E01F0
0F001E01E0
0F001E03E0
0F801E07C0
1F803F7F00
FFF1FFFC00
ENDCHAR
STARTCHAR 040B
ENCODING 1035
SWIDTH 742 0
DWIDTH 33 0
BBX 31 29 1 0
BITMAP
FFFFFE00
FC787E00
E0780600
C0780600
80780200
80780200
00780000
00780000
00780000
00783F80
0078FFC0
0079FFE0
007B83E0
007E01F0
007C01F0
007C00F0
007800F0
007800F0
007800F0
007800F0
007800F0
007800F0
007800F0
007800F0
007C00F0
007C00F0
007C01F0
00FE01F8
07FF8FFE
ENDCHAR
STARTCHAR 040C
ENCODING 1036
SWIDTH 675 0
DWIDTH 30 0
BBX 28 39 1 0
BITMAP
0003C000
00078000
00070000
00070000
000E0000
000C0000
00080000
00100000
00000000
000003C0
FFF00FE0
1F801FE0
0F003BE0
0F0030C0
0F006000
0F006000
0F006000
0F00C000
0F00C000
0F018000
0F018000
0F030000
0F0E0000
0FFC0000
0FFE0000
0F1F0000
0F0F8000
0F078000
0F07C000
0F03E000
0F01F000
0F00F000
0F00F800
0F007C00
0F003E00
0F001E00
0F801F00
1F800FC0
FFF007F0
ENDCHAR
STARTCHAR 040D
ENCODING 1037
SWIDTH 720 0
DWIDTH 32 0
BBX 30 39 1 0
BITMAP
003C0000
001E0000
001E0000
000E0000
00070000
00030000
00010000
00000000
00000000
00000000
FFF03FFC
1F8007E0
0F0003C0
0F0003C0
0F0003C0
0F0007C0
0F000FC0
0F001BC0
0F0013C0
0F0033C0
0F0063C0
0F00C3C0
0F0083C0
0F0183C0
0F0303C0
0F0603C0
0F0C03C0
0F0803C0
0F1803C0
0F3003C0
0F6003C0
0F4003C0
0FC003C0
0F8003C0
0F0003C0
0F0003C0
0F0003C0
1F8007E0
FFF03FFC
ENDCHAR
STARTCHAR 040E
ENCODING 1038
SWIDTH 697 0
DWIDTH 31 0
BBX 29 40 1 -1
BITMAP
01C00600
01E00F00
01E01E00
01F01E00
00F03C00
003FF800
00000000
00000000
00000000
00000000
FFE007F8
3F8001E0
1F0001C0
0F800180
0F800180
07C00380
03C00300
03E00300
01E00600
01F00600
00F80C00
00F80C00
007C0C00
003C1800
003E1800
001E3000
001F3000
000FA000
000FE000
0007E000
0003C000
0003C000
00018000
00018000
00030000
01070000
03EE0000
03FC0000
03F80000
00C00000
ENDCHAR
STARTCHAR 040F
ENCODING 1039
SWIDTH 720 0
DWIDTH 32 0
BBX 30 37 1 -8
BITMAP
FFF03FFC
1F8007E0
0F0003C0
0F0003C0
0F0003C0
0F0003C0
0F0003C0
0F0003C0
0F0003C0
0F0003C0
0F0003C0
0F0003C0
0F0003C0
0F0003C0
0F0003C0
0F0003C0
0F0003C0
0F0003C0
0F0003C0
0F0003C0
0F0003C0
0F0003C0
0F0003C0
0F0003C0
0F0003C0
0F0003C0
0F0003C0
1FFFFFE0
FFFFFFFC
003FE000
000FC000
00078000
00030000
00030000
00030000
00010000
00010000
ENDCHAR
STARTCHAR 0410
ENCODING 1040
SWIDTH 720 0
DWIDTH 32 0
BBX 32 30 0 0
BITMAP
00018000
00018000
00038000
0003C000
0003C000
0007E000
0007E000
000DE000
000DF000
0018F000
0018F800
00187800
00307C00
00303C00
00603C00
00603E00
00C01E00
00C01F00
00C00F00
01FFFF00
01800F80
03000780
030007C0
060003C0
060003E0
060001E0
0C0001F0
1C0001F0
3E0003F8
FFC00FFF
ENDCHAR
STARTCHAR 0411
ENCODING 1041
SWIDTH 585 0
DWIDTH 26 0
BBX 23 29 1 0
BITMAP
7FFFF8
1F0078
0F0018
0F0008
0F0008
0F0008
0F0000
0F0000
0F0000
0F0000
0F0000
0F0000
0F0000
0FFF80
0FDFF0
0F01F8
0F00FC
0F007C
0F003E
0F003E
0F003E
0F003E
0F003E
0F003E
0F007C
0F00F8
0F01F8
1FFFE0
FFFF80
ENDCHAR
STARTCHAR 0412
ENCODING 1042
SWIDTH 675 0
DWIDTH 30 0
BBX 26 29 1 0
BITMAP
FFFFF000
1F00FC00
0F003E00
0F001F00
0F000F00
0F000F80
0F000F80
0F000F80
0F000F80
0F000F80
0F001F00
0F001E00
0F007C00
0FFFF800
0FFFF800
0F007E00
0F001F80
0F000F80
0F000FC0
0F0007C0
0F0007C0
0F0007C0
0F0007C0
0F0007C0
0F000F80
0F001F80
0F003F00
1FFFFC00
FFFFE000
ENDCHAR
STARTCHAR 0413
ENCODING 1043
SWIDTH 585 0
DWIDTH 26 0
BBX 24 29 1 0
BITMAP
FFFFFE
1F001E
0F0006
0F0002
0F0002
0F0001
0F0000
0F0000
0F0000
0F0000
0F0000
0F0000
0F0000
0F0000
0F0000
0F0000
0F0000
0F0000
0F0000
0F0000
0F0000
0F0000
0F0000
0F0000
0F0000
0F0000
0F8000
1F8000
FFF000
ENDCHAR
STARTCHAR 0414
ENCODING 1044
SWIDTH 675 0
DWIDTH 30 0
BBX 28 37 1 -8
BITMAP
07FFFFF0
00E00F80
00600F00
00600F00
00600F00
00600F00
00600F00
00600F00
00600F00
00600F00
00600F00
00600F00
00400F00
00C00F00
00C00F00
00C00F00
00C00F00
00C00F00
01800F00
01800F00
01800F00
03800F00
03000F00
03000F00
06000F00
0E000F00
1C000F80
3FFFFF80
FFFFFFF0
FE0007F0
F00000F0
E0000070
C0000030
C0000030
80000010
80000010
80000010
ENDCHAR
STARTCHAR 0415
ENCODING 1045
SWIDTH 607 0
DWIDTH 27 0
BBX 25 29 1 0
BITMAP
FFFFFE00
0F001E00
0F000600
0F000600
0F000200
0F000200
0F000000
0F000000
0F000000
0F001000
0F001000
0F001000
0F007000
0FFFF000
0F01F000
0F003000
0F001000
0F001000
0F001000
0F000000
0F000000
0F000000
0F000080
0F000100
0F000100
0F000300
0F000600
1FFFFE00
FFFFFE00
ENDCHAR
STARTCHAR 0416
ENCODING 1046
SWIDTH 900 0
DWIDTH 40 0
BBX 39 30 0 0
BITMAP
1C00000038
7F03FFC0FE
7F807E01FE
7DC03C03BE
30C03C030C
00403C0600
00603C0600
00603C0600
00603C0C00
00303C0C00
00303C0C00
00303C1800
00183C1800
000C3C3000
000FFFE000
000FFFF000
001E3C7000
001E3C7800
003C3C3C00
003C3C3C00
00783C1E00
00703C1E00
00F03C0F00
01E03C0F80
01E03C0780
03C03C03C0
07C03C03E0
0F803C01E0
1F807E01F8
FF03FFC0FE
ENDCHAR
STARTCHAR 0417
ENCODING 1047
SWIDTH 495 0
DWIDTH 22 0
BBX 19 31 1 -1
BITMAP
41FC00
7FFF00
7C0F80
7007C0
7003C0
6003E0
6003E0
4003E0
4003E0
0003C0
0003C0
000780
000F00
003E00
03F800
00FE00
001F80
0007C0
0007C0
0003E0
0003E0
0003E0
0003E0
0003E0
8003E0
C003E0
6007C0
300FC0
1E3F00
07FE00
00F000
ENDCHAR
STARTCHAR 0418
ENCODING 1048
SWIDTH 720 0
DWIDTH 32 0
BBX 30 29 1 0
BITMAP
FFF03FFC
1F8007E0
0F0003C0
0F0003C0
0F0003C0
0F0007C0
0F000FC0
0F001BC0
0F0013C0
0F0033C0
0F0063C0
0F00C3C0
0F0083C0
0F0183C0
0F0303C0
0F0603C0
0F0C03C0
0F0803C0
0F1803C0
0F3003C0
0F6003C0
0F4003C0
0FC003C0
0F8003C0
0F0003C0
0F0003C0
0F0003C0
1F8007E0
FFF03FFC
ENDCHAR
STARTCHAR 0419
ENCODING 1049
SWIDTH 720 0
DWIDTH 32 0
BBX 30 39 1 0
BITMAP
01C00E00
01C00E00
01E01E00
01E01E00
00F03C00
007FF800
00000000
00000000
00000000
00000000
FFF03FFC
1F8007E0
0F0003C0
0F0003C0
0F0003C0
0F0007C0
0F000FC0
0F001BC0
0F0013C0
0F0033C0
0F0063C0
0F00C3C0
0F0083C0
0F0183C0
0F0303C0
0F0603C0
0F0C03C0
0F0803C0
0F1803C0
0F3003C0
0F6003C0
0F4003C0
0FC003C0
0F8003C0
0F0003C0
0F0003C0
0F0003C0
1F8007E0
FFF03FFC
ENDCHAR
STARTCHAR 041A
ENCODING 1050
SWIDTH 675 0
DWIDTH 30 0
BBX 28 30 1 0
BITMAP
000003C0
FFF00FE0
1F801FE0
0F003BE0
0F0030C0
0F006000
0F006000
0F006000
0F00C000
0F00C000
0F018000
0F018000
0F030000
0F0E0000
0FFC0000
0FFE0000
0F1F0000
0F0F8000
0F078000
0F07C000
0F03E000
0F01F000
0F00F000
0F00F800
0F007C00
0F003E00
0F001E00
0F801F00
1F800FC0
FFF007F0
ENDCHAR
STARTCHAR 041B
ENCODING 1051
SWIDTH 675 0
DWIDTH 30 0
BBX 29 29 0 0
BITMAP
03FFFFF8
007007C0
00300780
00300780
00300780
00300780
00300780
00300780
00300780
00300780
00300780
00300780
00300780
00300780
00300780
00300780
00300780
00300780
00200780
00600780
00600780
00600780
00600780
00E00780
00C00780
71C00780
FF800780
7F000FC0
7E007FF8
ENDCHAR
STARTCHAR 041C
ENCODING 1052
SWIDTH 900 0
DWIDTH 40 0
BBX 38 29 1 0
BITMAP
FF800007F8
1F80000FC0
0F80000FC0
0FC0001F80
0FC0001F80
0FE0001F80
0DE0003780
0DF0003780
0CF0006780
0CF8006780
0C7800C780
0C7C00C780
0C3C018780
0C3E018780
0C3E038780
0C1E030780
0C1F030780
0C0F060780
0C0F860780
0C078C0780
0C07CC0780
0C03D80780
0C03F80780
0C01F00780
0C01F00780
0C00F007C0
0C00E007C0
1E00E00FC0
FFC0407FFC
ENDCHAR
STARTCHAR 041D
ENCODING 1053
SWIDTH 720 0
DWIDTH 32 0
BBX 30 29 1 0
BITMAP
FFF03FFC
1F8007C0
0F0003C0
0F0003C0
0F0003C0
0F0003C0
0F0003C0
0F0003C0
0F0003C0
0F0003C0
0F0003C0
0F0003C0
0F0003C0
0FFFFFC0
0FFFFFC0
0F0003C0
0F0003C0
0F0003C0
0F0003C0
0F0003C0
0F0003C0
0F0003C0
0F0003C0
0F0003C0
0F0003C0
0F0003C0
0F0003C0
1F8007E0
FFF03FFC
ENDCHAR
STARTCHAR 041E
ENCODING 1054
SWIDTH 720 0
DWIDTH 32 0
BBX 28 31 2 -1
BITMAP
003FC000
00FFF800
03C03C00
07001E00
0E000F00
1E000780
3C0003C0
7C0003E0
780003E0
780001E0
F80001F0
F80001F0
F80001F0
F80001F0
F80001F0
F80001F0
F80001F0
F80001F0
F80001F0
F80001F0
F80001F0
780001E0
7C0001E0
3C0003C0
3E0003C0
1E000780
0F000F00
07801E00
03E07800
00FFF000
000F0000
ENDCHAR
STARTCHAR 041F
ENCODING 1055
SWIDTH 720 0
DWIDTH 32 0
BBX 30 29 1 0
BITMAP
FFFFFFFC
1F0003E0
0F0003C0
0F0003C0
0F0003C0
0F0003C0
0F0003C0
0F0003C0
0F0003C0
0F0003C0
0F0003C0
0F0003C0
0F0003C0
0F0003C0
0F0003C0
0F0003C0
0F0003C0
0F0003C0
0F0003C0
0F0003C0
0F0003C0
0F0003C0
0F0003C0
0F0003C0
0F0003C0
0F0003C0
0F8003C0
1F8007E0
FFF03FFC
ENDCHAR
STARTCHAR 0420
ENCODING 1056
SWIDTH 562 0
DWIDTH 25 0
BBX 22 29 1 0
BITMAP
FFFF80
1FCFE0
0F01F0
0F00F8
0F00FC
0F007C
0F007C
0F007C
0F007C
0F007C
0F007C
0F00F8
0F00F8
0F01F0
0FFFE0
0F3F00
0F0000
0F0000
0F0000
0F0000
0F0000
0F0000
0F0000
0F0000
0F0000
0F0000
0F0000
1F8000
FFF000
ENDCHAR
STARTCHAR 0421
ENCODING 1057
SWIDTH 675 0
DWIDTH 30 0
BBX 26 31 2 -1
BITMAP
003FC080
00FFF980
03C01F80
07800780
0F000380
1E000180
3C000180
3C000080
7C000080
78000000
F8000000
F8000000
F8000000
F8000000
F8000000
F8000000
F8000000
F8000000
F8000000
F8000000
F8000000
78000000
7C000000
7C000040
3E000080
1F000180
0F800300
07C00600
03FC3800
00FFF000
000E0000
ENDCHAR
STARTCHAR 0422
ENCODING 1058
SWIDTH 607 0
DWIDTH 27 0
BBX 25 29 1 0
BITMAP
7FFFFF80
7C1E0F80
601E0380
C01E0180
C01E0080
801E0080
001E0000
001E0000
001E0000
001E0000
001E0000
001E0000
001E0000
001E0000
001E0000
001E0000
001E0000
001E0000
001E0000
001E0000
001E0000
001E0000
001E0000
001E0000
001E0000
003E0000
003E0000
003F0000
03FFE000
ENDCHAR
STARTCHAR 0423
ENCODING 1059
SWIDTH 697 0
DWIDTH 31 0
BBX 29 30 1 -1
BITMAP
FFE007F8
3F8001E0
1F0001C0
0F800180
0F800180
07C00380
03C00300
03E00300
01E00600
01F00600
00F80C00
00F80C00
007C0C00
003C1800
003E1800
001E3000
001F3000
000FA000
000FE000
0007E000
0003C000
0003C000
00018000
00018000
00030000
01070000
03EE0000
03FC0000
03F80000
00C00000
ENDCHAR
STARTCHAR 0424
ENCODING 1060
SWIDTH 787 0
DWIDTH 35 0
BBX 31 29 2 0
BITMAP
003FF800
0007C000
0007C000
0007C000
00FFFF00
07FFFFC0
1F07C1F0
3E07C078
7C07C07C
7807C03C
F807C01E
F007C01E
F007C01E
F007C01E
F007C01E
F007C01E
F007C01E
F007C01E
7807C03E
7807C03C
3C07C078
1E07C0F8
0F07C1E0
07FFFFC0
007FFC00
0007C000
0007C000
0007E000
007FFC00
ENDCHAR
STARTCHAR 0425
ENCODING 1061
SWIDTH 720 0
DWIDTH 32 0
BBX 32 29 0 0
BITMAP
7FFC07FC
07F001F0
03F000C0
01F00180
00F80380
00F80300
007C0600
003E0C00
003E1800
001F3800
000FB000
000FE000
0007C000
0003E000
0003E000
0003F000
0006F800
000CF800
001C7C00
00183E00
00303E00
00601F00
00C00F80
01C00F80
018007C0
030003E0
0F0003F0
1F0007F8
FFE01FFF
ENDCHAR
STARTCHAR 0426
ENCODING 1062
SWIDTH 720 0
DWIDTH 32 0
BBX 30 37 1 -8
BITMAP
FFF03FFC
1F8007E0
0F0003C0
0F0003C0
0F0003C0
0F0003C0
0F0003C0
0F0003C0
0F0003C0
0F0003C0
0F0003C0
0F0003C0
0F0003C0
0F0003C0
0F0003C0
0F0003C0
0F0003C0
0F0003C0
0F0003C0
0F0003C0
0F0003C0
0F0003C0
0F0003C0
0F0003C0
0F0003C0
0F0003C0
0F0003C0
1FFFFFE0
FFFFFFFC
000001FC
0000007C
0000001C
0000001C
0000000C
00000004
00000004
00000004
ENDCHAR
STARTCHAR 0427
ENCODING 1063
SWIDTH 652 0
DWIDTH 29 0
BBX 28 29 0 0
BITMAP
FFF0FFF0
0F801F00
0F000F00
0F000F00
0F000F00
0F000F00
0F000F00
0F000F00
0F000F00
0F000F00
0F000F00
0F000F00
0F800F00
0F800F00
0F803F00
07E3FF00
03FFCF00
01FE0F00
00000F00
00000F00
00000F00
00000F00
00000F00
00000F00
00000F00
00000F00
00001F00
00001F80
0001FFF0
ENDCHAR
STARTCHAR 0428
ENCODING 1064
SWIDTH 1012 0
DWIDTH 45 0
BBX 43 29 1 0
BITMAP
7FE0FFC0FFC0
1F801F003E00
0F001F003E00
0F001F001E00
0F001F001E00
0F001E001E00
0F001E001E00
0F001E001E00
0F001E001E00
0F001E001E00
0F001E001E00
0F001E001E00
0F001E001E00
0F001E001E00
0F001E001E00
0F001E001E00
0F001E001E00
0F001E001E00
0F001E001E00
0F001E001E00
0F001E001E00
0F001E001E00
0F001E001E00
0F001E001E00
0F001F001E00
0F001F001E00
0F001F001E00
1FFFFFFFFF00
FFFFFFFFFFE0
ENDCHAR
STARTCHAR 0429
ENCODING 1065
SWIDTH 1012 0
DWIDTH 45 0
BBX 43 37 1 -8
BITMAP
7FE0FFC0FFC0
1F801F003E00
0F001F003E00
0F001F001E00
0F001F001E00
0F001E001E00
0F001E001E00
0F001E001E00
0F001E001E00
0F001E001E00
0F001E001E00
0F001E001E00
0F001E001E00
0F001E001E00
0F001E001E00
0F001E001E00
0F001E001E00
0F001E001E00
0F001E001E00
0F001E001E00
0F001E001E00
0F001E001E00
0F001E001E00
0F001E001E00
0F001F001E00
0F001F001E00
0F001F001E00
1FFFFFFFFF00
FFFFFFFFFFE0
000000000FE0
0000000003E0
0000000001E0
0000000000E0
0000000000E0
000000000060
000000000060
000000000020
ENDCHAR
STARTCHAR 042A
ENCODING 1066
SWIDTH 697 0
DWIDTH 31 0
BBX 29 29 1 0
BITMAP
FFFFC000
F03E0000
C03C0000
C03C0000
803C0000
803C0000
003C0000
003C0000
003C0000
003C0000
003C0000
003C0000
003C0000
003FFE00
003EFF80
003C07E0
003C03F0
003C01F0
003C00F8
003C00F8
003C00F8
003C00F8
003C00F8
003C00F0
003C01F0
003C03E0
003C07C0
007FFF80
03FFFE00
ENDCHAR
STARTCHAR 042B
ENCODING 1067
SWIDTH 877 0
DWIDTH 39 0
BBX 37 29 1 0
BITMAP
FFF0007FF0
1F80000F80
0F00000F80
0F00000780
0F00000780
0F00000780
0F00000780
0F00000780
0F00000780
0F00000780
0F00000780
0F00000780
0F00000780
0FFF800780
0FDFF00780
0F01F80780
0F00FC0780
0F007C0780
0F003E0780
0F003E0780
0F003E0780
0F003E0780
0F003E0780
0F003E0780
0F007C0780
0F00FC0F80
0F01F80F80
1FFFE00FC0
FFFF80FFF8
ENDCHAR
STARTCHAR 042C
ENCODING 1068
SWIDTH 585 0
DWIDTH 26 0
BBX 23 29 1 0
BITMAP
FFF000
1F8000
0F0000
0F0000
0F0000
0F0000
0F0000
0F0000
0F0000
0F0000
0F0000
0F0000
0F0000
0FFF80
0FDFF0
0F01F8
0F00FC
0F007C
0F003E
0F003E
0F003E
0F003E
0F003E
0F003E
0F007C
0F00F8
0F01F8
1FFFE0
FFFF80
ENDCHAR
STARTCHAR 042D
ENCODING 1069
SWIDTH 652 0
DWIDTH 29 0
BBX 26 31 2 -1
BITMAP
41FE0000
7FCFC000
7E01E000
7800F000
70007800
60003C00
40001E00
40001F00
40000F00
80000F80
00000F80
00000F80
000007C0
000007C0
007FFFC0
007FFFC0
000007C0
000007C0
00000F80
00000F80
00000F80
00000F80
00001F00
00001F00
80003E00
C0003C00
60007800
3001F000
0E07E000
07FF8000
00780000
ENDCHAR
STARTCHAR 042E
ENCODING 1070
SWIDTH 1035 0
DWIDTH 46 0
BBX 43 31 1 -1
BITMAP
0000007F8000
FFF003FFE000
0F8007007800
0F001E003C00
0F003C001E00
0F0078000F00
0F0078000F80
0F00F0000780
0F00F00007C0
0F01F00007C0
0F01F00003E0
0F01E00003E0
0F03E00003E0
0F03E00003E0
0FFFE00003E0
0FFFE00003E0
0F03E00003E0
0F03E00003E0
0F01E00003E0
0F01F00003E0
0F01F00003C0
0F01F00007C0
0F00F0000780
0F00F8000780
0F0078000F00
0F003C000E00
0F003E001E00
0F800F003C00
1F800780F000
FFF001FFC000
0000001C0000
ENDCHAR
STARTCHAR 042F
ENCODING 1071
SWIDTH 675 0
DWIDTH 30 0
BBX 29 29 0 0
BITMAP
001FFFF0
007F1F80
00F80F80
01F00F80
03E00F80
03E00F80
03E00F80
03E00F80
03E00F80
03E00F80
01F00F80
01F00F80
00F80F80
003F0F80
000FFF80
00078F80
000F8F80
001F0F80
003E0F80
003C0F80
007C0F80
00F80F80
00F00F80
01E00F80
03E00F80
07C00F80
0F800F80
3F800FC0
FF00FFF8
ENDCHAR
STARTCHAR 0430
ENCODING 1072
SWIDTH 450 0
DWIDTH 20 0
BBX 18 20 2 0
BITMAP
1FF000
387800
703C00
703C00
F01C00
F01C00
601C00
007C00
03DC00
0E1C00
1C1C00
701C00
F01C00
E01C00
E01C00
E01C00
F03C40
F8DE80
FF9F80
7E1E00
ENDCHAR
STARTCHAR 0431
ENCODING 1073
SWIDTH 517 0
DWIDTH 23 0
BBX 19 32 2 -1
BITMAP
000020
007FE0
03FFC0
07FF80
0FFE00
1C0000
180000
300000
200000
600000
400000
43FC00
CE1E00
DC0F00
B80780
B803C0
F003C0
F003E0
F001E0
F001E0
F001E0
F001E0
F001E0
F001E0
7801C0
7801C0
7801C0
3C0380
1E0300
0F0E00
07FC00
00C000
ENDCHAR
STARTCHAR 0432
ENCODING 1074
SWIDTH 472 0
DWIDTH 21 0
BBX 18 20 1 0
BITMAP
FFF800
3FFE00
1E0F00
1E0780
1E0780
1E0780
1E0780
1E0F80
1E1E00
1FF800
1E7F00
1E0780
1E03C0
1E03C0
1E03C0
1E03C0
1E03C0
1E07C0
3F3F00
FFFC00
ENDCHAR
STARTCHAR 0433
ENCODING 1075
SWIDTH 405 0
DWIDTH 18 0
BBX 17 20 1 0
BITMAP
FFFF00
3FFF00
1E0100
1E0180
1E0080
1E0080
1E0000
1E0000
1E0000
1E0000
1E0000
1E0000
1E0000
1E0000
1E0000
1E0000
1E0000
1E0000
3E0000
FFC000
ENDCHAR
STARTCHAR 0434
ENCODING 1076
SWIDTH 517 0
DWIDTH 23 0
BBX 21 26 1 -6
BITMAP
1FFFF8
07FFC0
0303C0
0303C0
0303C0
0303C0
0303C0
0303C0
0303C0
0203C0
0203C0
0203C0
0603C0
0603C0
0403C0
0C03C0
0803C0
1803C0
300FC0
FFFFF8
F00078
C00038
800018
800018
800008
000008
ENDCHAR
STARTCHAR 0435
ENCODING 1077
SWIDTH 450 0
DWIDTH 20 0
BBX 16 21 2 -1
BITMAP
07F8
1C7C
301E
701F
600F
E00F
FFFF
FFFF
E000
E000
E000
E000
F000
F001
F801
7C03
7E06
3FFC
1FFC
0FF0
0180
ENDCHAR
STARTCHAR 0436
ENCODING 1078
SWIDTH 697 0
DWIDTH 31 0
BBX 30 20 0 0
BITMAP
3C3FF078
7E0FC0FC
7F0781FC
330781B8
01838300
01838200
00838600
00C38400
00739C00
007FFC00
01F39E00
01E38F00
03C38F80
03C38780
078387C0
078383C0
0F0781E0
0F0781E0
1E07C0F0
FE3FF0FC
ENDCHAR
STARTCHAR 0437
ENCODING 1079
SWIDTH 405 0
DWIDTH 18 0
BBX 15 21 1 -1
BITMAP
7FF0
7078
603C
603C
403C
403C
003C
0078
01E0
07C0
00F8
003C
001E
001E
001E
001E
001E
C03C
707C
1FF0
0300
ENDCHAR
STARTCHAR 0438
ENCODING 1080
SWIDTH 540 0
DWIDTH 24 0
BBX 22 20 1 0
BITMAP
FFC7FC
3E03E0
1E01E0
1E01E0
1E01E0
1E03E0
1E07E0
1E0DE0
1E19E0
1E31E0
1E21E0
1E41E0
1EC1E0
1F81E0
1F01E0
1E01E0
1E01E0
1E01E0
3E01E0
FF8FFC
ENDCHAR
STARTCHAR 0439
ENCODING 1081
SWIDTH 540 0
DWIDTH 24 0
BBX 22 29 1 1
BITMAP
0E01C0
0F03C0
0F03C0
078780
03FE00
007000
000000
000000
000000
FFC7FC
3E03E0
1E01E0
1E01E0
1E01E0
1E03E0
1E07E0
1E0DE0
1E19E0
1E31E0
1E21E0
1E41E0
1EC1E0
1F81E0
1F01E0
1E01E0
1E01E0
1E01E0
3E01E0
FF8FFC
ENDCHAR
STARTCHAR 043A
ENCODING 1082
SWIDTH 495 0
DWIDTH 22 0
BBX 20 20 1 0
BITMAP
FFC1E0
3E07E0
1E07E0
1E0CC0
1E0800
1E0800
1E1800
1E3000
1E6000
1FF000
1E7800
1E7800
1E3C00
1E3E00
1E1E00
1E0F00
1E0F00
1E0780
3E07C0
FFC3F0
ENDCHAR
STARTCHAR 043B
ENCODING 1083
SWIDTH 495 0
DWIDTH 22 0
BBX 21 20 0 0
BITMAP
1FFFF8
03FFE0
0301C0
0301C0
0301C0
0301C0
0301C0
0301C0
0301C0
0301C0
0301C0
0301C0
0301C0
0301C0
0301C0
0301C0
6301C0
F603C0
FE03E0
7C1FF8
ENDCHAR
STARTCHAR 043C
ENCODING 1084
SWIDTH 630 0
DWIDTH 28 0
BBX 26 20 1 0
BITMAP
FE001FC0
3F001F00
1F003E00
1F002E00
1F802E00
1F806E00
1BC04E00
1BC0CE00
19E08E00
19E18E00
18E18E00
18F10E00
18F30E00
187A0E00
187E0E00
183C0E00
183C0E00
181C1E00
38181F00
FF087FC0
ENDCHAR
STARTCHAR 043D
ENCODING 1085
SWIDTH 540 0
DWIDTH 24 0
BBX 22 20 1 0
BITMAP
FFCFFC
3E03E0
1E01E0
1E01E0
1E01E0
1E01E0
1E01E0
1E01E0
1E01E0
1FFFE0
1E01E0
1E01E0
1E01E0
1E01E0
1E01E0
1E01E0
1E01E0
1E01E0
3E01E0
FFCFFC
ENDCHAR
STARTCHAR 043E
ENCODING 1086
SWIDTH 495 0
DWIDTH 22 0
BBX 20 21 1 -1
BITMAP
03FC00
060F00
1C0780
1C03C0
3803C0
3801E0
7801E0
7801F0
7801F0
7800F0
F800F0
7800F0
7800E0
7800E0
7C01E0
3C01C0
3E01C0
1E0380
0F8700
07FC00
006000
ENDCHAR
STARTCHAR 043F
ENCODING 1087
SWIDTH 540 0
DWIDTH 24 0
BBX 22 20 1 0
BITMAP
FFFFFC
3FFFE0
1E01E0
1E01E0
1E01E0
1E01E0
1E01E0
1E01E0
1E01E0
1E01E0
1E01E0
1E01E0
1E01E0
1E01E0
1E01E0
1E01E0
1E01E0
1E01E0
3E01E0
FFCFFC
ENDCHAR
STARTCHAR 0440
ENCODING 1088
SWIDTH 495 0
DWIDTH 22 0
BBX 21 30 0 -10
BITMAP
0E3F80
7E7FC0
FEFFE0
1F83E0
1F01F0
1E00F0
1E00F0
1E00F8
1E0078
1E0078
1E0078
1E0078
1E0070
1E0070
1E0070
1E00E0
1E00E0
1F01C0
1F8380
1EFF00
1E1800
1E0000
1E0000
1E0000
1E0000
1E0000
1E0000
1E0000
3F8000
FFC000
ENDCHAR
STARTCHAR 0441
ENCODING 1089
SWIDTH 450 0
DWIDTH 20 0
BBX 16 21 2 -1
BITMAP
07F8
1C3C
381E
701F
701F
E00E
E000
E000
E000
E000
E000
E000
F001
F001
F803
7C02
7E0E
3FFC
1FF8
0FF0
0180
ENDCHAR
STARTCHAR 0442
ENCODING 1090
SWIDTH 427 0
DWIDTH 19 0
BBX 19 20 0 0
BITMAP
7FFFC0
7FFFE0
60E060
40E020
C0E020
80E020
00E000
00E000
00E000
00E000
00E000
00E000
00E000
00E000
00E000
00F000
00F000
00F000
01F000
07FE00
ENDCHAR
STARTCHAR 0443
ENCODING 1091
SWIDTH 495 0
DWIDTH 22 0
BBX 22 30 0 -10
BITMAP
FFC1FC
3E0070
1E0070
1E0060
0F0060
0F00C0
0780C0
0780C0
03C180
03C180
01E300
01E300
00F300
00F600
007E00
007C00
003C00
003800
001800
001800
003000
003000
002000
006000
006000
38C000
7F8000
7F8000
3E0000
080000
ENDCHAR
STARTCHAR 0444
ENCODING 1092
SWIDTH 652 0
DWIDTH 29 0
BBX 25 41 2 -10
BITMAP
000C0000
003C0000
01FC0000
003C0000
001C0000
001C0000
001C0000
001C0000
001C0000
001C0000
001C0000
0FDDF800
1C7F1C00
383C0E00
781C0E00
701C0F00
701C0700
F01C0780
F01C0780
F01C0780
F01C0780
F01C0780
F01C0780
F01C0780
F01C0780
701C0700
701C0700
781C0E00
383C0E00
1C7E1C00
0FDDF800
021C6000
001C0000
001C0000
001C0000
001C0000
001C0000
001C0000
003C0000
007F0000
01FFC000
ENDCHAR
STARTCHAR 0445
ENCODING 1093
SWIDTH 495 0
DWIDTH 22 0
BBX 21 20 1 0
BITMAP
FF8FE0
3E0780
1E0700
0F0600
0F8C00
079800
03D000
03F000
01E000
00F000
00F800
01F800
033C00
063E00
041E00
0C0F00
180780
3007C0
7807E0
FC1FF8
ENDCHAR
STARTCHAR 0446
ENCODING 1094
SWIDTH 540 0
DWIDTH 24 0
BBX 22 26 1 -6
BITMAP
FFCFFC
3E03E0
1E01E0
1E01E0
1E01E0
1E01E0
1E01E0
1E01E0
1E01E0
1E01E0
1E01E0
1E01E0
1E01E0
1E01E0
1E01E0
1E01E0
1E01E0
1E01E0
3F87E0
FFFFFC
00007C
00001C
00000C
000004
000004
000004
ENDCHAR
STARTCHAR 0447
ENCODING 1095
SWIDTH 495 0
DWIDTH 22 0
BBX 20 20 1 0
BITMAP
FF9FF0
3E07C0
3C0380
3C0380
3C0380
3C0380
3C0380
3C0380
3C0380
3C0780
1FFF80
0FE380
000380
000380
000380
000380
000380
0003C0
0007C0
003FF0
ENDCHAR
STARTCHAR 0448
ENCODING 1096
SWIDTH 765 0
DWIDTH 34 0
BBX 32 20 1 0
BITMAP
FFDFF9FF
3E03E07C
1E03C078
1E03C038
1E03C038
1E03C038
1E03C038
1E03C038
1E03C038
1E03C038
1E03C038
1E03C038
1E03C038
1E03C038
1E03C038
1E03C038
1E03C038
1E03C038
3F87F0FC
FFFFFFFF
ENDCHAR
STARTCHAR 0449
ENCODING 1097
SWIDTH 765 0
DWIDTH 34 0
BBX 32 26 1 -6
BITMAP
FFDFF9FF
3E03E07C
1E03C078
1E03C038
1E03C038
1E03C038
1E03C038
1E03C038
1E03C038
1E03C038
1E03C038
1E03C038
1E03C038
1E03C038
1E03C038
1E03C038
1E03C038
1E03C038
3F87F0FC
FFFFFFFF
0000000F
00000003
00000001
00000001
00000001
00000001
ENDCHAR
STARTCHAR 044A
ENCODING 1098
SWIDTH 517 0
DWIDTH 23 0
BBX 22 20 0 0
BITMAP
7FFC00
7FE000
61C000
41C000
C1C000
81C000
01C000
01C000
01C000
01FFC0
01C3F0
01C0F8
01C078
01C07C
01C07C
01C07C
01C078
03C0F8
03F7F0
0FFF80
ENDCHAR
STARTCHAR 044B
ENCODING 1099
SWIDTH 675 0
DWIDTH 30 0
BBX 28 20 1 0
BITMAP
FFC03FF0
3E0007C0
1E000780
1E000780
1E000780
1E000780
1E000780
1E000780
1E000780
1FFC0780
1E7F0780
1E0F8780
1E07C780
1E03C780
1E03C780
1E03C780
1E078780
1E0F8780
3F3F0780
FFF83FF0
ENDCHAR
STARTCHAR 044C
ENCODING 1100
SWIDTH 450 0
DWIDTH 20 0
BBX 18 20 1 0
BITMAP
FFC000
3E0000
1E0000
1E0000
1E0000
1E0000
1E0000
1E0000
1E0000
1FFC00
1E7F00
1E0F80
1E07C0
1E03C0
1E03C0
1E03C0
1E0780
1E0F80
3F3F00
FFF800
ENDCHAR
STARTCHAR 044D
ENCODING 1101
SWIDTH 427 0
DWIDTH 19 0
BBX 17 21 1 -1
BITMAP
7FE000
787800
603C00
601E00
401E00
400F00
000F00
000F00
000F80
03FF80
000F80
000F00
000F00
000F00
000F00
000E00
801E00
401C00
207800
1FE000
030000
ENDCHAR
STARTCHAR 044E
ENCODING 1102
SWIDTH 742 0
DWIDTH 33 0
BBX 31 21 1 -1
BITMAP
FFC07F80
3E00C1E0
1E0380F0
1E030078
1E070078
1E07003C
1E0F003C
1E0F003C
1E0F003E
1FFF001E
1E1F001E
1E0F001E
1E0F001C
1E0F001C
1E0F803C
1E078038
1E07C038
1E03C070
1E01F0E0
FFC0FF80
00000C00
ENDCHAR
STARTCHAR 044F
ENCODING 1103
SWIDTH 450 0
DWIDTH 20 0
BBX 19 20 0 0
BITMAP
01FFE0
07FF80
0F0780
1E0700
1E0700
1E0700
1E0700
1F0700
0F8700
03E700
00FF00
01E700
03C700
03C700
078700
0F0700
1E0700
1E0780
3C0F80
F83FE0
ENDCHAR
STARTCHAR 0451
ENCODING 1105
SWIDTH 450 0
DWIDTH 20 0
BBX 16 30 2 -1
BITMAP
0C1C
1E3E
1E3E
1E3E
0C1C
0000
0000
0000
0000
07F8
1C7C
301E
701F
600F
E00F
FFFF
FFFF
E000
E000
E000
E000
F000
F001
F801
7C03
7E06
3FFC
1FFC
0FF0
0180
ENDCHAR
STARTCHAR 0452
ENCODING 1106
SWIDTH 472 0
DWIDTH 21 0
BBX 19 41 0 -10
BITMAP
020000
1E0000
7E0000
1E0000
0E0000
0E0000
FFFF00
0E0000
0E0000
0E0000
0E0000
0E3F00
0E7F80
0EC780
0F83C0
0F03C0
0E03C0
0E01E0
0E01E0
0E01E0
0E01E0
0E01E0
0E01E0
0E01E0
0E01E0
0E01E0
0E01E0
0E01E0
1F01E0
1F01C0
7FC1C0
0003C0
0003C0
000380
000380
000700
000700
000E00
001C00
007000
008000
ENDCHAR
STARTCHAR 0453
ENCODING 1107
SWIDTH 405 0
DWIDTH 18 0
BBX 17 30 1 0
BITMAP
00F000
00F000
01E000
01C000
018000
030000
020000
000000
000000
000000
FFFF00
3FFF00
1E0100
1E0180
1E0080
1E0080
1E0000
1E0000
1E0000
1E0000
1E0000
1E0000
1E0000
1E0000
1E0000
1E0000
1E0000
1E0000
3E0000
FFC000
ENDCHAR
STARTCHAR 0454
ENCODING 1108
SWIDTH 427 0
DWIDTH 19 0
BBX 16 21 2 -1
BITMAP
07FE
1E1E
3C06
7806
7802
F002
F000
F000
F000
FFC0
F000
F000
F000
F000
F000
7000
7801
3802
1E06
07F8
00C0
ENDCHAR
STARTCHAR 0455
ENCODING 1109
SWIDTH 382 0
DWIDTH 17 0
BBX 14 21 2 -1
BITMAP
1FF0
3070
6030
E030
E010
E010
F800
7C00
7F00
3FC0
0FF0
03F8
00F8
807C
803C
C03C
C018
E038
F030
FFE0
0300
ENDCHAR
STARTCHAR 0456
ENCODING 1110
SWIDTH 270 0
DWIDTH 12 0
BBX 10 31 1 0
BITMAP
0E00
1F00
1F00
0E00
0400
0000
0000
0000
0000
0000
0000
0E00
7E00
FE00
1E00
0E00
0E00
0E00
0E00
0E00
0E00
0E00
0E00
0E00
0E00
0E00
0E00
0E00
0E00
1F00
7FC0
ENDCHAR
STARTCHAR 0457
ENCODING 1111
SWIDTH 270 0
DWIDTH 12 0
BBX 12 29 0 0
BITMAP
7070
F8F0
F8F0
F0F0
6060
0000
0000
0000
0000
0700
3F00
7F00
0F00
0700
0700
0700
0700
0700
0700
0700
0700
0700
0700
0700
0700
0700
0700
0F80
3FE0
ENDCHAR
STARTCHAR 0458
ENCODING 1112
SWIDTH 270 0
DWIDTH 12 0
BBX 12 41 -3 -10
BITMAP
00E0
01F0
01F0
00E0
0040
0000
0000
0000
0000
0000
0000
00E0
03E0
07E0
01E0
00E0
00E0
00E0
00E0
00E0
00E0
00E0
00E0
00E0
00E0
00E0
00E0
00E0
00E0
00E0
00E0
00E0
00E0
00E0
00E0
00E0
00C0
E1C0
F980
FE00
3000
ENDCHAR
STARTCHAR 0459
ENCODING 1113
SWIDTH 720 0
DWIDTH 32 0
BBX 31 20 0 0
BITMAP
07FFFE00
01FFF000
0180F000
0080F000
0080F000
0080F000
0080F000
0080F000
0080F000
0080FFE0
0080F3F8
0080F07C
0080F03E
0080F01E
0080F01E
0080F01E
6180F03E
F900F07C
FF01F9F8
7E07FFE0
ENDCHAR
STARTCHAR 045A
ENCODING 1114
SWIDTH 720 0
DWIDTH 32 0
BBX 30 20 1 0
BITMAP
FFDFFC00
3E03E000
1E01E000
1E01C000
1E01C000
1E01C000
1E01C000
1E01C000
1E01C000
1FFFFF80
1E01C7F0
1E01C0F8
1E01C078
1E01C07C
1E01C03C
1E01C03C
1E01C078
1E01C0F8
3E03F3E0
FFDFFF80
ENDCHAR
STARTCHAR 045B
ENCODING 1115
SWIDTH 495 0
DWIDTH 22 0
BBX 22 31 0 0
BITMAP
020000
1E0000
FE0000
1E0000
1E0000
0E0000
FFFF00
0E0000
0E0000
0E0000
0E0000
0E1F80
0E7FC0
0EE3C0
0F81E0
0F01E0
0E01E0
0E01E0
0E01E0
0E01E0
0E01E0
0E01E0
0E01E0
0E01E0
0E01E0
0E01E0
0E01E0
0E01E0
1E01E0
1F01F0
7FCFFC
ENDCHAR
STARTCHAR 045C
ENCODING 1116
SWIDTH 495 0
DWIDTH 22 0
BBX 20 30 1 0
BITMAP
003C00
007800
007000
007000
00E000
00C000
008000
000000
000000
000000
FFC1E0
3E07E0
1E07E0
1E0CC0
1E0800
1E0800
1E1800
1E3000
1E6000
1FF000
1E7800
1E7800
1E3C00
1E3E00
1E1E00
1E0F00
1E0F00
1E0780
3E07C0
FFC3F0
ENDCHAR
STARTCHAR 045D
ENCODING 1117
SWIDTH 540 0
DWIDTH 24 0
BBX 22 30 1 0
BITMAP
03E000
01E000
00E000
006000
007000
003000
001000
000000
000000
000000
FFC7FC
3E03E0
1E01E0
1E01E0
1E01E0
1E03E0
1E07E0
1E0DE0
1E19E0
1E31E0
1E21E0
1E41E0
1EC1E0
1F81E0
1F01E0
1E01E0
1E01E0
1E01E0
3E01E0
FF8FFC
ENDCHAR
STARTCHAR 045E
ENCODING 1118
SWIDTH 495 0
DWIDTH 22 0
BBX 22 39 0 -9
BITMAP
0700E0
0F01E0
0781C0
078380
03FF00
003800
000000
000000
000000
FFC1FC
3E0070
1E0070
1E0060
0F0060
0F00C0
0780C0
0780C0
03C180
03C180
01E300
01E300
00F300
00F600
007E00
007C00
003C00
003800
001800
001800
003000
003000
002000
006000
006000
38C000
7F8000
7F8000
3E0000
080000
ENDCHAR
STARTCHAR 045F
ENCODING 1119
SWIDTH 540 0
DWIDTH 24 0
BBX 22 26 1 -6
BITMAP
FFCFFC
3E03E0
1E01E0
1E01E0
1E01E0
1E01E0
1E01E0
1E01E0
1E01E0
1E01E0
1E01E0
1E01E0
1E01E0
1E01E0
1E01E0
1E01E0
1E01E0
1E01E0
3F07E0
FFFFFC
00FC00
007800
003000
003000
002000
002000
ENDCHAR
STARTCHAR 0490
ENCODING 1168
SWIDTH 450 0
DWIDTH 20 0
BBX 18 35 1 0
BITMAP
000040
000040
000040
000040
0000C0
000FC0
FFFFC0
1F0000
0F0000
0F0000
0F0000
0F0000
0F0000
0F0000
0F0000
0F0000
0F0000
0F0000
0F0000
0F0000
0F0000
0F0000
0F0000
0F0000
0F0000
0F0000
0F0000
0F0000
0F0000
0F0000
0F0000
0F0000
0F8000
1F8000
FFF000
ENDCHAR
STARTCHAR 0491
ENCODING 1169
SWIDTH 360 0
DWIDTH 16 0
BBX 14 24 1 0
BITMAP
0004
0004
0004
000C
FFFC
3FFC
1E00
1E00
1E00
1E00
1E00
1E00
1E00
1E00
1E00
1E00
1E00
1E00
1E00
1E00
1E00
1E00
3E00
FFC0
ENDCHAR
STARTCHAR 0492
ENCODING 1170
SWIDTH 585 0
DWIDTH 26 0
BBX 24 29 1 0
BITMAP
FFFFFE
1F000E
0F0006
0F0002
0F0002
0F0001
0F0000
0F0000
0F0000
0F0000
0F0000
0F0000
0F0000
FFFF80
0F0000
0F0000
0F0000
0F0000
0F0000
0F0000
0F0000
0F0000
0F0000
0F0000
0F0000
0F0000
0F8000
1F8000
FFF000
ENDCHAR
STARTCHAR 0493
ENCODING 1171
SWIDTH 405 0
DWIDTH 18 0
BBX 17 20 1 0
BITMAP
FFFF00
3FFF00
1E0100
1E0180
1E0080
1E0080
1E0000
1E0000
1E0000
FFE000
1E0000
1E0000
1E0000
1E0000
1E0000
1E0000
1E0000
1E0000
3E0000
FFC000
ENDCHAR
STARTCHAR 0496
ENCODING 1174
SWIDTH 900 0
DWIDTH 40 0
BBX 39 38 0 -8
BITMAP
1C00000038
7F03FFC0FE
7F807E01FE
7DC03C03BE
30C03C030C
00403C0600
00603C0600
00603C0600
00603C0C00
00303C0C00
00303C0C00
00303C1800
00183C1800
000C3C3000
000FFFE000
000FFFE000
001E3CF000
001E3C7800
003C3C3C00
003C3C3C00
00783C1E00
00703C1E00
00F03C0F00
01E03C0F80
01E03C0780
03C03C03C0
07C03C03E0
0F803C01F0
1F807E01F8
FF03FFC0FE
000000003E
000000000E
0000000006
0000000006
0000000002
0000000002
0000000002
0000000002
ENDCHAR
STARTCHAR 0497
ENCODING 1175
SWIDTH 697 0
DWIDTH 31 0
BBX 30 26 0 -6
BITMAP
3C3FF078
7E0FC0FC
7F0781FC
33078138
01838300
01838200
00838600
00C38400
00739C00
007FFC00
01F39E00
01E38F00
03C38F80
03C38780
078387C0
078383C0
0F0781E0
0F0781E0
1E07C0F0
FE3FF0FC
0000001C
0000000C
00000004
00000004
00000004
00000004
ENDCHAR
STARTCHAR 049A
ENCODING 1178
SWIDTH 675 0
DWIDTH 30 0
BBX 28 38 1 -8
BITMAP
000003C0
FFF00FE0
1F801FE0
0F003BE0
0F0030C0
0F006000
0F006000
0F006000
0F00C000
0F00C000
0F018000
0F018000
0F030000
0F0E0000
0FFC0000
0FFE0000
0F1F0000
0F0F8000
0F078000
0F03C000
0F03E000
0F01F000
0F00F000
0F00F800
0F007C00
0F003C00
0F003E00
0F801F00
1F800FC0
FFF007F0
000001F0
00000070
00000030
00000010
00000010
00000010
00000010
00000010
ENDCHAR
STARTCHAR 049B
ENCODING 1179
SWIDTH 495 0
DWIDTH 22 0
BBX 20 25 1 -6
BITMAP
FFC1E0
3E07E0
1E07E0
1E0CC0
1E0800
1E0800
1E1800
1E3000
1E6000
1FF000
1E7800
1E7C00
1E3C00
1E3E00
1E1E00
1E0F00
1E0F00
1E0780
3E07C0
FFC3F0
000070
000030
000010
000010
000010
ENDCHAR
STARTCHAR 049C
ENCODING 1180
SWIDTH 675 0
DWIDTH 30 0
BBX 28 30 1 0
BITMAP
000003C0
FFF00FE0
1F801FE0
0F003BE0
0F0030C0
0F006000
0F186000
0F186000
0F18C000
0F18C000
0F198000
0F198000
0F1B0000
0F1E0000
0FFC0000
0FFE0000
0F1F0000
0F1F8000
0F1F8000
0F1FC000
0F1BE000
0F19F000
0F18F000
0F18F800
0F187C00
0F003C00
0F001E00
0F801F00
1F800FC0
FFF007F0
ENDCHAR
STARTCHAR 049D
ENCODING 1181
SWIDTH 495 0
DWIDTH 22 0
BBX 20 20 1 0
BITMAP
FFC1E0
3E07E0
1E07E0
1E6CC0
1E6800
1E6800
1E7800
1E7000
1E6000
1FF000
1E7800
1E7C00
1E7C00
1E7E00
1E7E00
1E6F00
1E6F00
1E0780
3E07C0
FFC3F0
ENDCHAR
STARTCHAR 04A2
ENCODING 1186
SWIDTH 720 0
DWIDTH 32 0
BBX 30 37 1 -8
BITMAP
FFF03FFC
1F8007C0
0F0003C0
0F0003C0
0F0003C0
0F0003C0
0F0003C0
0F0003C0
0F0003C0
0F0003C0
0F0003C0
0F0003C0
0F0003C0
0FFFFFC0
0FFFFFC0
0F0003C0
0F0003C0
0F0003C0
0F0003C0
0F0003C0
0F0003C0
0F0003C0
0F0003C0
0F0003C0
0F0003C0
0F0003C0
0F0003C0
1F8007E0
FFF03FFC
000001FC
0000007C
0000001C
0000000C
0000000C
00000004
00000004
00000004
ENDCHAR
STARTCHAR 04A3
ENCODING 1187
SWIDTH 540 0
DWIDTH 24 0
BBX 22 26 1 -6
BITMAP
FFCFFC
3E03E0
1E01E0
1E01E0
1E01E0
1E01E0
1E01E0
1E01E0
1E01E0
1FFFE0
1E01E0
1E01E0
1E01E0
1E01E0
1E01E0
1E01E0
1E01E0
1E01E0
3E01E0
FFCFFC
00007C
00001C
00000C
000004
000004
000004
ENDCHAR
STARTCHAR 04AE
ENCODING 1198
SWIDTH 720 0
DWIDTH 32 0
BBX 30 29 1 0
BITMAP
FFE007FC
3F8001E0
1F8001C0
0F800180
07C00380
07C00300
03E00600
01E00600
01F00C00
00F81800
00781800
007C3000
003E7000
001E6000
001FC000
000FC000
000F8000
00078000
00078000
00078000
00078000
00078000
00078000
00078000
00078000
00078000
00078000
000FC000
007FF800
ENDCHAR
STARTCHAR 04AF
ENCODING 1199
SWIDTH 495 0
DWIDTH 22 0
BBX 22 30 0 -10
BITMAP
FFC1FC
3F0070
1E0060
1E0060
0F00C0
0F00C0
0700C0
078180
078180
03C100
03C300
01C300
01E600
01E600
00F400
00FC00
007800
007800
007800
007800
007800
007800
007800
007800
007800
007800
007800
007800
01FE00
07FF80
ENDCHAR
STARTCHAR 04B0
ENCODING 1200
SWIDTH 720 0
DWIDTH 32 0
BBX 30 29 1 0
BITMAP
FFE007FC
3F8001E0
1F8001C0
0F800180
07C00380
07C00300
03E00600
01E00600
01F00C00
00F81800
00781800
007C3000
003E7000
001E6000
001FC000
000FC000
000F8000
07FFFF80
07FFFF80
00078000
00078000
00078000
00078000
00078000
00078000
00078000
00078000
000FC000
007FF800
ENDCHAR
STARTCHAR 04B1
ENCODING 1201
SWIDTH 495 0
DWIDTH 22 0
BBX 22 30 0 -10
BITMAP
FFC1FC
3F0070
1E0060
1E0060
0F00C0
0F00C0
0700C0
078180
078180
03C100
03C300
01C300
01E600
01E600
00F400
00FC00
007800
007800
FFFFFC
FFFFFC
007800
007800
007800
007800
007800
007800
007800
007800
01FE00
07FF80
ENDCHAR
STARTCHAR 04B2
ENCODING 1202
SWIDTH 720 0
DWIDTH 32 0
BBX 32 37 0 -8
BITMAP
7FFC07FC
07F000F0
03F000C0
01F00180
00F80380
00F80300
007C0600
003E0C00
003E1800
001F3800
000FB000
000FE000
0007C000
0003E000
0003E000
0003F000
0006F800
000CF800
001C7C00
00183E00
00303E00
00601F00
00C00F80
01C00F80
018007C0
030003E0
0F0003F0
1F0007F8
FFE01FFF
0000007F
0000001F
0000000F
00000007
00000007
00000003
00000003
00000001
ENDCHAR
STARTCHAR 04B3
ENCODING 1203
SWIDTH 495 0
DWIDTH 22 0
BBX 21 26 1 -6
BITMAP
FF8FE0
3E0780
1E0700
0F0600
0F8C00
079800
03D000
03F000
01E000
00F000
00F800
01F800
033C00
063E00
041E00
0C0F00
180780
3007C0
7807E0
FC1FF8
0000F8
000038
000018
000008
000008
000008
ENDCHAR
STARTCHAR 04B8
ENCODING 1208
SWIDTH 652 0
DWIDTH 29 0
BBX 28 29 0 0
BITMAP
FFF0FFF0
0F801F00
0F000F00
0F000F00
0F000F00
0F000F00
0F060F00
0F060F00
0F060F00
0F060F00
0F060F00
0F060F00
0F060F00
0F860F00
0F863F00
07E7FF00
03FFCF00
01FE0F00
00060F00
00060F00
00060F00
00060F00
00060F00
00000F00
00000F00
00000F00
00001F00
00001F80
0001FFF0
ENDCHAR
STARTCHAR 04B9
ENCODING 1209
SWIDTH 495 0
DWIDTH 22 0
BBX 20 20 1 0
BITMAP
FF9FF0
3E07C0
3C0380
3C0380
3C0380
3C6380
3C6380
3C6380
3C6380
3C6780
1FFF80
0FE380
006380
006380
006380
000380
000380
000380
0007C0
003FF0
ENDCHAR
STARTCHAR 04BA
ENCODING 1210
SWIDTH 652 0
DWIDTH 29 0
BBX 28 29 1 0
BITMAP
FFF00000
1F800000
0F000000
0F000000
0F000000
0F000000
0F000000
0F000000
0F000000
0F000000
0F000000
0F0FF800
0F7FFE00
0FE03E00
0F801F00
0F001F00
0F001F00
0F000F00
0F000F00
0F000F00
0F000F00
0F000F00
0F000F00
0F000F00
0F000F00
0F000F00
0F801F00
1F801F80
FFF1FFF0
ENDCHAR
STARTCHAR 04BB
ENCODING 1211
SWIDTH 495 0
DWIDTH 22 0
BBX 22 31 0 0
BITMAP
060000
1E0000
FE0000
1E0000
1E0000
0E0000
0E0000
0E0000
0E0000
0E0000
0E0000
0E1F80
0E7FC0
0EE3C0
0F81E0
0F01E0
0E01E0
0E01E0
0E01E0
0E01E0
0E01E0
0E01E0
0E01E0
0E01E0
0E01E0
0E01E0
0E01E0
0E01E0
0E01E0
1F01F0
7FCFFC
ENDCHAR
STARTCHAR 04D8
ENCODING 1240
SWIDTH 720 0
DWIDTH 32 0
BBX 29 31 1 -1
BITMAP
041FE000
07FDF800
07C01E00
0F800F00
0F000780
0E0003C0
0C0003E0
0C0001E0
080001F0
080000F0
000000F8
000000F8
000000F8
000000F8
FFFFFFF8
FFFFFFF8
F80000F8
F80000F8
F80000F8
F80000F8
7C0000F8
7C0001F0
7C0001F0
3E0001E0
1E0003E0
1F0007C0
0F800780
07C01F00
01F03E00
007FF800
000F8000
ENDCHAR
STARTCHAR 04D9
ENCODING 1241
SWIDTH 450 0
DWIDTH 20 0
BBX 16 21 2 -1
BITMAP
0FF0
1FF8
3FFC
707E
403E
C01F
800F
000F
0007
0007
0007
0007
0007
FFFF
F007
F006
F806
780C
3C18
1FF0
0300
ENDCHAR
STARTCHAR 04E8
ENCODING 1256
SWIDTH 720 0
DWIDTH 32 0
BBX 28 31 2 -1
BITMAP
003FC000
00FFF800
03C03C00
07000F00
0E000F00
1E000780
3C0003C0
7C0003E0
780003E0
780001E0
F80001F0
F80001F0
F80001F0
F80001F0
FFFFFFF0
FFFFFFF0
F80001F0
F80001F0
F80001F0
F80001F0
F80001F0
780001E0
7C0003E0
3C0003C0
3E0003C0
1E000780
0F000F00
07801E00
03E07C00
00FFF000
000F0000
ENDCHAR
STARTCHAR 04E9
ENCODING 1257
SWIDTH 495 0
DWIDTH 22 0
BBX 20 21 1 -1
BITMAP
03FC00
0E0F00
1C0780
1803C0
3803C0
3801E0
7801E0
7801F0
7801F0
7FFFF0
F800F0
7800F0
7800E0
7800E0
7C01E0
3C01C0
3E01C0
1E0380
0F8700
07FC00
006000
ENDCHAR
STARTCHAR 05B0
ENCODING 1456
SWIDTH 337 0
DWIDTH 15 0
BBX 3 9 6 -10
BITMAP
C0
E0
E0
C0
00
E0
E0
E0
40
ENDCHAR
STARTCHAR 05B1
ENCODING 1457
SWIDTH 337 0
DWIDTH 15 0
BBX 13 9 1 -10
BITMAP
E738
E738
E738
4210
0000
1838
3C38
3C38
0010
ENDCHAR
STARTCHAR 05B2
ENCODING 1458
SWIDTH 337 0
DWIDTH 15 0
BBX 13 8 1 -10
BITMAP
FE30
FE78
FE78
0030
0000
0030
0078
0078
ENDCHAR
STARTCHAR 05B3
ENCODING 1459
SWIDTH 337 0
DWIDTH 15 0
BBX 14 9 0 -10
BITMAP
FF8C
FF9C
FF9C
0C08
0C00
1C1C
1C1C
0C1C
0008
ENDCHAR
STARTCHAR 05B4
ENCODING 1460
SWIDTH 337 0
DWIDTH 15 0
BBX 3 4 6 -7
BITMAP
C0
E0
E0
C0
ENDCHAR
STARTCHAR 05B5
ENCODING 1461
SWIDTH 337 0
DWIDTH 15 0
BBX 9 4 3 -7
BITMAP
6300
F780
F780
6300
ENDCHAR
STARTCHAR 05B6
ENCODING 1462
SWIDTH 337 0
DWIDTH 15 0
BBX 9 9 3 -10
BITMAP
6300
F780
F780
6300
0000
1C00
1C00
1C00
0800
ENDCHAR
STARTCHAR 05B7
ENCODING 1463
SWIDTH 337 0
DWIDTH 15 0
BBX 9 2 3 -6
BITMAP
FF80
FF80
ENDCHAR
STARTCHAR 05B8
ENCODING 1464
SWIDTH 337 0
DWIDTH 15 0
BBX 9 8 3 -10
BITMAP
FF80
FF80
FF80
0800
1C00
1C00
1C00
0800
ENDCHAR
STARTCHAR 05B9
ENCODING 1465
SWIDTH 337 0
DWIDTH 15 0
BBX 3 4 6 26
BITMAP
40
E0
E0
E0
ENDCHAR
STARTCHAR 05BA
ENCODING 1466
SWIDTH 337 0
DWIDTH 15 0
BBX 3 4 6 26
BITMAP
40
E0
E0
E0
ENDCHAR
STARTCHAR 05BB
ENCODING 1467
SWIDTH 337 0
DWIDTH 15 0
BBX 13 9 1 -10
BITMAP
E000
E000
E000
4700
0700
0738
0038
0038
0010
ENDCHAR
STARTCHAR 05BC
ENCODING 1468
SWIDTH 337 0
DWIDTH 15 0
BBX 3 4 6 9
BITMAP
E0
E0
E0
40
ENDCHAR
STARTCHAR 05BD
ENCODING 1469
SWIDTH 337 0
DWIDTH 15 0
BBX 3 8 6 -10
BITMAP
E0
E0
E0
E0
E0
E0
E0
E0
ENDCHAR
STARTCHAR 05BE
ENCODING 1470
SWIDTH 360 0
DWIDTH 16 0
BBX 12 5 2 18
BITMAP
FFF0
FFF0
FFF0
FFF0
FFF0
ENDCHAR
STARTCHAR 05BF
ENCODING 1471
SWIDTH 337 0
DWIDTH 15 0
BBX 9 3 3 26
BITMAP
FF80
FF80
FF80
ENDCHAR
STARTCHAR 05C0
ENCODING 1472
SWIDTH 292 0
DWIDTH 13 0
BBX 3 27 5 -2
BITMAP
E0
E0
E0
E0
E0
E0
E0
E0
E0
E0
E0
E0
E0
E0
E0
E0
E0
E0
E0
E0
E0
E0
E0
E0
E0
E0
E0
ENDCHAR
STARTCHAR 05C1
ENCODING 1473
SWIDTH 337 0
DWIDTH 15 0
BBX 3 4 15 26
BITMAP
40
E0
E0
60
ENDCHAR
STARTCHAR 05C2
ENCODING 1474
SWIDTH 337 0
DWIDTH 15 0
BBX 3 4 -3 26
BITMAP
40
E0
E0
E0
ENDCHAR
STARTCHAR 05C3
ENCODING 1475
SWIDTH 270 0
DWIDTH 12 0
BBX 5 24 4 -1
BITMAP
F0
F8
F8
F0
00
00
00
00
00
00
00
00
00
00
00
00
00
00
00
F0
F8
F8
F0
20
ENDCHAR
STARTCHAR 05D0
ENCODING 1488
SWIDTH 472 0
DWIDTH 21 0
BBX 18 25 2 0
BITMAP
401000
401800
E03E00
E03F80
F01FC0
F81FC0
7C07C0
7E0600
3F0400
1F8C00
0FC800
1FC800
33F800
61F800
60F800
E0FC00
E07E00
F03F00
F01F80
780F80
7807C0
7C03C0
3C01C0
3C01C0
FC0080
ENDCHAR
STARTCHAR 05D1
ENCODING 1489
SWIDTH 450 0
DWIDTH 20 0
BBX 18 24 1 0
BITMAP
600000
7FF800
7FFE00
7FFF00
7FFF00
3FFF00
000700
000380
000380
000380
000380
000380
000380
000300
000300
000300
000300
000300
000200
000200
7FFFC0
7FFFC0
FFFFC0
FFFFC0
ENDCHAR
STARTCHAR 05D2
ENCODING 1490
SWIDTH 337 0
DWIDTH 15 0
BBX 13 25 1 0
BITMAP
2000
3000
7F00
7F80
7FC0
3FC0
1FC0
01C0
0080
0080
0080
0080
0080
00C0
00C0
00C0
00E0
01E0
0170
0770
3E38
FE38
FC18
FC18
FC18
ENDCHAR
STARTCHAR 05D3
ENCODING 1491
SWIDTH 427 0
DWIDTH 19 0
BBX 16 24 1 -1
BITMAP
6000
7FFE
7FFF
FFFF
7FFF
3FFF
0006
000C
0008
0018
0018
0018
0038
0038
0038
0038
0038
0038
0038
0038
0038
0038
0038
0030
ENDCHAR
STARTCHAR 05D4
ENCODING 1492
SWIDTH 472 0
DWIDTH 21 0
BBX 17 25 2 -1
BITMAP
C00000
FFFF00
FFFF80
FFFF80
FFFF80
7FFF80
000100
000100
000300
000300
000200
000600
000700
000700
300700
700700
600700
E00700
E00700
E00300
E00300
E00300
E00300
E00600
800000
ENDCHAR
STARTCHAR 05D5
ENCODING 1493
SWIDTH 270 0
DWIDTH 12 0
BBX 9 24 1 1
BITMAP
6000
7E00
FF00
7F80
7F80
3F80
0380
0180
0180
0180
0180
0180
0180
0180
0180
0180
0180
0180
0180
0180
0180
0180
0180
0100
ENDCHAR
STARTCHAR 05D6
ENCODING 1494
SWIDTH 292 0
DWIDTH 13 0
BBX 9 25 2 -1
BITMAP
4000
C000
FF00
FF80
FF80
FF80
7F80
0800
0800
1800
1800
1800
1800
1800
1800
1800
1800
1C00
1C00
1C00
1C00
1C00
1C00
1C00
1800
ENDCHAR
STARTCHAR 05D7
ENCODING 1495
SWIDTH 472 0
DWIDTH 21 0
BBX 17 25 2 -1
BITMAP
400000
FFFF00
FFFF80
FFFF80
FFFF80
7FFF80
100180
300100
200300
600300
600300
600300
600300
600700
600700
600700
600300
700300
700380
700380
700380
700380
600300
600300
800000
ENDCHAR
STARTCHAR 05D8
ENCODING 1496
SWIDTH 472 0
DWIDTH 21 0
BBX 18 25 1 0
BITMAP
400000
600000
7C0F00
FE1F80
FE3F80
7E3F80
3E7FC0
1061C0
1040C0
1080C0
308040
300040
300040
300040
3000C0
3000C0
3000C0
180080
180080
180180
1C0180
1FFF00
1FFF00
0FFF00
0FFE00
ENDCHAR
STARTCHAR 05D9
ENCODING 1497
SWIDTH 270 0
DWIDTH 12 0
BBX 9 15 1 10
BITMAP
4000
6000
7E00
FF00
7F80
7F80
3F80
0380
0180
0180
0180
0100
0300
0200
0400
ENDCHAR
STARTCHAR 05DA
ENCODING 1498
SWIDTH 450 0
DWIDTH 20 0
BBX 17 31 1 -8
BITMAP
600000
7FFF00
7FFF80
FFFF80
7FFF80
3FFF80
000300
000200
000200
000200
000200
000300
000300
000300
000300
000300
000300
000300
000300
000300
000300
000300
000300
000300
000300
000300
000300
000300
000300
000300
000300
ENDCHAR
STARTCHAR 05DB
ENCODING 1499
SWIDTH 427 0
DWIDTH 19 0
BBX 16 24 1 0
BITMAP
6000
7FF0
7FF8
7FFC
7FFE
3FFE
000F
0007
0003
0003
0003
0003
0001
0003
0003
0003
0003
0003
0007
003E
7FFE
7FFC
FFF8
FFE0
ENDCHAR
STARTCHAR 05DC
ENCODING 1500
SWIDTH 427 0
DWIDTH 19 0
BBX 17 33 0 0
BITMAP
400000
F00000
F80000
380000
100000
100000
100000
300000
300000
300000
3FFE00
3FFF80
3FFF80
3FFF80
1FFF80
000180
000180
000180
000180
000180
000180
000180
000300
000600
000C00
001800
003000
006000
006000
00C000
00C000
00E000
00C000
ENDCHAR
STARTCHAR 05DD
ENCODING 1501
SWIDTH 517 0
DWIDTH 23 0
BBX 18 24 2 0
BITMAP
600000
FFFE00
FFFF80
FFFF80
FFFFC0
7FFFC0
0C03C0
1801C0
3000C0
3000C0
6000C0
6000C0
6000C0
6000C0
6000C0
6000C0
6000C0
6000C0
6000C0
6000C0
7FFFC0
7FFFC0
7FFFC0
7FFFC0
ENDCHAR
STARTCHAR 05DE
ENCODING 1502
SWIDTH 495 0
DWIDTH 22 0
BBX 18 24 2 1
BITMAP
C00000
F83800
FC3C00
FC3E00
FC7F00
3CFF00
07CF80
060380
0C0180
180180
180080
300080
2000C0
6000C0
600080
400080
C00080
C00080
C00080
C00180
C3FF80
C3FF00
87FF00
87FF00
ENDCHAR
STARTCHAR 05DF
ENCODING 1503
SWIDTH 270 0
DWIDTH 12 0
BBX 9 31 1 -7
BITMAP
6000
7F00
FF80
7F80
7F80
3F80
0180
0180
0100
0300
0300
0300
0300
0300
0300
0300
0300
0300
0300
0300
0300
0300
0300
0300
0300
0300
0300
0300
0300
0300
0300
ENDCHAR
STARTCHAR 05E0
ENCODING 1504
SWIDTH 315 0
DWIDTH 14 0
BBX 11 24 1 1
BITMAP
3000
3F80
7FC0
3FC0
3FC0
0FC0
00C0
00C0
00C0
00C0
0080
0080
0080
0080
0080
00C0
00C0
00C0
00C0
00C0
FFE0
FFE0
FFE0
FFE0
ENDCHAR
STARTCHAR 05E1
ENCODING 1505
SWIDTH 472 0
DWIDTH 21 0
BBX 17 24 2 0
BITMAP
400000
FFF000
FFFC00
FFFE00
FFFF00
7FFF00
300700
200380
600180
400180
400180
400180
C00180
C00180
C00180
C00180
E00180
600180
700300
780700
3FFF00
3FFE00
1FFE00
0FF800
ENDCHAR
STARTCHAR 05E2
ENCODING 1506
SWIDTH 450 0
DWIDTH 20 0
BBX 18 26 1 -1
BITMAP
400800
601800
7C1F00
7E1FC0
7F1FC0
7F1FC0
3E0780
080180
080180
080100
080300
0C0200
0E0200
0F0600
070400
030C00
010C00
010C00
010C00
011C00
01FC00
7FF800
7FF800
7FF000
7F8000
C00000
ENDCHAR
STARTCHAR 05E3
ENCODING 1507
SWIDTH 450 0
DWIDTH 20 0
BBX 17 31 1 -8
BITMAP
300000
7FF800
7FFE00
7FFF00
7FFF00
3FFF00
100700
200300
200300
600300
600300
780100
FE0180
FE0180
7E0180
600180
000180
000180
000180
000180
000180
000180
000180
000180
000180
000180
000180
000180
000180
000180
000180
ENDCHAR
STARTCHAR 05E4
ENCODING 1508
SWIDTH 450 0
DWIDTH 20 0
BBX 16 24 2 0
BITMAP
6000
7FE0
7FF8
7FFC
7FFC
3FFE
200E
4006
4006
E002
FC03
FC03
FC03
EC03
0003
0002
0002
0006
000E
007E
7FFC
FFFC
FFF8
FFC0
ENDCHAR
STARTCHAR 05E5
ENCODING 1509
SWIDTH 472 0
DWIDTH 21 0
BBX 19 33 1 -8
BITMAP
400800
600C00
7E0FC0
FF1FE0
7F1FE0
7F0FE0
3F07E0
070300
020600
020C00
061800
043000
046000
0CC000
0D8000
0F0000
0F0000
0E0000
0E0000
0E0000
0E0000
0E0000
0E0000
060000
060000
060000
060000
060000
060000
060000
060000
060000
040000
ENDCHAR
STARTCHAR 05E6
ENCODING 1510
SWIDTH 450 0
DWIDTH 20 0
BBX 18 25 1 0
BITMAP
400000
401800
FC1F80
FE1FC0
FE1FC0
7E1FC0
3E0F80
060600
060C00
060800
061800
061000
07B000
03F000
03F000
01F800
007800
003E00
001F00
000F80
000380
3FFF80
3FFF80
7FFF80
7FFF00
ENDCHAR
STARTCHAR 05E7
ENCODING 1511
SWIDTH 472 0
DWIDTH 21 0
BBX 17 31 2 -8
BITMAP
600000
7FFC00
FFFF00
FFFF00
7FFF80
7FFF80
000380
000180
000180
000180
600180
600180
600180
600300
600E00
601C00
607000
60E000
618000
638000
630000
630000
670000
630000
600000
600000
600000
600000
600000
600000
400000
ENDCHAR
STARTCHAR 05E8
ENCODING 1512
SWIDTH 472 0
DWIDTH 21 0
BBX 17 24 1 0
BITMAP
600000
7FFC00
7FFF00
FFFF80
7FFF80
3FFF80
000780
000180
000180
000180
000180
000180
000180
000180
000180
000180
000180
000180
000180
000180
000180
000180
000180
000180
ENDCHAR
STARTCHAR 05E9
ENCODING 1513
SWIDTH 607 0
DWIDTH 27 0
BBX 25 25 1 0
BITMAP
40200000
60301800
7C3E1E00
FE7F1F00
FE7F3F80
7E3F1F80
3E1F0F00
10080300
10080300
10180200
30100400
30100400
30300800
30201800
30201000
10603000
18406000
18C06000
18C0E000
1D80C000
0D81C000
0FFFC000
0FFF8000
0FFF8000
07FF8000
ENDCHAR
STARTCHAR 05EA
ENCODING 1514
SWIDTH 495 0
DWIDTH 22 0
BBX 19 24 1 0
BITMAP
100000
3FFE00
3FFF80
3FFFC0
3FFFC0
1FFFE0
0201E0
0600E0
0400E0
0C0060
080060
080060
180060
180060
180060
180060
180060
1C0060
1C0060
1C0060
FC0060
FC0060
FC0060
FC0040
ENDCHAR
STARTCHAR 05F0
ENCODING 1520
SWIDTH 562 0
DWIDTH 25 0
BBX 21 25 1 0
BITMAP
000200
600600
7E07E0
FF07F8
7F87F8
7F87F8
3F81F8
038038
018018
018018
018018
018018
018018
018018
018018
018018
018018
018018
018018
018018
018018
018018
018018
018018
010018
ENDCHAR
STARTCHAR 05F1
ENCODING 1521
SWIDTH 540 0
DWIDTH 24 0
BBX 21 25 1 0
BITMAP
400400
600600
7E0FC0
FF0FF0
7F8FF0
7F87F8
3F83F8
038038
018038
018018
018018
010018
030018
020018
040018
000018
000018
000018
000018
000018
000018
000018
000018
000018
000010
ENDCHAR
STARTCHAR 05F2
ENCODING 1522
SWIDTH 540 0
DWIDTH 24 0
BBX 21 15 1 10
BITMAP
400400
600600
7E0FE0
FF0FF0
7F8FF8
7F87F8
3F83F8
038038
018018
018018
018010
010010
030030
020060
040040
ENDCHAR
STARTCHAR 05F3
ENCODING 1523
SWIDTH 202 0
DWIDTH 9 0
BBX 5 10 2 14
BITMAP
30
78
78
78
F0
F0
E0
E0
C0
C0
ENDCHAR
STARTCHAR 05F4
ENCODING 1524
SWIDTH 382 0
DWIDTH 17 0
BBX 12 10 2 14
BITMAP
3070
78F0
78F0
78F0
F0F0
F0E0
E0E0
E0C0
C080
C080
ENDCHAR
STARTCHAR 060C
ENCODING 1548
SWIDTH 315 0
DWIDTH 14 0
BBX 7 14 4 6
BITMAP
08
18
30
60
60
C0
C0
E0
FC
FC
FE
FE
7C
38
ENDCHAR
STARTCHAR 061B
ENCODING 1563
SWIDTH 315 0
DWIDTH 14 0
BBX 7 21 3 6
BITMAP
0C
18
38
30
60
60
60
78
FE
7E
7E
7E
3E
08
00
00
1C
3E
3E
3E
1C
ENDCHAR
STARTCHAR 061F
ENCODING 1567
SWIDTH 360 0
DWIDTH 16 0
BBX 13 26 1 6
BITMAP
0300
1FE0
3C30
7838
7878
78F8
F8F8
FCF8
7C70
7E00
7E00
3F00
1F00
0F00
0700
0300
0100
0100
0100
0000
0000
0780
0F80
0FC0
0780
0700
ENDCHAR
STARTCHAR 0621
ENCODING 1569
SWIDTH 405 0
DWIDTH 18 0
BBX 13 15 3 3
BITMAP
0700
0F80
1FC0
3FC0
6080
6000
E000
F038
FDF8
FFF0
3FC0
1E00
3800
3000
2000
ENDCHAR
STARTCHAR 0622
ENCODING 1570
SWIDTH 202 0
DWIDTH 9 0
BBX 9 31 0 6
BITMAP
2000
FF80
0600
0000
0000
0800
0C00
0C00
1C00
1C00
1C00
0C00
0C00
0C00
0E00
0E00
0E00
0E00
0E00
0E00
0600
0600
0600
0600
0600
0600
0600
0600
0600
0400
0400
ENDCHAR
STARTCHAR 0623
ENCODING 1571
SWIDTH 202 0
DWIDTH 9 0
BBX 5 33 2 6
BITMAP
18
38
40
60
38
E0
00
20
30
30
70
70
70
30
30
30
38
38
38
38
38
38
18
18
18
18
18
18
18
18
18
10
10
ENDCHAR
STARTCHAR 0624
ENCODING 1572
SWIDTH 427 0
DWIDTH 19 0
BBX 17 27 2 -2
BITMAP
00E000
012000
010000
01F000
01C000
020000
000000
000F00
001F00
001F80
003B80
003180
003180
003880
003F80
003F80
001F80
000380
000180
000380
000300
000700
000E00
003E00
007C00
FFF800
1FE000
ENDCHAR
STARTCHAR 0625
ENCODING 1573
SWIDTH 202 0
DWIDTH 9 0
BBX 6 36 1 -3
BITMAP
10
18
18
38
38
38
18
18
18
1C
1C
1C
1C
1C
1C
0C
0C
0C
0C
0C
0C
0C
0C
0C
08
08
00
00
00
00
38
68
40
74
38
C0
ENDCHAR
STARTCHAR 0626
ENCODING 1574
SWIDTH 630 0
DWIDTH 28 0
BBX 26 27 1 -2
BITMAP
08000000
1C000000
24000000
60000000
3E000000
38000F80
40001FC0
00003FC0
000070C0
0000C040
10008000
10018000
20010000
20030000
4003FF00
4003FF80
4003FF80
C000FF80
C0000100
C0000700
C0001F00
E0007E00
F803FC00
7FFFF800
7FFFF000
3FFFC000
07F80000
ENDCHAR
STARTCHAR 0627
ENCODING 1575
SWIDTH 202 0
DWIDTH 9 0
BBX 4 26 3 7
BITMAP
40
60
60
E0
E0
E0
60
60
60
70
70
70
70
70
70
30
30
30
30
30
30
30
30
30
20
20
ENDCHAR
STARTCHAR 0628
ENCODING 1576
SWIDTH 720 0
DWIDTH 32 0
BBX 31 22 1 -1
BITMAP
20000018
2000001C
4000003C
4000001C
C000000E
C000000E
C0000006
E0000006
70000006
7E000006
7FFFFFFE
3FFFFFFE
0FFFFFFE
00FFFFFE
00000000
00000000
00000000
00020000
00038000
0007C000
00038000
00018000
ENDCHAR
STARTCHAR 0629
ENCODING 1577
SWIDTH 292 0
DWIDTH 13 0
BBX 12 22 0 6
BITMAP
0300
03C0
77C0
7980
F800
3000
0000
0000
0000
0400
0F00
0F80
1FE0
1FF0
19F0
1070
3030
3030
38F0
3FE0
3FE0
1F80
ENDCHAR
STARTCHAR 062A
ENCODING 1578
SWIDTH 720 0
DWIDTH 32 0
BBX 31 22 1 6
BITMAP
00004000
0000F000
0008F000
001EF000
001E2000
001E0000
00040000
00000000
20000018
2000001C
4000003C
4000001C
C000000E
C000000E
C0000006
E0000006
70000006
7E000006
7FFFFFFE
3FFFFFFE
0FFFFFFE
00FFFFFE
ENDCHAR
STARTCHAR 062B
ENCODING 1579
SWIDTH 720 0
DWIDTH 32 0
BBX 31 25 1 7
BITMAP
000E0000
000F0000
001E0000
00064000
0000F000
0008F000
001EF000
001E2000
001E0000
00040000
00000000
20000018
2000001C
4000003C
4000001C
C000000E
C000000E
C0000006
E0000006
70000006
7E000006
7FFFFFFE
3FFFFFFE
0FFFFFFE
00FFFFFE
ENDCHAR
STARTCHAR 062C
ENCODING 1580
SWIDTH 562 0
DWIDTH 25 0
BBX 21 28 1 -9
BITMAP
0FFE08
3FFFF8
3FFFF8
7FFFF0
007FC0
01FC00
03C000
070000
0C0000
180000
300000
600000
400C00
401F00
C01E00
C00E00
C00000
C00000
C00000
E00000
600000
780000
7C0000
3F8000
1FFC00
0FFFF8
07FFF0
00FFC0
ENDCHAR
STARTCHAR 062D
ENCODING 1581
SWIDTH 562 0
DWIDTH 25 0
BBX 21 28 1 -9
BITMAP
0FFE08
3FFFF8
3FFFF8
7FFFF0
007FC0
01FC00
03C000
070000
0C0000
180000
300000
600000
400000
400000
C00000
C00000
C00000
C00000
C00000
E00000
600000
780000
7C0000
3F8000
1FFC00
0FFFF8
07FFF0
00FFC0
ENDCHAR
STARTCHAR 062E
ENCODING 1582
SWIDTH 562 0
DWIDTH 25 0
BBX 21 37 1 -9
BITMAP
003000
007C00
007800
003800
000000
000000
000000
000000
000000
0FFE08
3FFFF8
3FFFF8
7FFFF0
007FC0
01FC00
03C000
070000
0C0000
180000
300000
600000
400000
400000
C00000
C00000
C00000
C00000
C00000
E00000
600000
780000
7C0000
3F8000
1FFC00
0FFFF8
07FFF0
00FFC0
ENDCHAR
STARTCHAR 062F
ENCODING 1583
SWIDTH 337 0
DWIDTH 15 0
BBX 13 18 2 7
BITMAP
0300
0380
03C0
03E0
00E0
0070
0030
0010
0018
0018
0018
0008
8008
C008
FFF8
FFF8
7FF8
3FF8
ENDCHAR
STARTCHAR 0630
ENCODING 1584
SWIDTH 337 0
DWIDTH 15 0
BBX 13 27 2 7
BITMAP
1C00
1E00
3C00
0C00
0000
0000
0000
0000
0000
0300
0380
03C0
03E0
00E0
0070
0030
0010
0018
0018
0018
0008
8008
C008
FFF8
FFF8
7FF8
3FF8
ENDCHAR
STARTCHAR 0631
ENCODING 1585
SWIDTH 495 0
DWIDTH 22 0
BBX 20 23 2 -4
BITMAP
000080
0000C0
0001C0
0001E0
0000E0
000070
000070
000030
000030
000030
000030
000030
000030
000070
0000E0
0001E0
0003C0
0007C0
000F80
003F00
FFFE00
3FF800
07E000
ENDCHAR
STARTCHAR 0632
ENCODING 1586
SWIDTH 495 0
DWIDTH 22 0
BBX 20 32 2 -4
BITMAP
000E00
000F00
001F00
000600
000000
000000
000000
000000
000000
000080
0000C0
0001C0
0001E0
0000E0
000070
000070
000030
000030
000030
000030
000030
000030
000070
0000E0
0001E0
0003C0
0007C0
000F80
003F00
FFFE00
3FF800
07E000
ENDCHAR
STARTCHAR 0633
ENCODING 1587
SWIDTH 832 0
DWIDTH 37 0
BBX 35 21 1 -2
BITMAP
0000080000
0000180060
00001C08E0
00001C0860
10001C0C20
10001C0420
20000C0E20
20000C1F20
600007FFE0
400007FFE0
400007FBE0
400007C060
4000040000
C0000C0000
E0001C0000
E000380000
7800F80000
7FFFF00000
3FFFE00000
1FFF800000
07FE000000
ENDCHAR
STARTCHAR 0634
ENCODING 1588
SWIDTH 832 0
DWIDTH 37 0
BBX 35 35 1 -3
BITMAP
0000002000
0000007000
0000007800
0000007800
0000003200
0000000780
0000004780
000000F780
000000F100
000000F000
0000002000
0000000000
0000000000
0000000000
0000080000
0000180060
00001C08E0
00001C0860
10001C0C20
10001C0420
20000C0E20
20000C1F20
600007FFE0
400007FFE0
400007FBE0
400007C060
4000040000
C0000C0000
E0001C0000
E000380000
7800F80000
7FFFF00000
3FFFE00000
1FFF800000
07FE000000
ENDCHAR
STARTCHAR 0635
ENCODING 1589
SWIDTH 1102 0
DWIDTH 49 0
BBX 48 21 1 -2
BITMAP
0000080001F8
000018000FFC
00001C001FFE
00001C007FFE
10001C00F81F
10001C03C00F
20000C07000F
20000C3C001F
600007FFFFFF
400007FFFFFF
400007FFFFFF
400007FFFFFF
400004000000
C0000C000000
E00018000000
E00038000000
7800F0000000
7FFFF0000000
3FFFE0000000
1FFF80000000
07FE00000000
ENDCHAR
STARTCHAR 0636
ENCODING 1590
SWIDTH 1102 0
DWIDTH 49 0
BBX 48 29 1 -3
BITMAP
000000060000
000000078000
0000000F8000
000000070000
000000010000
000000000000
000000000000
000000000000
0000080001F8
000018000FFC
00001C001FFE
00001C007FFE
10001C00F81F
10001C03C00F
20000C07000F
20000C3C001F
600007FFFFFF
400007FFFFFF
400007FFFFFF
400007FFFFFF
400004000000
C0000C000000
E00018000000
E00038000000
7800F0000000
7FFFF0000000
3FFFE0000000
1FFF80000000
07FE00000000
ENDCHAR
STARTCHAR 0637
ENCODING 1591
SWIDTH 585 0
DWIDTH 26 0
BBX 28 29 -2 6
BITMAP
00800000
00C00000
01F00000
01F00000
01F00000
00F00000
00600000
00600000
00600000
00300000
00300000
00300000
00300000
00300000
00300000
00100000
00100000
00101F80
00107FC0
0011FFE0
0017FFE0
003F81F0
003C00F0
007000F0
03C001F0
FFFFFFF0
FFFFFFF0
FFFFFFF0
FFFFFFF0
ENDCHAR
STARTCHAR 0638
ENCODING 1592
SWIDTH 585 0
DWIDTH 26 0
BBX 28 29 -2 6
BITMAP
00800000
00C00000
01F00000
01F00000
01F00000
00F00000
00600000
00603000
00607C00
00307800
00303800
00300000
00300000
00300000
00300000
00100000
00100000
00101F80
00107FC0
0011FFE0
0017FFE0
003F81F0
003C00F0
007000F0
03C001F0
FFFFFFF0
FFFFFFF0
FFFFFFF0
FFFFFFF0
ENDCHAR
STARTCHAR 0639
ENCODING 1593
SWIDTH 540 0
DWIDTH 24 0
BBX 21 33 1 -9
BITMAP
038000
0FE000
3FF800
3E0000
600000
C00000
C00000
C001C0
F007C0
7C1F80
7FFF00
3FFC00
1FE000
078000
0F0000
1C0000
380000
700000
600000
400000
C00000
C00000
C00000
C00000
C00000
E00000
F00000
780000
7E0000
3FF800
1FFFF8
0FFFE0
01FFC0
ENDCHAR
STARTCHAR 063A
ENCODING 1594
SWIDTH 540 0
DWIDTH 24 0
BBX 21 42 1 -9
BITMAP
020000
038000
07C000
078000
010000
000000
000000
000000
000000
038000
0FE000
3FF800
3E0000
600000
C00000
C00000
C001C0
F007C0
7C1F80
7FFF00
3FFC00
1FE000
078000
0F0000
1C0000
380000
700000
600000
400000
C00000
C00000
C00000
C00000
C00000
E00000
F00000
780000
7E0000
3FF800
1FFFF8
0FFFE0
01FFC0
ENDCHAR
STARTCHAR 0640
ENCODING 1600
SWIDTH 202 0
DWIDTH 9 0
BBX 11 4 -2 6
BITMAP
FFE0
FFE0
FFE0
FFE0
ENDCHAR
STARTCHAR 0641
ENCODING 1601
SWIDTH 787 0
DWIDTH 35 0
BBX 34 24 1 6
BITMAP
0000003000
0000007C00
0000007800
0000003800
0000001000
0000000000
0000000000
0000000000
0000000000
2000000F00
2000001F80
4000001F80
4000003FC0
C0000039C0
C0000031C0
C0000078C0
C000003CC0
E000003FC0
F800001FC0
7F800007C0
7FFFFFFFC0
1FFFFFFFC0
07FFFFFFC0
003FFFFFC0
ENDCHAR
STARTCHAR 0642
ENCODING 1602
SWIDTH 585 0
DWIDTH 26 0
BBX 24 33 2 -3
BITMAP
000060
000078
000CF8
000F70
001F10
000600
000200
000000
000000
000000
000070
0000F8
0001FC
0001FE
00039E
20030E
20030E
2003FF
4003FF
4003FF
C001FF
800003
800003
800003
800003
800003
C00007
E0001E
F0007E
FFFFFC
7FFFF8
3FFFE0
0FFF80
ENDCHAR
STARTCHAR 0643
ENCODING 1603
SWIDTH 607 0
DWIDTH 27 0
BBX 26 28 1 6
BITMAP
00000800
00000C00
00000F80
00000F80
00000F80
00000780
00018700
00030600
00070600
000C0700
00080300
00180300
001F8300
001FC300
0001C300
2000C380
20018380
40078180
43FF0180
C0000180
C0000180
C0000180
E00001C0
FC0001C0
FFFFFFC0
7FFFFFC0
3FFFFFC0
01FFFFC0
ENDCHAR
STARTCHAR 0644
ENCODING 1604
SWIDTH 517 0
DWIDTH 23 0
BBX 21 34 2 0
BITMAP
000080
0000C0
0001F0
0001F0
0001F0
0000F0
0000D0
0000E0
000060
000060
000060
000060
000060
000060
000030
000030
100030
200030
200030
400030
400030
400030
800010
800010
800018
800010
C00030
C00030
E000F0
F807F0
FFFFE0
7FFFC0
1FFF00
01F000
ENDCHAR
STARTCHAR 0645
ENCODING 1605
SWIDTH 337 0
DWIDTH 15 0
BBX 14 25 1 -9
BITMAP
0380
0FE0
0FF0
1DF0
1078
003C
03FC
1FFC
7FFC
7FFC
F800
C000
C000
C000
C000
C000
C000
6000
6000
6000
3000
3000
3000
1000
2000
ENDCHAR
STARTCHAR 0646
ENCODING 1606
SWIDTH 517 0
DWIDTH 23 0
BBX 22 27 1 -2
BITMAP
003800
003C00
003C00
000800
000000
000000
000008
000008
00001C
00001C
10001C
10000C
20000C
20000C
200004
400004
400004
400004
400004
40000C
E0001C
70003C
7800F8
7FFFF8
3FFFF0
1FFFC0
07FF00
ENDCHAR
STARTCHAR 0647
ENCODING 1607
SWIDTH 292 0
DWIDTH 13 0
BBX 11 13 1 6
BITMAP
1800
1C00
3F00
3F80
3FC0
23E0
60E0
4060
E0C0
E1C0
FFC0
FF80
7F00
ENDCHAR
STARTCHAR 0648
ENCODING 1608
SWIDTH 427 0
DWIDTH 19 0
BBX 17 20 2 -3
BITMAP
000F00
001F00
001F80
003B80
003180
003180
003880
003F80
003F80
001F80
000380
000180
000380
000300
000700
000E00
003E00
007C00
FFF800
1FE000
ENDCHAR
STARTCHAR 0649
ENCODING 1609
SWIDTH 630 0
DWIDTH 28 0
BBX 26 22 1 -1
BITMAP
00000F80
00001FC0
00003FC0
000070C0
0000C040
10008000
10018000
20010000
20030000
4003FF00
4003FF80
4003FF80
C000FF80
C0000100
C0000700
C0001F00
E0007E00
F803FC00
7FFFF800
7FFFF000
3FFFC000
07F80000
ENDCHAR
STARTCHAR 064A
ENCODING 1610
SWIDTH 630 0
DWIDTH 28 0
BBX 26 29 1 -8
BITMAP
00000F80
00001FC0
00003FC0
000070C0
0000C040
10008000
10018000
20010000
20030000
4003FF00
4003FF80
4003FF80
C000FF80
C0000100
C0000700
C0001F00
E0007E00
F803FC00
7FFFF800
7FFFF000
3FFFC000
07F80000
00020000
00030000
0047C000
00778000
00F90000
00F00000
00200000
ENDCHAR
STARTCHAR 064B
ENCODING 1611
SWIDTH 202 0
DWIDTH 9 0
BBX 7 7 2 28
BITMAP
0E
38
E0
06
3C
F0
80
ENDCHAR
STARTCHAR 064C
ENCODING 1612
SWIDTH 247 0
DWIDTH 11 0
BBX 9 8 2 27
BITMAP
0700
0580
CD00
EF00
A700
2700
7900
7000
ENDCHAR
STARTCHAR 064D
ENCODING 1613
SWIDTH 202 0
DWIDTH 9 0
BBX 7 7 2 -6
BITMAP
02
1C
78
C2
0C
38
E0
ENDCHAR
STARTCHAR 064E
ENCODING 1614
SWIDTH 202 0
DWIDTH 9 0
BBX 7 4 2 30
BITMAP
06
3C
E0
80
ENDCHAR
STARTCHAR 064F
ENCODING 1615
SWIDTH 202 0
DWIDTH 9 0
BBX 7 9 2 27
BITMAP
0E
1E
12
1A
1E
0E
1A
30
E0
ENDCHAR
STARTCHAR 0650
ENCODING 1616
SWIDTH 202 0
DWIDTH 9 0
BBX 7 4 2 0
BITMAP
0E
3C
E0
80
ENDCHAR
STARTCHAR 0651
ENCODING 1617
SWIDTH 202 0
DWIDTH 9 0
BBX 7 6 2 28
BITMAP
12
92
9E
BE
FC
E0
ENDCHAR
STARTCHAR 0652
ENCODING 1618
SWIDTH 157 0
DWIDTH 7 0
BBX 5 7 2 27
BITMAP
20
78
98
88
88
F8
F0
ENDCHAR
STARTCHAR 0653
ENCODING 1619
SWIDTH 202 0
DWIDTH 9 0
BBX 9 2 0 31
BITMAP
7880
9F00
ENDCHAR
STARTCHAR 0654
ENCODING 1620
SWIDTH 202 0
DWIDTH 9 0
BBX 5 6 2 33
BITMAP
18
38
40
60
38
E0
ENDCHAR
STARTCHAR 0655
ENCODING 1621
SWIDTH 202 0
DWIDTH 9 0
BBX 5 6 2 -3
BITMAP
18
38
40
60
38
E0
ENDCHAR
STARTCHAR 0660
ENCODING 1632
SWIDTH 517 0
DWIDTH 23 0
BBX 7 10 8 10
BITMAP
20
30
78
7E
7E
FE
FC
7C
1C
0C
ENDCHAR
STARTCHAR 0661
ENCODING 1633
SWIDTH 517 0
DWIDTH 23 0
BBX 8 26 7 6
BITMAP
40
60
60
F0
F8
F8
7C
3C
3C
1E
1E
0E
0E
06
06
07
07
03
02
02
02
02
02
02
02
02
ENDCHAR
STARTCHAR 0662
ENCODING 1634
SWIDTH 517 0
DWIDTH 23 0
BBX 13 26 4 6
BITMAP
4008
6008
7008
F818
FE38
7FF8
3FF8
3FF0
1FE0
0F00
0F00
0700
0780
0380
0380
0380
0180
01C0
01C0
01C0
00C0
00C0
00C0
00C0
0040
0040
ENDCHAR
STARTCHAR 0663
ENCODING 1635
SWIDTH 517 0
DWIDTH 23 0
BBX 18 26 3 6
BITMAP
401040
401040
6038C0
F07FC0
FFFFC0
FFFF80
FFFF80
7F8600
3C0000
3C0000
1E0000
0E0000
0E0000
070000
070000
070000
030000
030000
030000
030000
030000
030000
030000
030000
030000
020000
ENDCHAR
STARTCHAR 0664
ENCODING 1636
SWIDTH 517 0
DWIDTH 23 0
BBX 11 25 7 7
BITMAP
0100
0300
0700
1F00
3800
2000
6000
F000
FC00
FF00
FF80
7F00
1E00
0400
0800
1800
3000
6000
7000
FC00
FFE0
FFC0
7FC0
3FC0
0180
ENDCHAR
STARTCHAR 0665
ENCODING 1637
SWIDTH 517 0
DWIDTH 23 0
BBX 15 17 4 11
BITMAP
0180
07E0
0FF0
1FF8
1FFC
30FE
203E
600E
4006
4002
4002
E006
F00C
FFFC
FFF8
7FF0
1FC0
ENDCHAR
STARTCHAR 0666
ENCODING 1638
SWIDTH 517 0
DWIDTH 23 0
BBX 14 25 4 7
BITMAP
8000
8000
E0E0
FFE0
FFE0
FFE0
FFE0
3E40
0040
0040
0060
0060
0060
0060
0060
0060
0070
0070
0078
007C
003C
003C
001C
001C
0008
ENDCHAR
STARTCHAR 0667
ENCODING 1639
SWIDTH 517 0
DWIDTH 23 0
BBX 17 24 3 7
BITMAP
800080
C00080
E00180
F00180
F00380
F80380
F80700
7C0700
3C0E00
1E0C00
1E0C00
0F1800
071800
071000
039000
03A000
01A000
01E000
01E000
00C000
00C000
00C000
004000
004000
ENDCHAR
STARTCHAR 0668
ENCODING 1640
SWIDTH 517 0
DWIDTH 23 0
BBX 18 25 3 7
BITMAP
008000
008000
008000
00C000
00C000
01C000
01C000
01E000
016000
027000
027000
067800
063800
043C00
0C3C00
1C1E00
1C1F00
380F80
780FC0
F007C0
F007C0
E003C0
C00180
C00080
800080
ENDCHAR
STARTCHAR 0669
ENCODING 1641
SWIDTH 517 0
DWIDTH 23 0
BBX 13 25 5 6
BITMAP
0F80
1F80
3FC0
7FC0
71C0
40E0
C0E0
C0E0
F1E0
FFE0
FFE0
7FE0
3E60
0060
0060
0060
0060
0070
0070
0070
0078
0078
0038
0038
0010
ENDCHAR
STARTCHAR 066A
ENCODING 1642
SWIDTH 517 0
DWIDTH 23 0
BBX 18 31 3 4
BITMAP
1001C0
7C0180
7C0380
7C0300
7C0700
380600
000E00
000C00
001C00
001800
003800
003000
007000
006000
00E000
00C000
018000
018000
030000
030000
060000
060000
0C0000
0C0000
180000
180000
300F00
301F00
601F80
601F00
C00F00
ENDCHAR
STARTCHAR 066B
ENCODING 1643
SWIDTH 315 0
DWIDTH 14 0
BBX 6 11 4 1
BITMAP
38
7C
FC
FC
7C
3C
18
18
30
E0
40
ENDCHAR
STARTCHAR 066C
ENCODING 1644
SWIDTH 315 0
DWIDTH 14 0
BBX 7 14 4 6
BITMAP
08
18
30
60
60
C0
C0
E0
FC
FC
FE
FE
7C
38
ENDCHAR
STARTCHAR 066D
ENCODING 1645
SWIDTH 517 0
DWIDTH 23 0
BBX 15 15 4 18
BITMAP
0300
0380
3BB8
3B38
3D70
0D60
F39C
FEFE
F39C
0DE0
3D70
3B38
3BB8
0380
0300
ENDCHAR
STARTCHAR 066E
ENCODING 1646
SWIDTH 720 0
DWIDTH 32 0
BBX 31 14 1 7
BITMAP
20000018
2000001C
4000003C
4000001C
C000000E
C000000E
C0000006
E0000006
70000006
7E000006
7FFFFFFE
3FFFFFFE
0FFFFFFE
00FFFFFE
ENDCHAR
STARTCHAR 066F
ENCODING 1647
SWIDTH 585 0
DWIDTH 26 0
BBX 24 23 2 -3
BITMAP
000070
0000F8
0001FC
0001FE
00039E
20030E
20030E
2003FF
4003FF
4003FF
C001FF
800003
800003
800003
800003
800003
C00007
E0001E
F0007E
FFFFFC
7FFFF8
3FFFE0
0FFF80
ENDCHAR
STARTCHAR 0670
ENCODING 1648
SWIDTH 0 0
DWIDTH 0 0
BBX 2 11 -1 24
BITMAP
80
80
80
C0
C0
40
40
40
40
40
40
ENDCHAR
STARTCHAR 0671
ENCODING 1649
SWIDTH 202 0
DWIDTH 9 0
BBX 9 34 0 6
BITMAP
0100
0780
0980
1180
7F00
FE00
8000
0000
0800
0C00
0C00
1C00
1C00
1C00
0C00
0C00
0C00
0E00
0E00
0E00
0E00
0E00
0E00
0600
0600
0600
0600
0600
0600
0600
0600
0600
0400
0400
ENDCHAR
STARTCHAR 0672
ENCODING 1650
SWIDTH 202 0
DWIDTH 9 0
BBX 8 33 0 7
BITMAP
0E
12
10
1F
FC
20
00
08
0C
0C
1C
1C
1C
0C
0C
0C
0E
0E
0E
0E
0E
0E
06
06
06
06
06
06
06
06
06
04
04
ENDCHAR
STARTCHAR 0673
ENCODING 1651
SWIDTH 202 0
DWIDTH 9 0
BBX 8 35 1 -3
BITMAP
10
18
18
38
38
38
18
18
18
1C
1C
1C
1C
1C
1C
0C
0C
0C
0C
0C
0C
0C
0C
0C
08
08
00
00
00
04
0E
12
30
1F
FC
ENDCHAR
STARTCHAR 0674
ENCODING 1652
SWIDTH 202 0
DWIDTH 9 0
BBX 5 6 2 33
BITMAP
18
38
40
60
38
E0
ENDCHAR
STARTCHAR 0675
ENCODING 1653
SWIDTH 202 0
DWIDTH 9 0
BBX 10 26 3 7
BITMAP
4380
6480
6600
E7C0
E300
E800
6000
6000
6000
7000
7000
7000
7000
7000
7000
3000
3000
3000
3000
3000
3000
3000
3000
3000
2000
2000
ENDCHAR
STARTCHAR 0676
ENCODING 1654
SWIDTH 427 0
DWIDTH 19 0
BBX 21 29 2 -2
BITMAP
000070
000090
000180
0000F8
0000E0
000100
000000
000000
000000
000F00
001F00
001F80
003B80
003180
003180
003880
003F80
003F80
001F80
000380
000180
000380
000300
000700
000E00
003E00
007C00
FFF800
1FE000
ENDCHAR
STARTCHAR 0677
ENCODING 1655
SWIDTH 427 0
DWIDTH 19 0
BBX 21 30 2 -3
BITMAP
00E000
00E070
01A090
01E180
00E0F8
0070E0
009100
030000
060000
000000
000F00
001F00
001F80
003B80
003180
003180
003880
003F80
003F80
001F80
000380
000180
000380
000300
000700
000E00
003E00
007C00
FFF800
1FE000
ENDCHAR
STARTCHAR 0678
ENCODING 1656
SWIDTH 630 0
DWIDTH 28 0
BBX 29 32 1 -2
BITMAP
00000070
000000A0
00000180
000000F8
000000E0
00000100
00000000
00000000
00000000
00000000
00000F80
00001FC0
00003FC0
000070C0
0000C040
10008000
10018000
20010000
20030000
4003FF00
4003FF80
4003FF80
C000FF80
C0000100
C0000700
C0001F00
E0007E00
F803FC00
7FFFF800
7FFFF000
3FFFC000
07F80000
ENDCHAR
STARTCHAR 0679
ENCODING 1657
SWIDTH 720 0
DWIDTH 32 0
BBX 31 31 1 6
BITMAP
00080000
000C0000
000C0000
00040000
00040000
00040000
00040000
00040000
00043000
0004F800
00039C00
00040C00
007FFC00
007FFC00
00000000
00000000
00000000
20000018
2000001C
4000003C
4000001C
C000000E
C000000E
C0000006
E0000006
70000006
7E000006
7FFFFFFE
3FFFFFFE
0FFFFFFE
00FFFFFE
ENDCHAR
STARTCHAR 067A
ENCODING 1658
SWIDTH 720 0
DWIDTH 32 0
BBX 31 27 1 6
BITMAP
00070000
00078000
000F8000
00030000
00000000
00010000
0003C000
0003C000
00038000
00008000
00000000
00000000
00000000
20000018
2000001C
4000003C
4000001C
C000000E
C000000E
C0000006
E0000006
70000006
7E000006
7FFFFFFE
3FFFFFFE
0FFFFFFE
00FFFFFE
ENDCHAR
STARTCHAR 067B
ENCODING 1659
SWIDTH 720 0
DWIDTH 32 0
BBX 31 27 1 -6
BITMAP
20000018
2000001C
4000003C
4000001C
C000000E
C000000E
C0000006
E0000006
70000006
7E000006
7FFFFFFE
3FFFFFFE
0FFFFFFE
00FFFFFE
00000000
00000000
00000000
00010000
0003C000
0003C000
0003C000
00008000
00000000
0000C000
0001E000
0003E000
0000C000
ENDCHAR
STARTCHAR 067C
ENCODING 1660
SWIDTH 720 0
DWIDTH 32 0
BBX 31 27 1 1
BITMAP
00004000
0000F000
0008F000
001EF000
001E2000
001E0000
00040000
00000000
20000018
2000001C
4000003C
4000001C
C000000E
C000000E
C0000006
E0000006
70000006
7E000006
7FFFFFFE
3FFFFFFE
0FFFFFFE
00FFFFFE
00026000
00042000
0003E000
0003C000
00010000
ENDCHAR
STARTCHAR 067D
ENCODING 1661
SWIDTH 720 0
DWIDTH 32 0
BBX 31 27 1 6
BITMAP
0000E000
0000F000
001DF000
001E6000
003E0000
000C0000
0000C000
0001E000
0003E000
0000C000
00000000
00000000
00000000
20000018
2000001C
4000003C
4000001C
C000000E
C000000E
C0000006
E0000006
70000006
7E000006
7FFFFFFE
3FFFFFFE
0FFFFFFE
00FFFFFE
ENDCHAR
STARTCHAR 067E
ENCODING 1662
SWIDTH 720 0
DWIDTH 32 0
BBX 31 28 1 -7
BITMAP
20000018
2000001C
4000003C
4000001C
C000000E
C000000E
C0000006
E0000006
70000006
7E000006
7FFFFFFE
3FFFFFFE
0FFFFFFE
00FFFFFE
00000000
00000000
00000000
00006000
00007800
000CF800
000F7000
001F1000
000E0000
0002C000
0000F000
0001F000
0000E000
00002000
ENDCHAR
STARTCHAR 067F
ENCODING 1663
SWIDTH 720 0
DWIDTH 32 0
BBX 31 27 1 6
BITMAP
0000C000
0001F000
0019E000
003EE000
003C0000
001C4000
00007000
0008F800
000EF000
001F2000
001E0000
00040000
00000000
20000018
2000001C
4000003C
4000001C
C000000E
C000000E
C0000006
E0000006
70000006
7E000006
7FFFFFFE
3FFFFFFE
0FFFFFFE
00FFFFFE
ENDCHAR
STARTCHAR 0680
ENCODING 1664
SWIDTH 720 0
DWIDTH 32 0
BBX 31 29 1 -8
BITMAP
20000018
2000001C
4000003C
4000001C
C000000E
C000000E
C0000006
E0000006
70000006
7E000006
7FFFFFFE
3FFFFFFE
0FFFFFFE
00FFFFFE
00000000
00000000
00000000
00004000
0000F000
0008F000
001EF000
001E2000
001E0000
00043000
00007C00
0006F800
000FB800
000F0000
00070000
ENDCHAR
ENDFONT
